M48
; DRILL file KiCad 10.0.1 date 2026-05-04T15:07:54
; FORMAT={-:-/ absolute / metric / decimal}
; #@! TF.CreationDate,2026-05-04T15:07:54-04:00
; #@! TF.GenerationSoftware,Kicad,Pcbnew,10.0.1
; #@! TF.FileFunction,Plated,1,2,PTH
FMAT,2
METRIC
; #@! TA.AperFunction,Plated,PTH,ComponentDrill
T1C0.800
; #@! TA.AperFunction,Plated,PTH,ComponentDrill
T2C0.950
; #@! TA.AperFunction,Plated,PTH,ComponentDrill
T3C1.000
; #@! TA.AperFunction,Plated,PTH,ComponentDrill
T4C1.100
; #@! TA.AperFunction,Plated,PTH,ComponentDrill
T5C1.300
%
G90
G05
T1
X109.34Y-82.61
X109.34Y-92.77
X138.058Y-116.898
X138.058Y-127.058
X144.56Y-115.604
X150.758Y-73.718
X150.758Y-83.878
X150.758Y-96.578
X150.758Y-106.738
X154.72Y-115.604
T2
X144.88Y-124.06
X147.38Y-124.06
X149.88Y-124.06
X157.63Y-124.085
X160.13Y-124.085
X162.63Y-124.085
X164.5Y-61.0
X167.0Y-61.0
X169.5Y-61.0
X170.38Y-124.015
X172.0Y-61.0
X172.88Y-124.015
X175.38Y-124.015
X181.5Y-61.0
X183.13Y-124.06
X184.0Y-61.0
X185.63Y-124.06
X186.5Y-61.0
X188.13Y-124.06
X189.0Y-61.0
X198.0Y-61.0
X198.0Y-70.754
X198.0Y-80.508
X198.0Y-90.263
X198.0Y-100.017
X198.0Y-109.771
X198.0Y-119.525
X200.5Y-61.0
X200.5Y-70.754
X200.5Y-80.508
X200.5Y-90.263
X200.5Y-100.017
X200.5Y-109.771
X200.5Y-119.525
X203.0Y-61.0
X203.0Y-70.754
X203.0Y-80.508
X203.0Y-90.263
X203.0Y-100.017
X203.0Y-109.771
X203.0Y-119.525
X205.5Y-61.0
X205.5Y-70.754
X205.5Y-80.508
X205.5Y-90.263
X205.5Y-100.017
X205.5Y-109.771
X205.5Y-119.525
T3
X97.0Y-60.66
X99.54Y-60.66
X102.08Y-60.66
X104.62Y-60.66
X107.16Y-60.66
X109.7Y-60.66
X112.24Y-60.66
X114.78Y-60.66
X115.158Y-114.358
X115.198Y-71.178
X115.198Y-73.718
X115.198Y-76.258
X115.198Y-78.798
X115.198Y-81.338
X115.198Y-83.878
X115.198Y-86.418
X115.198Y-88.958
X115.198Y-91.498
X115.198Y-94.038
X115.198Y-96.578
X115.198Y-99.118
X115.198Y-101.658
X115.198Y-104.198
X115.198Y-106.738
X115.198Y-132.138
X117.32Y-60.66
X117.698Y-114.358
X117.738Y-132.138
X120.238Y-114.358
X120.278Y-132.138
X122.778Y-114.358
X122.818Y-132.138
X125.318Y-114.358
X125.358Y-132.138
X127.858Y-114.358
X127.898Y-132.138
X130.398Y-114.358
X130.438Y-132.138
X132.938Y-114.358
X132.978Y-132.138
X140.598Y-71.178
X140.598Y-73.718
X140.598Y-76.258
X140.598Y-78.798
X140.598Y-81.338
X140.598Y-83.878
X140.598Y-86.418
X140.598Y-88.958
X140.598Y-91.498
X140.598Y-94.038
X140.598Y-96.578
X140.598Y-99.118
X140.598Y-101.658
X140.598Y-104.198
X140.598Y-106.738
X149.885Y-58.478
X149.885Y-63.478
X160.918Y-71.178
X160.918Y-88.958
X160.918Y-96.578
X160.918Y-114.358
X163.458Y-71.178
X163.458Y-88.958
X163.458Y-96.578
X163.458Y-114.358
X165.998Y-71.178
X165.998Y-88.958
X165.998Y-96.578
X165.998Y-114.358
X168.538Y-71.178
X168.538Y-88.958
X168.538Y-96.578
X168.538Y-114.358
X171.078Y-71.178
X171.078Y-88.958
X171.078Y-96.578
X171.078Y-114.358
X173.618Y-71.178
X173.618Y-88.958
X173.618Y-96.578
X173.618Y-114.358
X176.158Y-71.178
X176.158Y-88.958
X176.158Y-96.578
X176.158Y-114.358
X178.698Y-71.178
X178.698Y-88.958
X178.698Y-96.578
X178.698Y-114.358
X181.238Y-71.178
X181.238Y-88.958
X181.238Y-96.578
X181.238Y-114.358
X183.778Y-71.178
X183.778Y-88.958
X183.778Y-96.578
X183.778Y-114.358
X186.318Y-71.178
X186.318Y-88.958
X186.318Y-96.578
X186.318Y-114.358
X188.858Y-71.178
X188.858Y-88.958
X188.858Y-96.578
X188.858Y-114.358
T4
X98.42Y-98.66
X100.32Y-85.68
X100.32Y-88.22
X100.32Y-90.76
X108.58Y-98.66
T5
X103.42Y-105.47
X103.42Y-110.55
X103.44Y-71.71
X103.44Y-76.79
X103.454Y-118.77
X103.454Y-123.85
T3
G00X124.63Y-61.56
M15
G01X124.63Y-63.56
M16
G05
G00X130.33Y-59.56
M15
G01X128.33Y-59.56
M16
G05
G00X130.33Y-65.56
M15
G01X128.33Y-65.56
M16
G05
M30
