%TF.GenerationSoftware,KiCad,Pcbnew,10.0.1*%
%TF.CreationDate,2026-05-04T15:31:15-04:00*%
%TF.ProjectId,motherboard,6d6f7468-6572-4626-9f61-72642e6b6963,rev?*%
%TF.SameCoordinates,Original*%
%TF.FileFunction,Soldermask,Top*%
%TF.FilePolarity,Negative*%
%FSLAX46Y46*%
G04 Gerber Fmt 4.6, Leading zero omitted, Abs format (unit mm)*
G04 Created by KiCad (PCBNEW 10.0.1) date 2026-05-04 15:31:15*
%MOMM*%
%LPD*%
G01*
G04 APERTURE LIST*
G04 Aperture macros list*
%AMRoundRect*
0 Rectangle with rounded corners*
0 $1 Rounding radius*
0 $2 $3 $4 $5 $6 $7 $8 $9 X,Y pos of 4 corners*
0 Add a 4 corners polygon primitive as box body*
4,1,4,$2,$3,$4,$5,$6,$7,$8,$9,$2,$3,0*
0 Add four circle primitives for the rounded corners*
1,1,$1+$1,$2,$3*
1,1,$1+$1,$4,$5*
1,1,$1+$1,$6,$7*
1,1,$1+$1,$8,$9*
0 Add four rect primitives between the rounded corners*
20,1,$1+$1,$2,$3,$4,$5,0*
20,1,$1+$1,$4,$5,$6,$7,0*
20,1,$1+$1,$6,$7,$8,$9,0*
20,1,$1+$1,$8,$9,$2,$3,0*%
G04 Aperture macros list end*
%ADD10C,1.600000*%
%ADD11C,3.200000*%
%ADD12R,1.700000X1.700000*%
%ADD13C,1.700000*%
%ADD14C,2.200000*%
%ADD15RoundRect,0.249999X-0.850001X-0.850001X0.850001X-0.850001X0.850001X0.850001X-0.850001X0.850001X0*%
%ADD16C,2.000000*%
%ADD17RoundRect,0.250000X0.750000X-0.750000X0.750000X0.750000X-0.750000X0.750000X-0.750000X-0.750000X0*%
%ADD18RoundRect,0.250000X-1.050000X1.050000X-1.050000X-1.050000X1.050000X-1.050000X1.050000X1.050000X0*%
%ADD19C,2.600000*%
%ADD20O,1.700000X1.950000*%
%ADD21RoundRect,0.250000X-0.600000X-0.725000X0.600000X-0.725000X0.600000X0.725000X-0.600000X0.725000X0*%
%ADD22R,3.500000X3.500000*%
%ADD23RoundRect,0.750000X-1.000000X0.750000X-1.000000X-0.750000X1.000000X-0.750000X1.000000X0.750000X0*%
%ADD24RoundRect,0.875000X-0.875000X0.875000X-0.875000X-0.875000X0.875000X-0.875000X0.875000X0.875000X0*%
%ADD25O,2.000000X1.905000*%
%ADD26R,2.000000X1.905000*%
G04 APERTURE END LIST*
D10*
%TO.C,R4*%
X138058188Y-127058235D03*
X138058188Y-116898235D03*
%TD*%
D11*
%TO.C,H2*%
X210159600Y-54737000D03*
%TD*%
D12*
%TO.C,J21*%
X160918188Y-114358235D03*
D13*
X163458188Y-114358235D03*
X165998188Y-114358235D03*
X168538188Y-114358235D03*
X171078188Y-114358235D03*
X173618188Y-114358235D03*
X176158188Y-114358235D03*
X178698188Y-114358235D03*
X181238188Y-114358235D03*
X183778188Y-114358235D03*
X186318188Y-114358235D03*
X188858188Y-114358235D03*
%TD*%
D10*
%TO.C,R5*%
X109340000Y-82610000D03*
X109340000Y-92770000D03*
%TD*%
D14*
%TO.C,D1*%
X108580000Y-98660000D03*
D15*
X98420000Y-98660000D03*
%TD*%
D16*
%TO.C,C1*%
X149885400Y-58478235D03*
D17*
X149885400Y-63478235D03*
%TD*%
D12*
%TO.C,J22*%
X188858188Y-96578235D03*
D13*
X186318188Y-96578235D03*
X183778188Y-96578235D03*
X181238188Y-96578235D03*
X178698188Y-96578235D03*
X176158188Y-96578235D03*
X173618188Y-96578235D03*
X171078188Y-96578235D03*
X168538188Y-96578235D03*
X165998188Y-96578235D03*
X163458188Y-96578235D03*
X160918188Y-96578235D03*
%TD*%
%TO.C,J2*%
X115198188Y-106738235D03*
X115198188Y-104198235D03*
X115198188Y-101658235D03*
X115198188Y-99118235D03*
X115198188Y-96578235D03*
X115198188Y-94038235D03*
X115198188Y-91498235D03*
X115198188Y-88958235D03*
X115198188Y-86418235D03*
X115198188Y-83878235D03*
X115198188Y-81338235D03*
X115198188Y-78798235D03*
X115198188Y-76258235D03*
X115198188Y-73718235D03*
D12*
X115198188Y-71178235D03*
%TD*%
D13*
%TO.C,J17*%
X132978188Y-132138235D03*
X130438188Y-132138235D03*
X127898188Y-132138235D03*
X125358188Y-132138235D03*
X122818188Y-132138235D03*
X120278188Y-132138235D03*
X117738188Y-132138235D03*
D12*
X115198188Y-132138235D03*
%TD*%
D18*
%TO.C,J24*%
X103440000Y-71710000D03*
D19*
X103440000Y-76790000D03*
%TD*%
D13*
%TO.C,J3*%
X140598188Y-106738235D03*
X140598188Y-104198235D03*
X140598188Y-101658235D03*
X140598188Y-99118235D03*
X140598188Y-96578235D03*
X140598188Y-94038235D03*
X140598188Y-91498235D03*
X140598188Y-88958235D03*
X140598188Y-86418235D03*
X140598188Y-83878235D03*
X140598188Y-81338235D03*
X140598188Y-78798235D03*
X140598188Y-76258235D03*
X140598188Y-73718235D03*
D12*
X140598188Y-71178235D03*
%TD*%
D20*
%TO.C,J14*%
X149880000Y-124060000D03*
X147380000Y-124060000D03*
D21*
X144880000Y-124060000D03*
%TD*%
D20*
%TO.C,J15*%
X162630000Y-124085000D03*
X160130000Y-124085000D03*
D21*
X157630000Y-124085000D03*
%TD*%
D20*
%TO.C,J16*%
X175380000Y-124015000D03*
X172880000Y-124015000D03*
D21*
X170380000Y-124015000D03*
%TD*%
D11*
%TO.C,H3*%
X95148400Y-132689600D03*
%TD*%
%TO.C,H1*%
X95148400Y-54737000D03*
%TD*%
D18*
%TO.C,J23*%
X103454200Y-118770400D03*
D19*
X103454200Y-123850400D03*
%TD*%
D12*
%TO.C,J18*%
X115158188Y-114358235D03*
D13*
X117698188Y-114358235D03*
X120238188Y-114358235D03*
X122778188Y-114358235D03*
X125318188Y-114358235D03*
X127858188Y-114358235D03*
X130398188Y-114358235D03*
X132938188Y-114358235D03*
%TD*%
D10*
%TO.C,R3*%
X154720000Y-115604400D03*
X144560000Y-115604400D03*
%TD*%
%TO.C,R1*%
X150758188Y-73718235D03*
X150758188Y-83878235D03*
%TD*%
D18*
%TO.C,J25*%
X103420000Y-105470000D03*
D19*
X103420000Y-110550000D03*
%TD*%
D22*
%TO.C,J1*%
X129330000Y-65560000D03*
D23*
X129330000Y-59560000D03*
D24*
X124630000Y-62560000D03*
%TD*%
D20*
%TO.C,J12*%
X205500000Y-119525000D03*
X203000000Y-119525000D03*
X200500000Y-119525000D03*
D21*
X198000000Y-119525000D03*
%TD*%
D11*
%TO.C,H4*%
X210159600Y-132689600D03*
%TD*%
D21*
%TO.C,J4*%
X164500000Y-61000000D03*
D20*
X167000000Y-61000000D03*
X169500000Y-61000000D03*
X172000000Y-61000000D03*
%TD*%
%TO.C,J5*%
X189000000Y-61000000D03*
X186500000Y-61000000D03*
X184000000Y-61000000D03*
D21*
X181500000Y-61000000D03*
%TD*%
%TO.C,J6*%
X198000000Y-61000000D03*
D20*
X200500000Y-61000000D03*
X203000000Y-61000000D03*
X205500000Y-61000000D03*
%TD*%
D21*
%TO.C,J7*%
X198000000Y-70754167D03*
D20*
X200500000Y-70754167D03*
X203000000Y-70754167D03*
X205500000Y-70754167D03*
%TD*%
D21*
%TO.C,J8*%
X198000000Y-80508333D03*
D20*
X200500000Y-80508333D03*
X203000000Y-80508333D03*
X205500000Y-80508333D03*
%TD*%
D21*
%TO.C,J9*%
X198000000Y-90262500D03*
D20*
X200500000Y-90262500D03*
X203000000Y-90262500D03*
X205500000Y-90262500D03*
%TD*%
D12*
%TO.C,J20*%
X160918188Y-71178235D03*
D13*
X163458188Y-71178235D03*
X165998188Y-71178235D03*
X168538188Y-71178235D03*
X171078188Y-71178235D03*
X173618188Y-71178235D03*
X176158188Y-71178235D03*
X178698188Y-71178235D03*
X181238188Y-71178235D03*
X183778188Y-71178235D03*
X186318188Y-71178235D03*
X188858188Y-71178235D03*
%TD*%
D20*
%TO.C,J10*%
X205500000Y-100016667D03*
X203000000Y-100016667D03*
X200500000Y-100016667D03*
D21*
X198000000Y-100016667D03*
%TD*%
D20*
%TO.C,J11*%
X205500000Y-109770833D03*
X203000000Y-109770833D03*
X200500000Y-109770833D03*
D21*
X198000000Y-109770833D03*
%TD*%
D12*
%TO.C,J19*%
X160918188Y-88958235D03*
D13*
X163458188Y-88958235D03*
X165998188Y-88958235D03*
X168538188Y-88958235D03*
X171078188Y-88958235D03*
X173618188Y-88958235D03*
X176158188Y-88958235D03*
X178698188Y-88958235D03*
X181238188Y-88958235D03*
X183778188Y-88958235D03*
X186318188Y-88958235D03*
X188858188Y-88958235D03*
%TD*%
D10*
%TO.C,R2*%
X150758188Y-96578235D03*
X150758188Y-106738235D03*
%TD*%
D25*
%TO.C,Q1*%
X100320000Y-90760000D03*
X100320000Y-88220000D03*
D26*
X100320000Y-85680000D03*
%TD*%
D20*
%TO.C,J13*%
X188130000Y-124060000D03*
X185630000Y-124060000D03*
D21*
X183130000Y-124060000D03*
%TD*%
D12*
%TO.C,J26*%
X97000000Y-60660000D03*
D13*
X99540000Y-60660000D03*
X102080000Y-60660000D03*
X104620000Y-60660000D03*
X107160000Y-60660000D03*
X109700000Y-60660000D03*
X112240000Y-60660000D03*
X114780000Y-60660000D03*
X117320000Y-60660000D03*
%TD*%
M02*
