%TF.GenerationSoftware,KiCad,Pcbnew,10.0.1*%
%TF.CreationDate,2026-05-08T13:36:14-04:00*%
%TF.ProjectId,daughter-board,64617567-6874-4657-922d-626f6172642e,rev?*%
%TF.SameCoordinates,Original*%
%TF.FileFunction,Legend,Top*%
%TF.FilePolarity,Positive*%
%FSLAX46Y46*%
G04 Gerber Fmt 4.6, Leading zero omitted, Abs format (unit mm)*
G04 Created by KiCad (PCBNEW 10.0.1) date 2026-05-08 13:36:14*
%MOMM*%
%LPD*%
G01*
G04 APERTURE LIST*
%ADD10C,0.100000*%
%ADD11C,0.150000*%
%ADD12C,0.120000*%
G04 APERTURE END LIST*
D10*
X121960000Y-69785115D02*
X162360000Y-69785115D01*
X162360000Y-112185115D01*
X121960000Y-112185115D01*
X121960000Y-69785115D01*
X168510000Y-91232615D02*
G75*
G02*
X115810000Y-91232615I-26350000J0D01*
G01*
X115810000Y-91232615D02*
G75*
G02*
X168510000Y-91232615I26350000J0D01*
G01*
X137052092Y-74122678D02*
X137166378Y-74160773D01*
X137166378Y-74160773D02*
X137356854Y-74160773D01*
X137356854Y-74160773D02*
X137433045Y-74122678D01*
X137433045Y-74122678D02*
X137471140Y-74084582D01*
X137471140Y-74084582D02*
X137509235Y-74008392D01*
X137509235Y-74008392D02*
X137509235Y-73932201D01*
X137509235Y-73932201D02*
X137471140Y-73856011D01*
X137471140Y-73856011D02*
X137433045Y-73817916D01*
X137433045Y-73817916D02*
X137356854Y-73779820D01*
X137356854Y-73779820D02*
X137204473Y-73741725D01*
X137204473Y-73741725D02*
X137128283Y-73703630D01*
X137128283Y-73703630D02*
X137090188Y-73665535D01*
X137090188Y-73665535D02*
X137052092Y-73589344D01*
X137052092Y-73589344D02*
X137052092Y-73513154D01*
X137052092Y-73513154D02*
X137090188Y-73436963D01*
X137090188Y-73436963D02*
X137128283Y-73398868D01*
X137128283Y-73398868D02*
X137204473Y-73360773D01*
X137204473Y-73360773D02*
X137394950Y-73360773D01*
X137394950Y-73360773D02*
X137509235Y-73398868D01*
X138309236Y-74084582D02*
X138271140Y-74122678D01*
X138271140Y-74122678D02*
X138156855Y-74160773D01*
X138156855Y-74160773D02*
X138080664Y-74160773D01*
X138080664Y-74160773D02*
X137966378Y-74122678D01*
X137966378Y-74122678D02*
X137890188Y-74046487D01*
X137890188Y-74046487D02*
X137852093Y-73970297D01*
X137852093Y-73970297D02*
X137813997Y-73817916D01*
X137813997Y-73817916D02*
X137813997Y-73703630D01*
X137813997Y-73703630D02*
X137852093Y-73551249D01*
X137852093Y-73551249D02*
X137890188Y-73475058D01*
X137890188Y-73475058D02*
X137966378Y-73398868D01*
X137966378Y-73398868D02*
X138080664Y-73360773D01*
X138080664Y-73360773D02*
X138156855Y-73360773D01*
X138156855Y-73360773D02*
X138271140Y-73398868D01*
X138271140Y-73398868D02*
X138309236Y-73436963D01*
X139033045Y-74160773D02*
X138652093Y-74160773D01*
X138652093Y-74160773D02*
X138652093Y-73360773D01*
X139702092Y-74122678D02*
X139816378Y-74160773D01*
X139816378Y-74160773D02*
X140006854Y-74160773D01*
X140006854Y-74160773D02*
X140083045Y-74122678D01*
X140083045Y-74122678D02*
X140121140Y-74084582D01*
X140121140Y-74084582D02*
X140159235Y-74008392D01*
X140159235Y-74008392D02*
X140159235Y-73932201D01*
X140159235Y-73932201D02*
X140121140Y-73856011D01*
X140121140Y-73856011D02*
X140083045Y-73817916D01*
X140083045Y-73817916D02*
X140006854Y-73779820D01*
X140006854Y-73779820D02*
X139854473Y-73741725D01*
X139854473Y-73741725D02*
X139778283Y-73703630D01*
X139778283Y-73703630D02*
X139740188Y-73665535D01*
X139740188Y-73665535D02*
X139702092Y-73589344D01*
X139702092Y-73589344D02*
X139702092Y-73513154D01*
X139702092Y-73513154D02*
X139740188Y-73436963D01*
X139740188Y-73436963D02*
X139778283Y-73398868D01*
X139778283Y-73398868D02*
X139854473Y-73360773D01*
X139854473Y-73360773D02*
X140044950Y-73360773D01*
X140044950Y-73360773D02*
X140159235Y-73398868D01*
X140502093Y-74160773D02*
X140502093Y-73360773D01*
X140502093Y-73360773D02*
X140692569Y-73360773D01*
X140692569Y-73360773D02*
X140806855Y-73398868D01*
X140806855Y-73398868D02*
X140883045Y-73475058D01*
X140883045Y-73475058D02*
X140921140Y-73551249D01*
X140921140Y-73551249D02*
X140959236Y-73703630D01*
X140959236Y-73703630D02*
X140959236Y-73817916D01*
X140959236Y-73817916D02*
X140921140Y-73970297D01*
X140921140Y-73970297D02*
X140883045Y-74046487D01*
X140883045Y-74046487D02*
X140806855Y-74122678D01*
X140806855Y-74122678D02*
X140692569Y-74160773D01*
X140692569Y-74160773D02*
X140502093Y-74160773D01*
X141263997Y-73932201D02*
X141644950Y-73932201D01*
X141187807Y-74160773D02*
X141454474Y-73360773D01*
X141454474Y-73360773D02*
X141721140Y-74160773D01*
X142419902Y-73360773D02*
X142686569Y-74160773D01*
X142686569Y-74160773D02*
X142953235Y-73360773D01*
X143677045Y-74084582D02*
X143638949Y-74122678D01*
X143638949Y-74122678D02*
X143524664Y-74160773D01*
X143524664Y-74160773D02*
X143448473Y-74160773D01*
X143448473Y-74160773D02*
X143334187Y-74122678D01*
X143334187Y-74122678D02*
X143257997Y-74046487D01*
X143257997Y-74046487D02*
X143219902Y-73970297D01*
X143219902Y-73970297D02*
X143181806Y-73817916D01*
X143181806Y-73817916D02*
X143181806Y-73703630D01*
X143181806Y-73703630D02*
X143219902Y-73551249D01*
X143219902Y-73551249D02*
X143257997Y-73475058D01*
X143257997Y-73475058D02*
X143334187Y-73398868D01*
X143334187Y-73398868D02*
X143448473Y-73360773D01*
X143448473Y-73360773D02*
X143524664Y-73360773D01*
X143524664Y-73360773D02*
X143638949Y-73398868D01*
X143638949Y-73398868D02*
X143677045Y-73436963D01*
X144477045Y-74084582D02*
X144438949Y-74122678D01*
X144438949Y-74122678D02*
X144324664Y-74160773D01*
X144324664Y-74160773D02*
X144248473Y-74160773D01*
X144248473Y-74160773D02*
X144134187Y-74122678D01*
X144134187Y-74122678D02*
X144057997Y-74046487D01*
X144057997Y-74046487D02*
X144019902Y-73970297D01*
X144019902Y-73970297D02*
X143981806Y-73817916D01*
X143981806Y-73817916D02*
X143981806Y-73703630D01*
X143981806Y-73703630D02*
X144019902Y-73551249D01*
X144019902Y-73551249D02*
X144057997Y-73475058D01*
X144057997Y-73475058D02*
X144134187Y-73398868D01*
X144134187Y-73398868D02*
X144248473Y-73360773D01*
X144248473Y-73360773D02*
X144324664Y-73360773D01*
X144324664Y-73360773D02*
X144438949Y-73398868D01*
X144438949Y-73398868D02*
X144477045Y-73436963D01*
X145493235Y-73398868D02*
X145417045Y-73360773D01*
X145417045Y-73360773D02*
X145302759Y-73360773D01*
X145302759Y-73360773D02*
X145188473Y-73398868D01*
X145188473Y-73398868D02*
X145112283Y-73475058D01*
X145112283Y-73475058D02*
X145074188Y-73551249D01*
X145074188Y-73551249D02*
X145036092Y-73703630D01*
X145036092Y-73703630D02*
X145036092Y-73817916D01*
X145036092Y-73817916D02*
X145074188Y-73970297D01*
X145074188Y-73970297D02*
X145112283Y-74046487D01*
X145112283Y-74046487D02*
X145188473Y-74122678D01*
X145188473Y-74122678D02*
X145302759Y-74160773D01*
X145302759Y-74160773D02*
X145378950Y-74160773D01*
X145378950Y-74160773D02*
X145493235Y-74122678D01*
X145493235Y-74122678D02*
X145531331Y-74084582D01*
X145531331Y-74084582D02*
X145531331Y-73817916D01*
X145531331Y-73817916D02*
X145378950Y-73817916D01*
X145874188Y-74160773D02*
X145874188Y-73360773D01*
X145874188Y-73360773D02*
X146331331Y-74160773D01*
X146331331Y-74160773D02*
X146331331Y-73360773D01*
X146712283Y-74160773D02*
X146712283Y-73360773D01*
X146712283Y-73360773D02*
X146902759Y-73360773D01*
X146902759Y-73360773D02*
X147017045Y-73398868D01*
X147017045Y-73398868D02*
X147093235Y-73475058D01*
X147093235Y-73475058D02*
X147131330Y-73551249D01*
X147131330Y-73551249D02*
X147169426Y-73703630D01*
X147169426Y-73703630D02*
X147169426Y-73817916D01*
X147169426Y-73817916D02*
X147131330Y-73970297D01*
X147131330Y-73970297D02*
X147093235Y-74046487D01*
X147093235Y-74046487D02*
X147017045Y-74122678D01*
X147017045Y-74122678D02*
X146902759Y-74160773D01*
X146902759Y-74160773D02*
X146712283Y-74160773D01*
X175260000Y-91232615D02*
G75*
G02*
X109060000Y-91232615I-33100000J0D01*
G01*
X109060000Y-91232615D02*
G75*
G02*
X175260000Y-91232615I33100000J0D01*
G01*
D11*
X119064248Y-65707408D02*
X119064248Y-66421693D01*
X119064248Y-66421693D02*
X119016629Y-66564550D01*
X119016629Y-66564550D02*
X118921391Y-66659789D01*
X118921391Y-66659789D02*
X118778534Y-66707408D01*
X118778534Y-66707408D02*
X118683296Y-66707408D01*
X119445201Y-65707408D02*
X120064248Y-65707408D01*
X120064248Y-65707408D02*
X119730915Y-66088360D01*
X119730915Y-66088360D02*
X119873772Y-66088360D01*
X119873772Y-66088360D02*
X119969010Y-66135979D01*
X119969010Y-66135979D02*
X120016629Y-66183598D01*
X120016629Y-66183598D02*
X120064248Y-66278836D01*
X120064248Y-66278836D02*
X120064248Y-66516931D01*
X120064248Y-66516931D02*
X120016629Y-66612169D01*
X120016629Y-66612169D02*
X119969010Y-66659789D01*
X119969010Y-66659789D02*
X119873772Y-66707408D01*
X119873772Y-66707408D02*
X119588058Y-66707408D01*
X119588058Y-66707408D02*
X119492820Y-66659789D01*
X119492820Y-66659789D02*
X119445201Y-66612169D01*
X117648399Y-72178697D02*
X117648399Y-71178697D01*
X117648399Y-71178697D02*
X118219827Y-72178697D01*
X118219827Y-72178697D02*
X118219827Y-71178697D01*
X118696018Y-71654887D02*
X119029351Y-71654887D01*
X119172208Y-72178697D02*
X118696018Y-72178697D01*
X118696018Y-72178697D02*
X118696018Y-71178697D01*
X118696018Y-71178697D02*
X119172208Y-71178697D01*
X119791256Y-71178697D02*
X119981732Y-71178697D01*
X119981732Y-71178697D02*
X120076970Y-71226316D01*
X120076970Y-71226316D02*
X120172208Y-71321554D01*
X120172208Y-71321554D02*
X120219827Y-71512030D01*
X120219827Y-71512030D02*
X120219827Y-71845363D01*
X120219827Y-71845363D02*
X120172208Y-72035839D01*
X120172208Y-72035839D02*
X120076970Y-72131078D01*
X120076970Y-72131078D02*
X119981732Y-72178697D01*
X119981732Y-72178697D02*
X119791256Y-72178697D01*
X119791256Y-72178697D02*
X119696018Y-72131078D01*
X119696018Y-72131078D02*
X119600780Y-72035839D01*
X119600780Y-72035839D02*
X119553161Y-71845363D01*
X119553161Y-71845363D02*
X119553161Y-71512030D01*
X119553161Y-71512030D02*
X119600780Y-71321554D01*
X119600780Y-71321554D02*
X119696018Y-71226316D01*
X119696018Y-71226316D02*
X119791256Y-71178697D01*
X120410304Y-72273935D02*
X121172208Y-72273935D01*
X121934113Y-71226316D02*
X121838875Y-71178697D01*
X121838875Y-71178697D02*
X121696018Y-71178697D01*
X121696018Y-71178697D02*
X121553161Y-71226316D01*
X121553161Y-71226316D02*
X121457923Y-71321554D01*
X121457923Y-71321554D02*
X121410304Y-71416792D01*
X121410304Y-71416792D02*
X121362685Y-71607268D01*
X121362685Y-71607268D02*
X121362685Y-71750125D01*
X121362685Y-71750125D02*
X121410304Y-71940601D01*
X121410304Y-71940601D02*
X121457923Y-72035839D01*
X121457923Y-72035839D02*
X121553161Y-72131078D01*
X121553161Y-72131078D02*
X121696018Y-72178697D01*
X121696018Y-72178697D02*
X121791256Y-72178697D01*
X121791256Y-72178697D02*
X121934113Y-72131078D01*
X121934113Y-72131078D02*
X121981732Y-72083458D01*
X121981732Y-72083458D02*
X121981732Y-71750125D01*
X121981732Y-71750125D02*
X121791256Y-71750125D01*
X122410304Y-72178697D02*
X122410304Y-71178697D01*
X122410304Y-71178697D02*
X122981732Y-72178697D01*
X122981732Y-72178697D02*
X122981732Y-71178697D01*
X123457923Y-72178697D02*
X123457923Y-71178697D01*
X123457923Y-71178697D02*
X123696018Y-71178697D01*
X123696018Y-71178697D02*
X123838875Y-71226316D01*
X123838875Y-71226316D02*
X123934113Y-71321554D01*
X123934113Y-71321554D02*
X123981732Y-71416792D01*
X123981732Y-71416792D02*
X124029351Y-71607268D01*
X124029351Y-71607268D02*
X124029351Y-71750125D01*
X124029351Y-71750125D02*
X123981732Y-71940601D01*
X123981732Y-71940601D02*
X123934113Y-72035839D01*
X123934113Y-72035839D02*
X123838875Y-72131078D01*
X123838875Y-72131078D02*
X123696018Y-72178697D01*
X123696018Y-72178697D02*
X123457923Y-72178697D01*
X124219828Y-72273935D02*
X124981732Y-72273935D01*
X125219828Y-72178697D02*
X125219828Y-71178697D01*
X125696018Y-72178697D02*
X125696018Y-71178697D01*
X125696018Y-71178697D02*
X126267446Y-72178697D01*
X126267446Y-72178697D02*
X126267446Y-71178697D01*
X172043589Y-69480697D02*
X172043589Y-70194982D01*
X172043589Y-70194982D02*
X171995970Y-70337839D01*
X171995970Y-70337839D02*
X171900732Y-70433078D01*
X171900732Y-70433078D02*
X171757875Y-70480697D01*
X171757875Y-70480697D02*
X171662637Y-70480697D01*
X172948351Y-69814030D02*
X172948351Y-70480697D01*
X172710256Y-69433078D02*
X172472161Y-70147363D01*
X172472161Y-70147363D02*
X173091208Y-70147363D01*
X168866742Y-66040639D02*
X167866742Y-66040639D01*
X167866742Y-66040639D02*
X168866742Y-65469211D01*
X168866742Y-65469211D02*
X167866742Y-65469211D01*
X168342932Y-64993020D02*
X168342932Y-64659687D01*
X168866742Y-64516830D02*
X168866742Y-64993020D01*
X168866742Y-64993020D02*
X167866742Y-64993020D01*
X167866742Y-64993020D02*
X167866742Y-64516830D01*
X167866742Y-63897782D02*
X167866742Y-63707306D01*
X167866742Y-63707306D02*
X167914361Y-63612068D01*
X167914361Y-63612068D02*
X168009599Y-63516830D01*
X168009599Y-63516830D02*
X168200075Y-63469211D01*
X168200075Y-63469211D02*
X168533408Y-63469211D01*
X168533408Y-63469211D02*
X168723884Y-63516830D01*
X168723884Y-63516830D02*
X168819123Y-63612068D01*
X168819123Y-63612068D02*
X168866742Y-63707306D01*
X168866742Y-63707306D02*
X168866742Y-63897782D01*
X168866742Y-63897782D02*
X168819123Y-63993020D01*
X168819123Y-63993020D02*
X168723884Y-64088258D01*
X168723884Y-64088258D02*
X168533408Y-64135877D01*
X168533408Y-64135877D02*
X168200075Y-64135877D01*
X168200075Y-64135877D02*
X168009599Y-64088258D01*
X168009599Y-64088258D02*
X167914361Y-63993020D01*
X167914361Y-63993020D02*
X167866742Y-63897782D01*
X168961980Y-63278735D02*
X168961980Y-62516830D01*
X168866742Y-62278734D02*
X167866742Y-62278734D01*
X168866742Y-61802544D02*
X167866742Y-61802544D01*
X167866742Y-61802544D02*
X168866742Y-61231116D01*
X168866742Y-61231116D02*
X167866742Y-61231116D01*
X106940742Y-64497211D02*
X107655027Y-64497211D01*
X107655027Y-64497211D02*
X107797884Y-64544830D01*
X107797884Y-64544830D02*
X107893123Y-64640068D01*
X107893123Y-64640068D02*
X107940742Y-64782925D01*
X107940742Y-64782925D02*
X107940742Y-64878163D01*
X107035980Y-64068639D02*
X106988361Y-64021020D01*
X106988361Y-64021020D02*
X106940742Y-63925782D01*
X106940742Y-63925782D02*
X106940742Y-63687687D01*
X106940742Y-63687687D02*
X106988361Y-63592449D01*
X106988361Y-63592449D02*
X107035980Y-63544830D01*
X107035980Y-63544830D02*
X107131218Y-63497211D01*
X107131218Y-63497211D02*
X107226456Y-63497211D01*
X107226456Y-63497211D02*
X107369313Y-63544830D01*
X107369313Y-63544830D02*
X107940742Y-64116258D01*
X107940742Y-64116258D02*
X107940742Y-63497211D01*
X116090742Y-71259116D02*
X115090742Y-71259116D01*
X115185980Y-70830545D02*
X115138361Y-70782926D01*
X115138361Y-70782926D02*
X115090742Y-70687688D01*
X115090742Y-70687688D02*
X115090742Y-70449593D01*
X115090742Y-70449593D02*
X115138361Y-70354355D01*
X115138361Y-70354355D02*
X115185980Y-70306736D01*
X115185980Y-70306736D02*
X115281218Y-70259117D01*
X115281218Y-70259117D02*
X115376456Y-70259117D01*
X115376456Y-70259117D02*
X115519313Y-70306736D01*
X115519313Y-70306736D02*
X116090742Y-70878164D01*
X116090742Y-70878164D02*
X116090742Y-70259117D01*
X115995503Y-69259117D02*
X116043123Y-69306736D01*
X116043123Y-69306736D02*
X116090742Y-69449593D01*
X116090742Y-69449593D02*
X116090742Y-69544831D01*
X116090742Y-69544831D02*
X116043123Y-69687688D01*
X116043123Y-69687688D02*
X115947884Y-69782926D01*
X115947884Y-69782926D02*
X115852646Y-69830545D01*
X115852646Y-69830545D02*
X115662170Y-69878164D01*
X115662170Y-69878164D02*
X115519313Y-69878164D01*
X115519313Y-69878164D02*
X115328837Y-69830545D01*
X115328837Y-69830545D02*
X115233599Y-69782926D01*
X115233599Y-69782926D02*
X115138361Y-69687688D01*
X115138361Y-69687688D02*
X115090742Y-69544831D01*
X115090742Y-69544831D02*
X115090742Y-69449593D01*
X115090742Y-69449593D02*
X115138361Y-69306736D01*
X115138361Y-69306736D02*
X115185980Y-69259117D01*
X115424075Y-68211497D02*
X115424075Y-67830545D01*
X115090742Y-68068640D02*
X115947884Y-68068640D01*
X115947884Y-68068640D02*
X116043123Y-68021021D01*
X116043123Y-68021021D02*
X116090742Y-67925783D01*
X116090742Y-67925783D02*
X116090742Y-67830545D01*
X116090742Y-67354354D02*
X116043123Y-67449592D01*
X116043123Y-67449592D02*
X115995503Y-67497211D01*
X115995503Y-67497211D02*
X115900265Y-67544830D01*
X115900265Y-67544830D02*
X115614551Y-67544830D01*
X115614551Y-67544830D02*
X115519313Y-67497211D01*
X115519313Y-67497211D02*
X115471694Y-67449592D01*
X115471694Y-67449592D02*
X115424075Y-67354354D01*
X115424075Y-67354354D02*
X115424075Y-67211497D01*
X115424075Y-67211497D02*
X115471694Y-67116259D01*
X115471694Y-67116259D02*
X115519313Y-67068640D01*
X115519313Y-67068640D02*
X115614551Y-67021021D01*
X115614551Y-67021021D02*
X115900265Y-67021021D01*
X115900265Y-67021021D02*
X115995503Y-67068640D01*
X115995503Y-67068640D02*
X116043123Y-67116259D01*
X116043123Y-67116259D02*
X116090742Y-67211497D01*
X116090742Y-67211497D02*
X116090742Y-67354354D01*
X116090742Y-65830544D02*
X115090742Y-65830544D01*
X115090742Y-65830544D02*
X115805027Y-65497211D01*
X115805027Y-65497211D02*
X115090742Y-65163878D01*
X115090742Y-65163878D02*
X116090742Y-65163878D01*
X116090742Y-64544830D02*
X116043123Y-64640068D01*
X116043123Y-64640068D02*
X115995503Y-64687687D01*
X115995503Y-64687687D02*
X115900265Y-64735306D01*
X115900265Y-64735306D02*
X115614551Y-64735306D01*
X115614551Y-64735306D02*
X115519313Y-64687687D01*
X115519313Y-64687687D02*
X115471694Y-64640068D01*
X115471694Y-64640068D02*
X115424075Y-64544830D01*
X115424075Y-64544830D02*
X115424075Y-64401973D01*
X115424075Y-64401973D02*
X115471694Y-64306735D01*
X115471694Y-64306735D02*
X115519313Y-64259116D01*
X115519313Y-64259116D02*
X115614551Y-64211497D01*
X115614551Y-64211497D02*
X115900265Y-64211497D01*
X115900265Y-64211497D02*
X115995503Y-64259116D01*
X115995503Y-64259116D02*
X116043123Y-64306735D01*
X116043123Y-64306735D02*
X116090742Y-64401973D01*
X116090742Y-64401973D02*
X116090742Y-64544830D01*
X115424075Y-63925782D02*
X115424075Y-63544830D01*
X115090742Y-63782925D02*
X115947884Y-63782925D01*
X115947884Y-63782925D02*
X116043123Y-63735306D01*
X116043123Y-63735306D02*
X116090742Y-63640068D01*
X116090742Y-63640068D02*
X116090742Y-63544830D01*
X116090742Y-63211496D02*
X115090742Y-63211496D01*
X116090742Y-62782925D02*
X115566932Y-62782925D01*
X115566932Y-62782925D02*
X115471694Y-62830544D01*
X115471694Y-62830544D02*
X115424075Y-62925782D01*
X115424075Y-62925782D02*
X115424075Y-63068639D01*
X115424075Y-63068639D02*
X115471694Y-63163877D01*
X115471694Y-63163877D02*
X115519313Y-63211496D01*
X116043123Y-61925782D02*
X116090742Y-62021020D01*
X116090742Y-62021020D02*
X116090742Y-62211496D01*
X116090742Y-62211496D02*
X116043123Y-62306734D01*
X116043123Y-62306734D02*
X115947884Y-62354353D01*
X115947884Y-62354353D02*
X115566932Y-62354353D01*
X115566932Y-62354353D02*
X115471694Y-62306734D01*
X115471694Y-62306734D02*
X115424075Y-62211496D01*
X115424075Y-62211496D02*
X115424075Y-62021020D01*
X115424075Y-62021020D02*
X115471694Y-61925782D01*
X115471694Y-61925782D02*
X115566932Y-61878163D01*
X115566932Y-61878163D02*
X115662170Y-61878163D01*
X115662170Y-61878163D02*
X115757408Y-62354353D01*
X116090742Y-61449591D02*
X115424075Y-61449591D01*
X115614551Y-61449591D02*
X115519313Y-61401972D01*
X115519313Y-61401972D02*
X115471694Y-61354353D01*
X115471694Y-61354353D02*
X115424075Y-61259115D01*
X115424075Y-61259115D02*
X115424075Y-61163877D01*
X116090742Y-60830543D02*
X115090742Y-60830543D01*
X115471694Y-60830543D02*
X115424075Y-60735305D01*
X115424075Y-60735305D02*
X115424075Y-60544829D01*
X115424075Y-60544829D02*
X115471694Y-60449591D01*
X115471694Y-60449591D02*
X115519313Y-60401972D01*
X115519313Y-60401972D02*
X115614551Y-60354353D01*
X115614551Y-60354353D02*
X115900265Y-60354353D01*
X115900265Y-60354353D02*
X115995503Y-60401972D01*
X115995503Y-60401972D02*
X116043123Y-60449591D01*
X116043123Y-60449591D02*
X116090742Y-60544829D01*
X116090742Y-60544829D02*
X116090742Y-60735305D01*
X116090742Y-60735305D02*
X116043123Y-60830543D01*
X116090742Y-59782924D02*
X116043123Y-59878162D01*
X116043123Y-59878162D02*
X115995503Y-59925781D01*
X115995503Y-59925781D02*
X115900265Y-59973400D01*
X115900265Y-59973400D02*
X115614551Y-59973400D01*
X115614551Y-59973400D02*
X115519313Y-59925781D01*
X115519313Y-59925781D02*
X115471694Y-59878162D01*
X115471694Y-59878162D02*
X115424075Y-59782924D01*
X115424075Y-59782924D02*
X115424075Y-59640067D01*
X115424075Y-59640067D02*
X115471694Y-59544829D01*
X115471694Y-59544829D02*
X115519313Y-59497210D01*
X115519313Y-59497210D02*
X115614551Y-59449591D01*
X115614551Y-59449591D02*
X115900265Y-59449591D01*
X115900265Y-59449591D02*
X115995503Y-59497210D01*
X115995503Y-59497210D02*
X116043123Y-59544829D01*
X116043123Y-59544829D02*
X116090742Y-59640067D01*
X116090742Y-59640067D02*
X116090742Y-59782924D01*
X116090742Y-58592448D02*
X115566932Y-58592448D01*
X115566932Y-58592448D02*
X115471694Y-58640067D01*
X115471694Y-58640067D02*
X115424075Y-58735305D01*
X115424075Y-58735305D02*
X115424075Y-58925781D01*
X115424075Y-58925781D02*
X115471694Y-59021019D01*
X116043123Y-58592448D02*
X116090742Y-58687686D01*
X116090742Y-58687686D02*
X116090742Y-58925781D01*
X116090742Y-58925781D02*
X116043123Y-59021019D01*
X116043123Y-59021019D02*
X115947884Y-59068638D01*
X115947884Y-59068638D02*
X115852646Y-59068638D01*
X115852646Y-59068638D02*
X115757408Y-59021019D01*
X115757408Y-59021019D02*
X115709789Y-58925781D01*
X115709789Y-58925781D02*
X115709789Y-58687686D01*
X115709789Y-58687686D02*
X115662170Y-58592448D01*
X116090742Y-58116257D02*
X115424075Y-58116257D01*
X115614551Y-58116257D02*
X115519313Y-58068638D01*
X115519313Y-58068638D02*
X115471694Y-58021019D01*
X115471694Y-58021019D02*
X115424075Y-57925781D01*
X115424075Y-57925781D02*
X115424075Y-57830543D01*
X116090742Y-57068638D02*
X115090742Y-57068638D01*
X116043123Y-57068638D02*
X116090742Y-57163876D01*
X116090742Y-57163876D02*
X116090742Y-57354352D01*
X116090742Y-57354352D02*
X116043123Y-57449590D01*
X116043123Y-57449590D02*
X115995503Y-57497209D01*
X115995503Y-57497209D02*
X115900265Y-57544828D01*
X115900265Y-57544828D02*
X115614551Y-57544828D01*
X115614551Y-57544828D02*
X115519313Y-57497209D01*
X115519313Y-57497209D02*
X115471694Y-57449590D01*
X115471694Y-57449590D02*
X115424075Y-57354352D01*
X115424075Y-57354352D02*
X115424075Y-57163876D01*
X115424075Y-57163876D02*
X115471694Y-57068638D01*
X149971659Y-119234814D02*
X149971659Y-119949099D01*
X149971659Y-119949099D02*
X149924040Y-120091956D01*
X149924040Y-120091956D02*
X149828802Y-120187195D01*
X149828802Y-120187195D02*
X149685945Y-120234814D01*
X149685945Y-120234814D02*
X149590707Y-120234814D01*
X150590707Y-119663385D02*
X150495469Y-119615766D01*
X150495469Y-119615766D02*
X150447850Y-119568147D01*
X150447850Y-119568147D02*
X150400231Y-119472909D01*
X150400231Y-119472909D02*
X150400231Y-119425290D01*
X150400231Y-119425290D02*
X150447850Y-119330052D01*
X150447850Y-119330052D02*
X150495469Y-119282433D01*
X150495469Y-119282433D02*
X150590707Y-119234814D01*
X150590707Y-119234814D02*
X150781183Y-119234814D01*
X150781183Y-119234814D02*
X150876421Y-119282433D01*
X150876421Y-119282433D02*
X150924040Y-119330052D01*
X150924040Y-119330052D02*
X150971659Y-119425290D01*
X150971659Y-119425290D02*
X150971659Y-119472909D01*
X150971659Y-119472909D02*
X150924040Y-119568147D01*
X150924040Y-119568147D02*
X150876421Y-119615766D01*
X150876421Y-119615766D02*
X150781183Y-119663385D01*
X150781183Y-119663385D02*
X150590707Y-119663385D01*
X150590707Y-119663385D02*
X150495469Y-119711004D01*
X150495469Y-119711004D02*
X150447850Y-119758623D01*
X150447850Y-119758623D02*
X150400231Y-119853861D01*
X150400231Y-119853861D02*
X150400231Y-120044337D01*
X150400231Y-120044337D02*
X150447850Y-120139575D01*
X150447850Y-120139575D02*
X150495469Y-120187195D01*
X150495469Y-120187195D02*
X150590707Y-120234814D01*
X150590707Y-120234814D02*
X150781183Y-120234814D01*
X150781183Y-120234814D02*
X150876421Y-120187195D01*
X150876421Y-120187195D02*
X150924040Y-120139575D01*
X150924040Y-120139575D02*
X150971659Y-120044337D01*
X150971659Y-120044337D02*
X150971659Y-119853861D01*
X150971659Y-119853861D02*
X150924040Y-119758623D01*
X150924040Y-119758623D02*
X150876421Y-119711004D01*
X150876421Y-119711004D02*
X150781183Y-119663385D01*
X146733564Y-124994814D02*
X146733564Y-123994814D01*
X146733564Y-123994814D02*
X147304992Y-124994814D01*
X147304992Y-124994814D02*
X147304992Y-123994814D01*
X147781183Y-124471004D02*
X148114516Y-124471004D01*
X148257373Y-124994814D02*
X147781183Y-124994814D01*
X147781183Y-124994814D02*
X147781183Y-123994814D01*
X147781183Y-123994814D02*
X148257373Y-123994814D01*
X148876421Y-123994814D02*
X149066897Y-123994814D01*
X149066897Y-123994814D02*
X149162135Y-124042433D01*
X149162135Y-124042433D02*
X149257373Y-124137671D01*
X149257373Y-124137671D02*
X149304992Y-124328147D01*
X149304992Y-124328147D02*
X149304992Y-124661480D01*
X149304992Y-124661480D02*
X149257373Y-124851956D01*
X149257373Y-124851956D02*
X149162135Y-124947195D01*
X149162135Y-124947195D02*
X149066897Y-124994814D01*
X149066897Y-124994814D02*
X148876421Y-124994814D01*
X148876421Y-124994814D02*
X148781183Y-124947195D01*
X148781183Y-124947195D02*
X148685945Y-124851956D01*
X148685945Y-124851956D02*
X148638326Y-124661480D01*
X148638326Y-124661480D02*
X148638326Y-124328147D01*
X148638326Y-124328147D02*
X148685945Y-124137671D01*
X148685945Y-124137671D02*
X148781183Y-124042433D01*
X148781183Y-124042433D02*
X148876421Y-123994814D01*
X149495469Y-125090052D02*
X150257373Y-125090052D01*
X150495469Y-124994814D02*
X150495469Y-123994814D01*
X150495469Y-123994814D02*
X150733564Y-123994814D01*
X150733564Y-123994814D02*
X150876421Y-124042433D01*
X150876421Y-124042433D02*
X150971659Y-124137671D01*
X150971659Y-124137671D02*
X151019278Y-124232909D01*
X151019278Y-124232909D02*
X151066897Y-124423385D01*
X151066897Y-124423385D02*
X151066897Y-124566242D01*
X151066897Y-124566242D02*
X151019278Y-124756718D01*
X151019278Y-124756718D02*
X150971659Y-124851956D01*
X150971659Y-124851956D02*
X150876421Y-124947195D01*
X150876421Y-124947195D02*
X150733564Y-124994814D01*
X150733564Y-124994814D02*
X150495469Y-124994814D01*
X151685945Y-123994814D02*
X151876421Y-123994814D01*
X151876421Y-123994814D02*
X151971659Y-124042433D01*
X151971659Y-124042433D02*
X152066897Y-124137671D01*
X152066897Y-124137671D02*
X152114516Y-124328147D01*
X152114516Y-124328147D02*
X152114516Y-124661480D01*
X152114516Y-124661480D02*
X152066897Y-124851956D01*
X152066897Y-124851956D02*
X151971659Y-124947195D01*
X151971659Y-124947195D02*
X151876421Y-124994814D01*
X151876421Y-124994814D02*
X151685945Y-124994814D01*
X151685945Y-124994814D02*
X151590707Y-124947195D01*
X151590707Y-124947195D02*
X151495469Y-124851956D01*
X151495469Y-124851956D02*
X151447850Y-124661480D01*
X151447850Y-124661480D02*
X151447850Y-124328147D01*
X151447850Y-124328147D02*
X151495469Y-124137671D01*
X151495469Y-124137671D02*
X151590707Y-124042433D01*
X151590707Y-124042433D02*
X151685945Y-123994814D01*
X152543088Y-123994814D02*
X152543088Y-124804337D01*
X152543088Y-124804337D02*
X152590707Y-124899575D01*
X152590707Y-124899575D02*
X152638326Y-124947195D01*
X152638326Y-124947195D02*
X152733564Y-124994814D01*
X152733564Y-124994814D02*
X152924040Y-124994814D01*
X152924040Y-124994814D02*
X153019278Y-124947195D01*
X153019278Y-124947195D02*
X153066897Y-124899575D01*
X153066897Y-124899575D02*
X153114516Y-124804337D01*
X153114516Y-124804337D02*
X153114516Y-123994814D01*
X153447850Y-123994814D02*
X154019278Y-123994814D01*
X153733564Y-124994814D02*
X153733564Y-123994814D01*
X172386666Y-110424819D02*
X172386666Y-111139104D01*
X172386666Y-111139104D02*
X172339047Y-111281961D01*
X172339047Y-111281961D02*
X172243809Y-111377200D01*
X172243809Y-111377200D02*
X172100952Y-111424819D01*
X172100952Y-111424819D02*
X172005714Y-111424819D01*
X173339047Y-110424819D02*
X172862857Y-110424819D01*
X172862857Y-110424819D02*
X172815238Y-110901009D01*
X172815238Y-110901009D02*
X172862857Y-110853390D01*
X172862857Y-110853390D02*
X172958095Y-110805771D01*
X172958095Y-110805771D02*
X173196190Y-110805771D01*
X173196190Y-110805771D02*
X173291428Y-110853390D01*
X173291428Y-110853390D02*
X173339047Y-110901009D01*
X173339047Y-110901009D02*
X173386666Y-110996247D01*
X173386666Y-110996247D02*
X173386666Y-111234342D01*
X173386666Y-111234342D02*
X173339047Y-111329580D01*
X173339047Y-111329580D02*
X173291428Y-111377200D01*
X173291428Y-111377200D02*
X173196190Y-111424819D01*
X173196190Y-111424819D02*
X172958095Y-111424819D01*
X172958095Y-111424819D02*
X172862857Y-111377200D01*
X172862857Y-111377200D02*
X172815238Y-111329580D01*
X168574819Y-120431428D02*
X167574819Y-120431428D01*
X167574819Y-120431428D02*
X168574819Y-119860000D01*
X168574819Y-119860000D02*
X167574819Y-119860000D01*
X168051009Y-119383809D02*
X168051009Y-119050476D01*
X168574819Y-118907619D02*
X168574819Y-119383809D01*
X168574819Y-119383809D02*
X167574819Y-119383809D01*
X167574819Y-119383809D02*
X167574819Y-118907619D01*
X167574819Y-118288571D02*
X167574819Y-118098095D01*
X167574819Y-118098095D02*
X167622438Y-118002857D01*
X167622438Y-118002857D02*
X167717676Y-117907619D01*
X167717676Y-117907619D02*
X167908152Y-117860000D01*
X167908152Y-117860000D02*
X168241485Y-117860000D01*
X168241485Y-117860000D02*
X168431961Y-117907619D01*
X168431961Y-117907619D02*
X168527200Y-118002857D01*
X168527200Y-118002857D02*
X168574819Y-118098095D01*
X168574819Y-118098095D02*
X168574819Y-118288571D01*
X168574819Y-118288571D02*
X168527200Y-118383809D01*
X168527200Y-118383809D02*
X168431961Y-118479047D01*
X168431961Y-118479047D02*
X168241485Y-118526666D01*
X168241485Y-118526666D02*
X167908152Y-118526666D01*
X167908152Y-118526666D02*
X167717676Y-118479047D01*
X167717676Y-118479047D02*
X167622438Y-118383809D01*
X167622438Y-118383809D02*
X167574819Y-118288571D01*
X168670057Y-117669524D02*
X168670057Y-116907619D01*
X167574819Y-116479047D02*
X167574819Y-116288571D01*
X167574819Y-116288571D02*
X167622438Y-116193333D01*
X167622438Y-116193333D02*
X167717676Y-116098095D01*
X167717676Y-116098095D02*
X167908152Y-116050476D01*
X167908152Y-116050476D02*
X168241485Y-116050476D01*
X168241485Y-116050476D02*
X168431961Y-116098095D01*
X168431961Y-116098095D02*
X168527200Y-116193333D01*
X168527200Y-116193333D02*
X168574819Y-116288571D01*
X168574819Y-116288571D02*
X168574819Y-116479047D01*
X168574819Y-116479047D02*
X168527200Y-116574285D01*
X168527200Y-116574285D02*
X168431961Y-116669523D01*
X168431961Y-116669523D02*
X168241485Y-116717142D01*
X168241485Y-116717142D02*
X167908152Y-116717142D01*
X167908152Y-116717142D02*
X167717676Y-116669523D01*
X167717676Y-116669523D02*
X167622438Y-116574285D01*
X167622438Y-116574285D02*
X167574819Y-116479047D01*
X167574819Y-115621904D02*
X168384342Y-115621904D01*
X168384342Y-115621904D02*
X168479580Y-115574285D01*
X168479580Y-115574285D02*
X168527200Y-115526666D01*
X168527200Y-115526666D02*
X168574819Y-115431428D01*
X168574819Y-115431428D02*
X168574819Y-115240952D01*
X168574819Y-115240952D02*
X168527200Y-115145714D01*
X168527200Y-115145714D02*
X168479580Y-115098095D01*
X168479580Y-115098095D02*
X168384342Y-115050476D01*
X168384342Y-115050476D02*
X167574819Y-115050476D01*
X167574819Y-114717142D02*
X167574819Y-114145714D01*
X168574819Y-114431428D02*
X167574819Y-114431428D01*
X135288742Y-76629211D02*
X136003027Y-76629211D01*
X136003027Y-76629211D02*
X136145884Y-76676830D01*
X136145884Y-76676830D02*
X136241123Y-76772068D01*
X136241123Y-76772068D02*
X136288742Y-76914925D01*
X136288742Y-76914925D02*
X136288742Y-77010163D01*
X136288742Y-75629211D02*
X136288742Y-76200639D01*
X136288742Y-75914925D02*
X135288742Y-75914925D01*
X135288742Y-75914925D02*
X135431599Y-76010163D01*
X135431599Y-76010163D02*
X135526837Y-76105401D01*
X135526837Y-76105401D02*
X135574456Y-76200639D01*
X140025714Y-79039819D02*
X140025714Y-78039819D01*
X140025714Y-78039819D02*
X140406666Y-78039819D01*
X140406666Y-78039819D02*
X140501904Y-78087438D01*
X140501904Y-78087438D02*
X140549523Y-78135057D01*
X140549523Y-78135057D02*
X140597142Y-78230295D01*
X140597142Y-78230295D02*
X140597142Y-78373152D01*
X140597142Y-78373152D02*
X140549523Y-78468390D01*
X140549523Y-78468390D02*
X140501904Y-78516009D01*
X140501904Y-78516009D02*
X140406666Y-78563628D01*
X140406666Y-78563628D02*
X140025714Y-78563628D01*
X141025714Y-79039819D02*
X141025714Y-78039819D01*
X141025714Y-78039819D02*
X141597142Y-79039819D01*
X141597142Y-79039819D02*
X141597142Y-78039819D01*
X142549523Y-78039819D02*
X142073333Y-78039819D01*
X142073333Y-78039819D02*
X142025714Y-78516009D01*
X142025714Y-78516009D02*
X142073333Y-78468390D01*
X142073333Y-78468390D02*
X142168571Y-78420771D01*
X142168571Y-78420771D02*
X142406666Y-78420771D01*
X142406666Y-78420771D02*
X142501904Y-78468390D01*
X142501904Y-78468390D02*
X142549523Y-78516009D01*
X142549523Y-78516009D02*
X142597142Y-78611247D01*
X142597142Y-78611247D02*
X142597142Y-78849342D01*
X142597142Y-78849342D02*
X142549523Y-78944580D01*
X142549523Y-78944580D02*
X142501904Y-78992200D01*
X142501904Y-78992200D02*
X142406666Y-79039819D01*
X142406666Y-79039819D02*
X142168571Y-79039819D01*
X142168571Y-79039819D02*
X142073333Y-78992200D01*
X142073333Y-78992200D02*
X142025714Y-78944580D01*
X142930476Y-78039819D02*
X143549523Y-78039819D01*
X143549523Y-78039819D02*
X143216190Y-78420771D01*
X143216190Y-78420771D02*
X143359047Y-78420771D01*
X143359047Y-78420771D02*
X143454285Y-78468390D01*
X143454285Y-78468390D02*
X143501904Y-78516009D01*
X143501904Y-78516009D02*
X143549523Y-78611247D01*
X143549523Y-78611247D02*
X143549523Y-78849342D01*
X143549523Y-78849342D02*
X143501904Y-78944580D01*
X143501904Y-78944580D02*
X143454285Y-78992200D01*
X143454285Y-78992200D02*
X143359047Y-79039819D01*
X143359047Y-79039819D02*
X143073333Y-79039819D01*
X143073333Y-79039819D02*
X142978095Y-78992200D01*
X142978095Y-78992200D02*
X142930476Y-78944580D01*
X143930476Y-78135057D02*
X143978095Y-78087438D01*
X143978095Y-78087438D02*
X144073333Y-78039819D01*
X144073333Y-78039819D02*
X144311428Y-78039819D01*
X144311428Y-78039819D02*
X144406666Y-78087438D01*
X144406666Y-78087438D02*
X144454285Y-78135057D01*
X144454285Y-78135057D02*
X144501904Y-78230295D01*
X144501904Y-78230295D02*
X144501904Y-78325533D01*
X144501904Y-78325533D02*
X144454285Y-78468390D01*
X144454285Y-78468390D02*
X143882857Y-79039819D01*
X143882857Y-79039819D02*
X144501904Y-79039819D01*
X163842882Y-65707408D02*
X163842882Y-66421693D01*
X163842882Y-66421693D02*
X163795263Y-66564550D01*
X163795263Y-66564550D02*
X163700025Y-66659789D01*
X163700025Y-66659789D02*
X163557168Y-66707408D01*
X163557168Y-66707408D02*
X163461930Y-66707408D01*
X164842882Y-66707408D02*
X164271454Y-66707408D01*
X164557168Y-66707408D02*
X164557168Y-65707408D01*
X164557168Y-65707408D02*
X164461930Y-65850265D01*
X164461930Y-65850265D02*
X164366692Y-65945503D01*
X164366692Y-65945503D02*
X164271454Y-65993122D01*
X165461930Y-65707408D02*
X165557168Y-65707408D01*
X165557168Y-65707408D02*
X165652406Y-65755027D01*
X165652406Y-65755027D02*
X165700025Y-65802646D01*
X165700025Y-65802646D02*
X165747644Y-65897884D01*
X165747644Y-65897884D02*
X165795263Y-66088360D01*
X165795263Y-66088360D02*
X165795263Y-66326455D01*
X165795263Y-66326455D02*
X165747644Y-66516931D01*
X165747644Y-66516931D02*
X165700025Y-66612169D01*
X165700025Y-66612169D02*
X165652406Y-66659789D01*
X165652406Y-66659789D02*
X165557168Y-66707408D01*
X165557168Y-66707408D02*
X165461930Y-66707408D01*
X165461930Y-66707408D02*
X165366692Y-66659789D01*
X165366692Y-66659789D02*
X165319073Y-66612169D01*
X165319073Y-66612169D02*
X165271454Y-66516931D01*
X165271454Y-66516931D02*
X165223835Y-66326455D01*
X165223835Y-66326455D02*
X165223835Y-66088360D01*
X165223835Y-66088360D02*
X165271454Y-65897884D01*
X165271454Y-65897884D02*
X165319073Y-65802646D01*
X165319073Y-65802646D02*
X165366692Y-65755027D01*
X165366692Y-65755027D02*
X165461930Y-65707408D01*
X157567857Y-71924697D02*
X157567857Y-70924697D01*
X157567857Y-70924697D02*
X158139285Y-71924697D01*
X158139285Y-71924697D02*
X158139285Y-70924697D01*
X158615476Y-71400887D02*
X158948809Y-71400887D01*
X159091666Y-71924697D02*
X158615476Y-71924697D01*
X158615476Y-71924697D02*
X158615476Y-70924697D01*
X158615476Y-70924697D02*
X159091666Y-70924697D01*
X159710714Y-70924697D02*
X159901190Y-70924697D01*
X159901190Y-70924697D02*
X159996428Y-70972316D01*
X159996428Y-70972316D02*
X160091666Y-71067554D01*
X160091666Y-71067554D02*
X160139285Y-71258030D01*
X160139285Y-71258030D02*
X160139285Y-71591363D01*
X160139285Y-71591363D02*
X160091666Y-71781839D01*
X160091666Y-71781839D02*
X159996428Y-71877078D01*
X159996428Y-71877078D02*
X159901190Y-71924697D01*
X159901190Y-71924697D02*
X159710714Y-71924697D01*
X159710714Y-71924697D02*
X159615476Y-71877078D01*
X159615476Y-71877078D02*
X159520238Y-71781839D01*
X159520238Y-71781839D02*
X159472619Y-71591363D01*
X159472619Y-71591363D02*
X159472619Y-71258030D01*
X159472619Y-71258030D02*
X159520238Y-71067554D01*
X159520238Y-71067554D02*
X159615476Y-70972316D01*
X159615476Y-70972316D02*
X159710714Y-70924697D01*
X160329762Y-72019935D02*
X161091666Y-72019935D01*
X161805952Y-70924697D02*
X161329762Y-70924697D01*
X161329762Y-70924697D02*
X161282143Y-71400887D01*
X161282143Y-71400887D02*
X161329762Y-71353268D01*
X161329762Y-71353268D02*
X161425000Y-71305649D01*
X161425000Y-71305649D02*
X161663095Y-71305649D01*
X161663095Y-71305649D02*
X161758333Y-71353268D01*
X161758333Y-71353268D02*
X161805952Y-71400887D01*
X161805952Y-71400887D02*
X161853571Y-71496125D01*
X161853571Y-71496125D02*
X161853571Y-71734220D01*
X161853571Y-71734220D02*
X161805952Y-71829458D01*
X161805952Y-71829458D02*
X161758333Y-71877078D01*
X161758333Y-71877078D02*
X161663095Y-71924697D01*
X161663095Y-71924697D02*
X161425000Y-71924697D01*
X161425000Y-71924697D02*
X161329762Y-71877078D01*
X161329762Y-71877078D02*
X161282143Y-71829458D01*
X162139286Y-70924697D02*
X162472619Y-71924697D01*
X162472619Y-71924697D02*
X162805952Y-70924697D01*
X162901191Y-72019935D02*
X163663095Y-72019935D01*
X164091667Y-70924697D02*
X164282143Y-70924697D01*
X164282143Y-70924697D02*
X164377381Y-70972316D01*
X164377381Y-70972316D02*
X164472619Y-71067554D01*
X164472619Y-71067554D02*
X164520238Y-71258030D01*
X164520238Y-71258030D02*
X164520238Y-71591363D01*
X164520238Y-71591363D02*
X164472619Y-71781839D01*
X164472619Y-71781839D02*
X164377381Y-71877078D01*
X164377381Y-71877078D02*
X164282143Y-71924697D01*
X164282143Y-71924697D02*
X164091667Y-71924697D01*
X164091667Y-71924697D02*
X163996429Y-71877078D01*
X163996429Y-71877078D02*
X163901191Y-71781839D01*
X163901191Y-71781839D02*
X163853572Y-71591363D01*
X163853572Y-71591363D02*
X163853572Y-71258030D01*
X163853572Y-71258030D02*
X163901191Y-71067554D01*
X163901191Y-71067554D02*
X163996429Y-70972316D01*
X163996429Y-70972316D02*
X164091667Y-70924697D01*
X164948810Y-70924697D02*
X164948810Y-71734220D01*
X164948810Y-71734220D02*
X164996429Y-71829458D01*
X164996429Y-71829458D02*
X165044048Y-71877078D01*
X165044048Y-71877078D02*
X165139286Y-71924697D01*
X165139286Y-71924697D02*
X165329762Y-71924697D01*
X165329762Y-71924697D02*
X165425000Y-71877078D01*
X165425000Y-71877078D02*
X165472619Y-71829458D01*
X165472619Y-71829458D02*
X165520238Y-71734220D01*
X165520238Y-71734220D02*
X165520238Y-70924697D01*
X165853572Y-70924697D02*
X166425000Y-70924697D01*
X166139286Y-71924697D02*
X166139286Y-70924697D01*
X133411663Y-57434826D02*
X133411663Y-58149111D01*
X133411663Y-58149111D02*
X133364044Y-58291968D01*
X133364044Y-58291968D02*
X133268806Y-58387207D01*
X133268806Y-58387207D02*
X133125949Y-58434826D01*
X133125949Y-58434826D02*
X133030711Y-58434826D01*
X133935473Y-58434826D02*
X134125949Y-58434826D01*
X134125949Y-58434826D02*
X134221187Y-58387207D01*
X134221187Y-58387207D02*
X134268806Y-58339587D01*
X134268806Y-58339587D02*
X134364044Y-58196730D01*
X134364044Y-58196730D02*
X134411663Y-58006254D01*
X134411663Y-58006254D02*
X134411663Y-57625302D01*
X134411663Y-57625302D02*
X134364044Y-57530064D01*
X134364044Y-57530064D02*
X134316425Y-57482445D01*
X134316425Y-57482445D02*
X134221187Y-57434826D01*
X134221187Y-57434826D02*
X134030711Y-57434826D01*
X134030711Y-57434826D02*
X133935473Y-57482445D01*
X133935473Y-57482445D02*
X133887854Y-57530064D01*
X133887854Y-57530064D02*
X133840235Y-57625302D01*
X133840235Y-57625302D02*
X133840235Y-57863397D01*
X133840235Y-57863397D02*
X133887854Y-57958635D01*
X133887854Y-57958635D02*
X133935473Y-58006254D01*
X133935473Y-58006254D02*
X134030711Y-58053873D01*
X134030711Y-58053873D02*
X134221187Y-58053873D01*
X134221187Y-58053873D02*
X134316425Y-58006254D01*
X134316425Y-58006254D02*
X134364044Y-57958635D01*
X134364044Y-57958635D02*
X134411663Y-57863397D01*
X128768806Y-63194826D02*
X128768806Y-62194826D01*
X128768806Y-62194826D02*
X129340234Y-63194826D01*
X129340234Y-63194826D02*
X129340234Y-62194826D01*
X129816425Y-62671016D02*
X130149758Y-62671016D01*
X130292615Y-63194826D02*
X129816425Y-63194826D01*
X129816425Y-63194826D02*
X129816425Y-62194826D01*
X129816425Y-62194826D02*
X130292615Y-62194826D01*
X130911663Y-62194826D02*
X131102139Y-62194826D01*
X131102139Y-62194826D02*
X131197377Y-62242445D01*
X131197377Y-62242445D02*
X131292615Y-62337683D01*
X131292615Y-62337683D02*
X131340234Y-62528159D01*
X131340234Y-62528159D02*
X131340234Y-62861492D01*
X131340234Y-62861492D02*
X131292615Y-63051968D01*
X131292615Y-63051968D02*
X131197377Y-63147207D01*
X131197377Y-63147207D02*
X131102139Y-63194826D01*
X131102139Y-63194826D02*
X130911663Y-63194826D01*
X130911663Y-63194826D02*
X130816425Y-63147207D01*
X130816425Y-63147207D02*
X130721187Y-63051968D01*
X130721187Y-63051968D02*
X130673568Y-62861492D01*
X130673568Y-62861492D02*
X130673568Y-62528159D01*
X130673568Y-62528159D02*
X130721187Y-62337683D01*
X130721187Y-62337683D02*
X130816425Y-62242445D01*
X130816425Y-62242445D02*
X130911663Y-62194826D01*
X131530711Y-63290064D02*
X132292615Y-63290064D01*
X133054520Y-62242445D02*
X132959282Y-62194826D01*
X132959282Y-62194826D02*
X132816425Y-62194826D01*
X132816425Y-62194826D02*
X132673568Y-62242445D01*
X132673568Y-62242445D02*
X132578330Y-62337683D01*
X132578330Y-62337683D02*
X132530711Y-62432921D01*
X132530711Y-62432921D02*
X132483092Y-62623397D01*
X132483092Y-62623397D02*
X132483092Y-62766254D01*
X132483092Y-62766254D02*
X132530711Y-62956730D01*
X132530711Y-62956730D02*
X132578330Y-63051968D01*
X132578330Y-63051968D02*
X132673568Y-63147207D01*
X132673568Y-63147207D02*
X132816425Y-63194826D01*
X132816425Y-63194826D02*
X132911663Y-63194826D01*
X132911663Y-63194826D02*
X133054520Y-63147207D01*
X133054520Y-63147207D02*
X133102139Y-63099587D01*
X133102139Y-63099587D02*
X133102139Y-62766254D01*
X133102139Y-62766254D02*
X132911663Y-62766254D01*
X133530711Y-63194826D02*
X133530711Y-62194826D01*
X133530711Y-62194826D02*
X134102139Y-63194826D01*
X134102139Y-63194826D02*
X134102139Y-62194826D01*
X134578330Y-63194826D02*
X134578330Y-62194826D01*
X134578330Y-62194826D02*
X134816425Y-62194826D01*
X134816425Y-62194826D02*
X134959282Y-62242445D01*
X134959282Y-62242445D02*
X135054520Y-62337683D01*
X135054520Y-62337683D02*
X135102139Y-62432921D01*
X135102139Y-62432921D02*
X135149758Y-62623397D01*
X135149758Y-62623397D02*
X135149758Y-62766254D01*
X135149758Y-62766254D02*
X135102139Y-62956730D01*
X135102139Y-62956730D02*
X135054520Y-63051968D01*
X135054520Y-63051968D02*
X134959282Y-63147207D01*
X134959282Y-63147207D02*
X134816425Y-63194826D01*
X134816425Y-63194826D02*
X134578330Y-63194826D01*
X135340235Y-63290064D02*
X136102139Y-63290064D01*
X136530711Y-62194826D02*
X136721187Y-62194826D01*
X136721187Y-62194826D02*
X136816425Y-62242445D01*
X136816425Y-62242445D02*
X136911663Y-62337683D01*
X136911663Y-62337683D02*
X136959282Y-62528159D01*
X136959282Y-62528159D02*
X136959282Y-62861492D01*
X136959282Y-62861492D02*
X136911663Y-63051968D01*
X136911663Y-63051968D02*
X136816425Y-63147207D01*
X136816425Y-63147207D02*
X136721187Y-63194826D01*
X136721187Y-63194826D02*
X136530711Y-63194826D01*
X136530711Y-63194826D02*
X136435473Y-63147207D01*
X136435473Y-63147207D02*
X136340235Y-63051968D01*
X136340235Y-63051968D02*
X136292616Y-62861492D01*
X136292616Y-62861492D02*
X136292616Y-62528159D01*
X136292616Y-62528159D02*
X136340235Y-62337683D01*
X136340235Y-62337683D02*
X136435473Y-62242445D01*
X136435473Y-62242445D02*
X136530711Y-62194826D01*
X137387854Y-62194826D02*
X137387854Y-63004349D01*
X137387854Y-63004349D02*
X137435473Y-63099587D01*
X137435473Y-63099587D02*
X137483092Y-63147207D01*
X137483092Y-63147207D02*
X137578330Y-63194826D01*
X137578330Y-63194826D02*
X137768806Y-63194826D01*
X137768806Y-63194826D02*
X137864044Y-63147207D01*
X137864044Y-63147207D02*
X137911663Y-63099587D01*
X137911663Y-63099587D02*
X137959282Y-63004349D01*
X137959282Y-63004349D02*
X137959282Y-62194826D01*
X138292616Y-62194826D02*
X138864044Y-62194826D01*
X138578330Y-63194826D02*
X138578330Y-62194826D01*
X149971659Y-57434826D02*
X149971659Y-58149111D01*
X149971659Y-58149111D02*
X149924040Y-58291968D01*
X149924040Y-58291968D02*
X149828802Y-58387207D01*
X149828802Y-58387207D02*
X149685945Y-58434826D01*
X149685945Y-58434826D02*
X149590707Y-58434826D01*
X150876421Y-57434826D02*
X150685945Y-57434826D01*
X150685945Y-57434826D02*
X150590707Y-57482445D01*
X150590707Y-57482445D02*
X150543088Y-57530064D01*
X150543088Y-57530064D02*
X150447850Y-57672921D01*
X150447850Y-57672921D02*
X150400231Y-57863397D01*
X150400231Y-57863397D02*
X150400231Y-58244349D01*
X150400231Y-58244349D02*
X150447850Y-58339587D01*
X150447850Y-58339587D02*
X150495469Y-58387207D01*
X150495469Y-58387207D02*
X150590707Y-58434826D01*
X150590707Y-58434826D02*
X150781183Y-58434826D01*
X150781183Y-58434826D02*
X150876421Y-58387207D01*
X150876421Y-58387207D02*
X150924040Y-58339587D01*
X150924040Y-58339587D02*
X150971659Y-58244349D01*
X150971659Y-58244349D02*
X150971659Y-58006254D01*
X150971659Y-58006254D02*
X150924040Y-57911016D01*
X150924040Y-57911016D02*
X150876421Y-57863397D01*
X150876421Y-57863397D02*
X150781183Y-57815778D01*
X150781183Y-57815778D02*
X150590707Y-57815778D01*
X150590707Y-57815778D02*
X150495469Y-57863397D01*
X150495469Y-57863397D02*
X150447850Y-57911016D01*
X150447850Y-57911016D02*
X150400231Y-58006254D01*
X146614517Y-63194826D02*
X146614517Y-62194826D01*
X146614517Y-62194826D02*
X147185945Y-63194826D01*
X147185945Y-63194826D02*
X147185945Y-62194826D01*
X147662136Y-62671016D02*
X147995469Y-62671016D01*
X148138326Y-63194826D02*
X147662136Y-63194826D01*
X147662136Y-63194826D02*
X147662136Y-62194826D01*
X147662136Y-62194826D02*
X148138326Y-62194826D01*
X148757374Y-62194826D02*
X148947850Y-62194826D01*
X148947850Y-62194826D02*
X149043088Y-62242445D01*
X149043088Y-62242445D02*
X149138326Y-62337683D01*
X149138326Y-62337683D02*
X149185945Y-62528159D01*
X149185945Y-62528159D02*
X149185945Y-62861492D01*
X149185945Y-62861492D02*
X149138326Y-63051968D01*
X149138326Y-63051968D02*
X149043088Y-63147207D01*
X149043088Y-63147207D02*
X148947850Y-63194826D01*
X148947850Y-63194826D02*
X148757374Y-63194826D01*
X148757374Y-63194826D02*
X148662136Y-63147207D01*
X148662136Y-63147207D02*
X148566898Y-63051968D01*
X148566898Y-63051968D02*
X148519279Y-62861492D01*
X148519279Y-62861492D02*
X148519279Y-62528159D01*
X148519279Y-62528159D02*
X148566898Y-62337683D01*
X148566898Y-62337683D02*
X148662136Y-62242445D01*
X148662136Y-62242445D02*
X148757374Y-62194826D01*
X149376422Y-63290064D02*
X150138326Y-63290064D01*
X150852612Y-62194826D02*
X150376422Y-62194826D01*
X150376422Y-62194826D02*
X150328803Y-62671016D01*
X150328803Y-62671016D02*
X150376422Y-62623397D01*
X150376422Y-62623397D02*
X150471660Y-62575778D01*
X150471660Y-62575778D02*
X150709755Y-62575778D01*
X150709755Y-62575778D02*
X150804993Y-62623397D01*
X150804993Y-62623397D02*
X150852612Y-62671016D01*
X150852612Y-62671016D02*
X150900231Y-62766254D01*
X150900231Y-62766254D02*
X150900231Y-63004349D01*
X150900231Y-63004349D02*
X150852612Y-63099587D01*
X150852612Y-63099587D02*
X150804993Y-63147207D01*
X150804993Y-63147207D02*
X150709755Y-63194826D01*
X150709755Y-63194826D02*
X150471660Y-63194826D01*
X150471660Y-63194826D02*
X150376422Y-63147207D01*
X150376422Y-63147207D02*
X150328803Y-63099587D01*
X151185946Y-62194826D02*
X151519279Y-63194826D01*
X151519279Y-63194826D02*
X151852612Y-62194826D01*
X151947851Y-63290064D02*
X152709755Y-63290064D01*
X152947851Y-63194826D02*
X152947851Y-62194826D01*
X153424041Y-63194826D02*
X153424041Y-62194826D01*
X153424041Y-62194826D02*
X153995469Y-63194826D01*
X153995469Y-63194826D02*
X153995469Y-62194826D01*
X133411663Y-119234814D02*
X133411663Y-119949099D01*
X133411663Y-119949099D02*
X133364044Y-120091956D01*
X133364044Y-120091956D02*
X133268806Y-120187195D01*
X133268806Y-120187195D02*
X133125949Y-120234814D01*
X133125949Y-120234814D02*
X133030711Y-120234814D01*
X133792616Y-119234814D02*
X134459282Y-119234814D01*
X134459282Y-119234814D02*
X134030711Y-120234814D01*
X130840235Y-124994814D02*
X130840235Y-123994814D01*
X130840235Y-123994814D02*
X131411663Y-124994814D01*
X131411663Y-124994814D02*
X131411663Y-123994814D01*
X131887854Y-124471004D02*
X132221187Y-124471004D01*
X132364044Y-124994814D02*
X131887854Y-124994814D01*
X131887854Y-124994814D02*
X131887854Y-123994814D01*
X131887854Y-123994814D02*
X132364044Y-123994814D01*
X132983092Y-123994814D02*
X133173568Y-123994814D01*
X133173568Y-123994814D02*
X133268806Y-124042433D01*
X133268806Y-124042433D02*
X133364044Y-124137671D01*
X133364044Y-124137671D02*
X133411663Y-124328147D01*
X133411663Y-124328147D02*
X133411663Y-124661480D01*
X133411663Y-124661480D02*
X133364044Y-124851956D01*
X133364044Y-124851956D02*
X133268806Y-124947195D01*
X133268806Y-124947195D02*
X133173568Y-124994814D01*
X133173568Y-124994814D02*
X132983092Y-124994814D01*
X132983092Y-124994814D02*
X132887854Y-124947195D01*
X132887854Y-124947195D02*
X132792616Y-124851956D01*
X132792616Y-124851956D02*
X132744997Y-124661480D01*
X132744997Y-124661480D02*
X132744997Y-124328147D01*
X132744997Y-124328147D02*
X132792616Y-124137671D01*
X132792616Y-124137671D02*
X132887854Y-124042433D01*
X132887854Y-124042433D02*
X132983092Y-123994814D01*
X133602140Y-125090052D02*
X134364044Y-125090052D01*
X134602140Y-124994814D02*
X134602140Y-123994814D01*
X134602140Y-123994814D02*
X134840235Y-123994814D01*
X134840235Y-123994814D02*
X134983092Y-124042433D01*
X134983092Y-124042433D02*
X135078330Y-124137671D01*
X135078330Y-124137671D02*
X135125949Y-124232909D01*
X135125949Y-124232909D02*
X135173568Y-124423385D01*
X135173568Y-124423385D02*
X135173568Y-124566242D01*
X135173568Y-124566242D02*
X135125949Y-124756718D01*
X135125949Y-124756718D02*
X135078330Y-124851956D01*
X135078330Y-124851956D02*
X134983092Y-124947195D01*
X134983092Y-124947195D02*
X134840235Y-124994814D01*
X134840235Y-124994814D02*
X134602140Y-124994814D01*
X135602140Y-124994814D02*
X135602140Y-123994814D01*
X136078330Y-124994814D02*
X136078330Y-123994814D01*
X136078330Y-123994814D02*
X136649758Y-124994814D01*
X136649758Y-124994814D02*
X136649758Y-123994814D01*
%TO.C,J3*%
D12*
X120777582Y-69902589D02*
X120777582Y-70012589D01*
X118017582Y-70012589D02*
X120777582Y-70012589D01*
X118017582Y-69902589D02*
X120777582Y-69902589D01*
X118017582Y-69902589D02*
X118017582Y-70012589D01*
X118017582Y-68632589D02*
X118017582Y-67252589D01*
X118017582Y-67252589D02*
X119397582Y-67252589D01*
%TO.C,J4*%
X174711923Y-58585878D02*
X175461923Y-58585878D01*
X175461923Y-60385878D01*
X174711923Y-60385878D01*
X174711923Y-58585878D01*
X174711923Y-61885878D02*
X175461923Y-61885878D01*
X175461923Y-65385878D01*
X174711923Y-65385878D01*
X174711923Y-61885878D01*
X174711923Y-66885878D02*
X175461923Y-66885878D01*
X175461923Y-68685878D01*
X174711923Y-68685878D01*
X174711923Y-66885878D01*
X169501923Y-58575878D02*
X175471923Y-58575878D01*
X175471923Y-68695878D01*
X169501923Y-68695878D01*
X169501923Y-58575878D01*
X170261923Y-59335878D02*
X170261923Y-63635878D01*
X170261923Y-67935878D02*
X170261923Y-63635878D01*
X173211923Y-58585878D02*
X173211923Y-59335878D01*
X173211923Y-59335878D02*
X170261923Y-59335878D01*
X173211923Y-67935878D02*
X170261923Y-67935878D01*
X173211923Y-68685878D02*
X173211923Y-67935878D01*
X175761923Y-58285878D02*
X174511923Y-58285878D01*
X175761923Y-59535878D02*
X175761923Y-58285878D01*
%TO.C,J2*%
X108575923Y-57853878D02*
X114545923Y-57853878D01*
X114545923Y-70473878D01*
X108575923Y-70473878D01*
X108575923Y-57853878D01*
X108585923Y-57863878D02*
X109335923Y-57863878D01*
X109335923Y-59663878D01*
X108585923Y-59663878D01*
X108585923Y-57863878D01*
X108585923Y-61163878D02*
X109335923Y-61163878D01*
X109335923Y-67163878D01*
X108585923Y-67163878D01*
X108585923Y-61163878D01*
X108585923Y-68663878D02*
X109335923Y-68663878D01*
X109335923Y-70463878D01*
X108585923Y-70463878D01*
X108585923Y-68663878D01*
X108285923Y-69513878D02*
X108285923Y-70763878D01*
X108285923Y-70763878D02*
X109535923Y-70763878D01*
X110835923Y-57863878D02*
X110835923Y-58613878D01*
X110835923Y-58613878D02*
X113785923Y-58613878D01*
X110835923Y-69713878D02*
X113785923Y-69713878D01*
X110835923Y-70463878D02*
X110835923Y-69713878D01*
X113785923Y-58613878D02*
X113785923Y-64163878D01*
X113785923Y-69713878D02*
X113785923Y-64163878D01*
%TO.C,J8*%
X148924993Y-120779995D02*
X150304993Y-120779995D01*
X148924993Y-122159995D02*
X148924993Y-120779995D01*
X148924993Y-123429995D02*
X148924993Y-123539995D01*
X148924993Y-123429995D02*
X151684993Y-123429995D01*
X148924993Y-123539995D02*
X151684993Y-123539995D01*
X151684993Y-123429995D02*
X151684993Y-123539995D01*
%TO.C,J5*%
X169970000Y-113060000D02*
X169970000Y-117360000D01*
X169970000Y-121660000D02*
X169970000Y-117360000D01*
X172920000Y-112310000D02*
X172920000Y-113060000D01*
X172920000Y-113060000D02*
X169970000Y-113060000D01*
X172920000Y-121660000D02*
X169970000Y-121660000D01*
X172920000Y-122410000D02*
X172920000Y-121660000D01*
X175470000Y-112010000D02*
X174220000Y-112010000D01*
X175470000Y-113260000D02*
X175470000Y-112010000D01*
X174420000Y-112310000D02*
X175170000Y-112310000D01*
X175170000Y-114110000D01*
X174420000Y-114110000D01*
X174420000Y-112310000D01*
X174420000Y-115610000D02*
X175170000Y-115610000D01*
X175170000Y-119110000D01*
X174420000Y-119110000D01*
X174420000Y-115610000D01*
X174420000Y-120610000D02*
X175170000Y-120610000D01*
X175170000Y-122410000D01*
X174420000Y-122410000D01*
X174420000Y-120610000D01*
X169210000Y-112300000D02*
X175180000Y-112300000D01*
X175180000Y-122420000D01*
X169210000Y-122420000D01*
X169210000Y-112300000D01*
%TO.C,J1*%
X136833923Y-77675878D02*
X136833923Y-76295878D01*
X138213923Y-77675878D02*
X136833923Y-77675878D01*
X139483923Y-74915878D02*
X147213923Y-74915878D01*
X139483923Y-77675878D02*
X139483923Y-74915878D01*
X139483923Y-77675878D02*
X147213923Y-77675878D01*
X147213923Y-77675878D02*
X147213923Y-74915878D01*
%TO.C,J10*%
X163272406Y-67252589D02*
X164652406Y-67252589D01*
X163272406Y-68632589D02*
X163272406Y-67252589D01*
X163272406Y-69902589D02*
X163272406Y-70012589D01*
X163272406Y-69902589D02*
X166032406Y-69902589D01*
X163272406Y-70012589D02*
X166032406Y-70012589D01*
X166032406Y-69902589D02*
X166032406Y-70012589D01*
%TO.C,J9*%
X132364997Y-58980007D02*
X133744997Y-58980007D01*
X132364997Y-60360007D02*
X132364997Y-58980007D01*
X132364997Y-61630007D02*
X132364997Y-61740007D01*
X132364997Y-61630007D02*
X135124997Y-61630007D01*
X132364997Y-61740007D02*
X135124997Y-61740007D01*
X135124997Y-61630007D02*
X135124997Y-61740007D01*
%TO.C,J6*%
X148924993Y-58980007D02*
X150304993Y-58980007D01*
X148924993Y-60360007D02*
X148924993Y-58980007D01*
X148924993Y-61630007D02*
X148924993Y-61740007D01*
X148924993Y-61630007D02*
X151684993Y-61630007D01*
X148924993Y-61740007D02*
X151684993Y-61740007D01*
X151684993Y-61630007D02*
X151684993Y-61740007D01*
%TO.C,J7*%
X132364997Y-120779995D02*
X133744997Y-120779995D01*
X132364997Y-122159995D02*
X132364997Y-120779995D01*
X132364997Y-123429995D02*
X132364997Y-123539995D01*
X132364997Y-123429995D02*
X135124997Y-123429995D01*
X132364997Y-123539995D02*
X135124997Y-123539995D01*
X135124997Y-123429995D02*
X135124997Y-123539995D01*
%TD*%
M02*
