M48
; DRILL file KiCad 10.0.1 date 2026-05-08T13:36:10
; FORMAT={-:-/ absolute / metric / decimal}
; #@! TF.CreationDate,2026-05-08T13:36:10-04:00
; #@! TF.GenerationSoftware,Kicad,Pcbnew,10.0.1
; #@! TF.FileFunction,Plated,1,2,PTH
FMAT,2
METRIC
; #@! TA.AperFunction,Plated,PTH,ComponentDrill
T1C0.950
; #@! TA.AperFunction,Plated,PTH,ComponentDrill
T2C1.000
%
G90
G05
T1
X111.036Y-60.414
X111.036Y-62.914
X111.036Y-65.414
X111.036Y-67.914
X172.72Y-114.86
X172.72Y-117.36
X172.72Y-119.86
X173.012Y-61.136
X173.012Y-63.636
X173.012Y-66.136
T2
X119.398Y-68.633
X133.745Y-60.36
X133.745Y-122.16
X138.214Y-76.296
X140.754Y-76.296
X143.294Y-76.296
X145.834Y-76.296
X150.305Y-60.36
X150.305Y-122.16
X164.652Y-68.633
M30
