%TF.GenerationSoftware,KiCad,Pcbnew,10.0.1*%
%TF.CreationDate,2026-05-08T13:36:14-04:00*%
%TF.ProjectId,daughter-board,64617567-6874-4657-922d-626f6172642e,rev?*%
%TF.SameCoordinates,Original*%
%TF.FileFunction,Copper,L1,Top*%
%TF.FilePolarity,Positive*%
%FSLAX46Y46*%
G04 Gerber Fmt 4.6, Leading zero omitted, Abs format (unit mm)*
G04 Created by KiCad (PCBNEW 10.0.1) date 2026-05-08 13:36:14*
%MOMM*%
%LPD*%
G01*
G04 APERTURE LIST*
G04 Aperture macros list*
%AMRoundRect*
0 Rectangle with rounded corners*
0 $1 Rounding radius*
0 $2 $3 $4 $5 $6 $7 $8 $9 X,Y pos of 4 corners*
0 Add a 4 corners polygon primitive as box body*
4,1,4,$2,$3,$4,$5,$6,$7,$8,$9,$2,$3,0*
0 Add four circle primitives for the rounded corners*
1,1,$1+$1,$2,$3*
1,1,$1+$1,$4,$5*
1,1,$1+$1,$6,$7*
1,1,$1+$1,$8,$9*
0 Add four rect primitives between the rounded corners*
20,1,$1+$1,$2,$3,$4,$5,0*
20,1,$1+$1,$4,$5,$6,$7,0*
20,1,$1+$1,$6,$7,$8,$9,0*
20,1,$1+$1,$8,$9,$2,$3,0*%
G04 Aperture macros list end*
%TA.AperFunction,ComponentPad*%
%ADD10R,1.700000X1.700000*%
%TD*%
%TA.AperFunction,ComponentPad*%
%ADD11O,1.950000X1.700000*%
%TD*%
%TA.AperFunction,ComponentPad*%
%ADD12RoundRect,0.250000X-0.725000X0.600000X-0.725000X-0.600000X0.725000X-0.600000X0.725000X0.600000X0*%
%TD*%
%TA.AperFunction,ComponentPad*%
%ADD13RoundRect,0.250000X0.725000X-0.600000X0.725000X0.600000X-0.725000X0.600000X-0.725000X-0.600000X0*%
%TD*%
%TA.AperFunction,ComponentPad*%
%ADD14C,1.700000*%
%TD*%
%TA.AperFunction,Conductor*%
%ADD15C,2.000000*%
%TD*%
%TA.AperFunction,Conductor*%
%ADD16C,0.200000*%
%TD*%
G04 APERTURE END LIST*
D10*
%TO.P,J3,1,Pin_1_1*%
%TO.N,GND*%
X119397582Y-68632589D03*
%TD*%
D11*
%TO.P,J4,3,Pin_3_3*%
%TO.N,Net-(J4-Pin_3)*%
X173011923Y-66135878D03*
%TO.P,J4,2,Pin_2_2*%
%TO.N,GND*%
X173011923Y-63635878D03*
D12*
%TO.P,J4,1,Pin_1_1*%
%TO.N,+5V*%
X173011923Y-61135878D03*
%TD*%
D11*
%TO.P,J2,4,Pin_4_4*%
%TO.N,GND*%
X111035923Y-60413878D03*
%TO.P,J2,3,Pin_3_3*%
%TO.N,Net-(J1-Pin_3)*%
X111035923Y-62913878D03*
%TO.P,J2,2,Pin_2_2*%
%TO.N,Net-(J1-Pin_2)*%
X111035923Y-65413878D03*
D13*
%TO.P,J2,1,Pin_1_1*%
%TO.N,Net-(J1-Pin_1)*%
X111035923Y-67913878D03*
%TD*%
D10*
%TO.P,J8,1,Pin_1_1*%
%TO.N,Net-(J5-Pin_3)*%
X150304993Y-122159995D03*
%TD*%
D12*
%TO.P,J5,1,Pin_1_1*%
%TO.N,+5V*%
X172720000Y-114860000D03*
D11*
%TO.P,J5,2,Pin_2_2*%
%TO.N,GND*%
X172720000Y-117360000D03*
%TO.P,J5,3,Pin_3_3*%
%TO.N,Net-(J5-Pin_3)*%
X172720000Y-119860000D03*
%TD*%
D10*
%TO.P,J1,1,Pin_1_1*%
%TO.N,Net-(J1-Pin_1)*%
X138213923Y-76295878D03*
D14*
%TO.P,J1,2,Pin_2_2*%
%TO.N,Net-(J1-Pin_2)*%
X140753923Y-76295878D03*
%TO.P,J1,3,Pin_3_3*%
%TO.N,Net-(J1-Pin_3)*%
X143293923Y-76295878D03*
%TO.P,J1,4,Pin_4_4*%
%TO.N,GND*%
X145833923Y-76295878D03*
%TD*%
D10*
%TO.P,J10,1,Pin_1_1*%
%TO.N,+5V*%
X164652406Y-68632589D03*
%TD*%
%TO.P,J9,1,Pin_1_1*%
%TO.N,GND*%
X133744997Y-60360007D03*
%TD*%
%TO.P,J6,1,Pin_1_1*%
%TO.N,+5V*%
X150304993Y-60360007D03*
%TD*%
%TO.P,J7,1,Pin_1_1*%
%TO.N,Net-(J4-Pin_3)*%
X133744997Y-122159995D03*
%TD*%
%TO.N,+5V*%
D15*
X164652406Y-66168764D02*
X164652406Y-106792406D01*
X164652406Y-106792406D02*
X172720000Y-114860000D01*
X164111520Y-65627878D02*
X166407923Y-65627878D01*
X166407923Y-65627878D02*
X170899923Y-61135878D01*
X170899923Y-61135878D02*
X173011923Y-61135878D01*
%TO.N,Net-(J5-Pin_3)*%
D16*
X170815000Y-119860000D02*
X167640000Y-116685000D01*
X173355000Y-119860000D02*
X170815000Y-119860000D01*
X167640000Y-116685000D02*
X155779988Y-116685000D01*
X155779988Y-116685000D02*
X150304993Y-122159995D01*
%TO.N,GND*%
X133067794Y-60360007D02*
X133744997Y-60360007D01*
X119380000Y-70965000D02*
X119397582Y-70947418D01*
%TO.N,Net-(J4-Pin_3)*%
X133744997Y-122159995D02*
X131839995Y-122159995D01*
%TO.N,+5V*%
D15*
X150304993Y-60360007D02*
X155572864Y-65627878D01*
X155572864Y-65627878D02*
X164111520Y-65627878D01*
%TD*%
M02*
