%TF.GenerationSoftware,KiCad,Pcbnew,10.0.1*%
%TF.CreationDate,2026-05-08T13:36:14-04:00*%
%TF.ProjectId,daughter-board,64617567-6874-4657-922d-626f6172642e,rev?*%
%TF.SameCoordinates,Original*%
%TF.FileFunction,Legend,Bot*%
%TF.FilePolarity,Positive*%
%FSLAX46Y46*%
G04 Gerber Fmt 4.6, Leading zero omitted, Abs format (unit mm)*
G04 Created by KiCad (PCBNEW 10.0.1) date 2026-05-08 13:36:14*
%MOMM*%
%LPD*%
G01*
G04 APERTURE LIST*
%ADD10C,0.302697*%
%ADD11C,0.200000*%
%ADD12C,0.300000*%
G04 APERTURE END LIST*
D10*
X148946747Y-95202825D02*
X141396172Y-99563206D01*
X133894538Y-95233972D01*
X141445116Y-90873596D01*
X148946747Y-95202825D01*
X141396172Y-99563206D02*
X141396172Y-108226120D01*
X133894538Y-103896889D01*
X133894538Y-95233972D01*
X141396172Y-99563206D01*
X146010167Y-95198379D02*
X141405072Y-97854650D01*
X136831121Y-95211725D01*
X141436215Y-92555453D01*
X146010167Y-95198379D01*
X148946747Y-103865745D02*
X141396172Y-108226120D01*
X141396172Y-99563206D01*
X148946747Y-95202826D01*
X148946747Y-103865745D01*
X133894538Y-98895800D02*
X135429569Y-97792358D01*
X135429569Y-97792358D02*
X139856689Y-100346294D01*
X138357256Y-96092701D02*
X142957899Y-93436428D01*
X138366153Y-94326300D02*
X142940103Y-96969229D01*
X139856689Y-100346294D02*
X140728146Y-101980902D01*
X141396172Y-103233932D01*
X139878939Y-96973675D02*
X144484032Y-94317403D01*
X139901183Y-93440878D02*
X144475133Y-96083803D01*
X141396172Y-103233932D02*
X142944551Y-100328496D01*
X142944551Y-100328496D02*
X147393919Y-97761213D01*
X147393919Y-97761213D02*
X148537245Y-98580214D01*
X148946747Y-98873554D01*
D11*
X133593306Y-90157573D02*
X133593306Y-89357573D01*
X133593306Y-89357573D02*
X133402830Y-89357573D01*
X133402830Y-89357573D02*
X133288544Y-89395668D01*
X133288544Y-89395668D02*
X133212354Y-89471858D01*
X133212354Y-89471858D02*
X133174259Y-89548049D01*
X133174259Y-89548049D02*
X133136163Y-89700430D01*
X133136163Y-89700430D02*
X133136163Y-89814716D01*
X133136163Y-89814716D02*
X133174259Y-89967097D01*
X133174259Y-89967097D02*
X133212354Y-90043287D01*
X133212354Y-90043287D02*
X133288544Y-90119478D01*
X133288544Y-90119478D02*
X133402830Y-90157573D01*
X133402830Y-90157573D02*
X133593306Y-90157573D01*
X132831402Y-89929001D02*
X132450449Y-89929001D01*
X132907592Y-90157573D02*
X132640925Y-89357573D01*
X132640925Y-89357573D02*
X132374259Y-90157573D01*
X132107592Y-89357573D02*
X132107592Y-90005192D01*
X132107592Y-90005192D02*
X132069497Y-90081382D01*
X132069497Y-90081382D02*
X132031402Y-90119478D01*
X132031402Y-90119478D02*
X131955211Y-90157573D01*
X131955211Y-90157573D02*
X131802830Y-90157573D01*
X131802830Y-90157573D02*
X131726640Y-90119478D01*
X131726640Y-90119478D02*
X131688545Y-90081382D01*
X131688545Y-90081382D02*
X131650449Y-90005192D01*
X131650449Y-90005192D02*
X131650449Y-89357573D01*
X130850450Y-89395668D02*
X130926640Y-89357573D01*
X130926640Y-89357573D02*
X131040926Y-89357573D01*
X131040926Y-89357573D02*
X131155212Y-89395668D01*
X131155212Y-89395668D02*
X131231402Y-89471858D01*
X131231402Y-89471858D02*
X131269497Y-89548049D01*
X131269497Y-89548049D02*
X131307593Y-89700430D01*
X131307593Y-89700430D02*
X131307593Y-89814716D01*
X131307593Y-89814716D02*
X131269497Y-89967097D01*
X131269497Y-89967097D02*
X131231402Y-90043287D01*
X131231402Y-90043287D02*
X131155212Y-90119478D01*
X131155212Y-90119478D02*
X131040926Y-90157573D01*
X131040926Y-90157573D02*
X130964735Y-90157573D01*
X130964735Y-90157573D02*
X130850450Y-90119478D01*
X130850450Y-90119478D02*
X130812354Y-90081382D01*
X130812354Y-90081382D02*
X130812354Y-89814716D01*
X130812354Y-89814716D02*
X130964735Y-89814716D01*
X130469497Y-90157573D02*
X130469497Y-89357573D01*
X130469497Y-89738525D02*
X130012354Y-89738525D01*
X130012354Y-90157573D02*
X130012354Y-89357573D01*
X129745688Y-89357573D02*
X129288545Y-89357573D01*
X129517117Y-90157573D02*
X129517117Y-89357573D01*
X129021878Y-89738525D02*
X128755212Y-89738525D01*
X128640926Y-90157573D02*
X129021878Y-90157573D01*
X129021878Y-90157573D02*
X129021878Y-89357573D01*
X129021878Y-89357573D02*
X128640926Y-89357573D01*
X127840925Y-90157573D02*
X128107592Y-89776620D01*
X128298068Y-90157573D02*
X128298068Y-89357573D01*
X128298068Y-89357573D02*
X127993306Y-89357573D01*
X127993306Y-89357573D02*
X127917116Y-89395668D01*
X127917116Y-89395668D02*
X127879021Y-89433763D01*
X127879021Y-89433763D02*
X127840925Y-89509954D01*
X127840925Y-89509954D02*
X127840925Y-89624239D01*
X127840925Y-89624239D02*
X127879021Y-89700430D01*
X127879021Y-89700430D02*
X127917116Y-89738525D01*
X127917116Y-89738525D02*
X127993306Y-89776620D01*
X127993306Y-89776620D02*
X128298068Y-89776620D01*
X127231402Y-89738525D02*
X127117116Y-89776620D01*
X127117116Y-89776620D02*
X127079021Y-89814716D01*
X127079021Y-89814716D02*
X127040925Y-89890906D01*
X127040925Y-89890906D02*
X127040925Y-90005192D01*
X127040925Y-90005192D02*
X127079021Y-90081382D01*
X127079021Y-90081382D02*
X127117116Y-90119478D01*
X127117116Y-90119478D02*
X127193306Y-90157573D01*
X127193306Y-90157573D02*
X127498068Y-90157573D01*
X127498068Y-90157573D02*
X127498068Y-89357573D01*
X127498068Y-89357573D02*
X127231402Y-89357573D01*
X127231402Y-89357573D02*
X127155211Y-89395668D01*
X127155211Y-89395668D02*
X127117116Y-89433763D01*
X127117116Y-89433763D02*
X127079021Y-89509954D01*
X127079021Y-89509954D02*
X127079021Y-89586144D01*
X127079021Y-89586144D02*
X127117116Y-89662335D01*
X127117116Y-89662335D02*
X127155211Y-89700430D01*
X127155211Y-89700430D02*
X127231402Y-89738525D01*
X127231402Y-89738525D02*
X127498068Y-89738525D01*
X126545687Y-89357573D02*
X126393306Y-89357573D01*
X126393306Y-89357573D02*
X126317116Y-89395668D01*
X126317116Y-89395668D02*
X126240925Y-89471858D01*
X126240925Y-89471858D02*
X126202830Y-89624239D01*
X126202830Y-89624239D02*
X126202830Y-89890906D01*
X126202830Y-89890906D02*
X126240925Y-90043287D01*
X126240925Y-90043287D02*
X126317116Y-90119478D01*
X126317116Y-90119478D02*
X126393306Y-90157573D01*
X126393306Y-90157573D02*
X126545687Y-90157573D01*
X126545687Y-90157573D02*
X126621878Y-90119478D01*
X126621878Y-90119478D02*
X126698068Y-90043287D01*
X126698068Y-90043287D02*
X126736164Y-89890906D01*
X126736164Y-89890906D02*
X126736164Y-89624239D01*
X126736164Y-89624239D02*
X126698068Y-89471858D01*
X126698068Y-89471858D02*
X126621878Y-89395668D01*
X126621878Y-89395668D02*
X126545687Y-89357573D01*
X125898069Y-89929001D02*
X125517116Y-89929001D01*
X125974259Y-90157573D02*
X125707592Y-89357573D01*
X125707592Y-89357573D02*
X125440926Y-90157573D01*
X124717116Y-90157573D02*
X124983783Y-89776620D01*
X125174259Y-90157573D02*
X125174259Y-89357573D01*
X125174259Y-89357573D02*
X124869497Y-89357573D01*
X124869497Y-89357573D02*
X124793307Y-89395668D01*
X124793307Y-89395668D02*
X124755212Y-89433763D01*
X124755212Y-89433763D02*
X124717116Y-89509954D01*
X124717116Y-89509954D02*
X124717116Y-89624239D01*
X124717116Y-89624239D02*
X124755212Y-89700430D01*
X124755212Y-89700430D02*
X124793307Y-89738525D01*
X124793307Y-89738525D02*
X124869497Y-89776620D01*
X124869497Y-89776620D02*
X125174259Y-89776620D01*
X124374259Y-90157573D02*
X124374259Y-89357573D01*
X124374259Y-89357573D02*
X124183783Y-89357573D01*
X124183783Y-89357573D02*
X124069497Y-89395668D01*
X124069497Y-89395668D02*
X123993307Y-89471858D01*
X123993307Y-89471858D02*
X123955212Y-89548049D01*
X123955212Y-89548049D02*
X123917116Y-89700430D01*
X123917116Y-89700430D02*
X123917116Y-89814716D01*
X123917116Y-89814716D02*
X123955212Y-89967097D01*
X123955212Y-89967097D02*
X123993307Y-90043287D01*
X123993307Y-90043287D02*
X124069497Y-90119478D01*
X124069497Y-90119478D02*
X124183783Y-90157573D01*
X124183783Y-90157573D02*
X124374259Y-90157573D01*
X160250729Y-89738524D02*
X160136443Y-89776619D01*
X160136443Y-89776619D02*
X160098348Y-89814715D01*
X160098348Y-89814715D02*
X160060252Y-89890905D01*
X160060252Y-89890905D02*
X160060252Y-90005191D01*
X160060252Y-90005191D02*
X160098348Y-90081381D01*
X160098348Y-90081381D02*
X160136443Y-90119477D01*
X160136443Y-90119477D02*
X160212633Y-90157572D01*
X160212633Y-90157572D02*
X160517395Y-90157572D01*
X160517395Y-90157572D02*
X160517395Y-89357572D01*
X160517395Y-89357572D02*
X160250729Y-89357572D01*
X160250729Y-89357572D02*
X160174538Y-89395667D01*
X160174538Y-89395667D02*
X160136443Y-89433762D01*
X160136443Y-89433762D02*
X160098348Y-89509953D01*
X160098348Y-89509953D02*
X160098348Y-89586143D01*
X160098348Y-89586143D02*
X160136443Y-89662334D01*
X160136443Y-89662334D02*
X160174538Y-89700429D01*
X160174538Y-89700429D02*
X160250729Y-89738524D01*
X160250729Y-89738524D02*
X160517395Y-89738524D01*
X159565014Y-89776619D02*
X159565014Y-90157572D01*
X159831681Y-89357572D02*
X159565014Y-89776619D01*
X159565014Y-89776619D02*
X159298348Y-89357572D01*
X158422157Y-90157572D02*
X158422157Y-89357572D01*
X158422157Y-89357572D02*
X158155491Y-89929000D01*
X158155491Y-89929000D02*
X157888824Y-89357572D01*
X157888824Y-89357572D02*
X157888824Y-90157572D01*
X157507871Y-90157572D02*
X157507871Y-89357572D01*
X156669776Y-90081381D02*
X156707872Y-90119477D01*
X156707872Y-90119477D02*
X156822157Y-90157572D01*
X156822157Y-90157572D02*
X156898348Y-90157572D01*
X156898348Y-90157572D02*
X157012634Y-90119477D01*
X157012634Y-90119477D02*
X157088824Y-90043286D01*
X157088824Y-90043286D02*
X157126919Y-89967096D01*
X157126919Y-89967096D02*
X157165015Y-89814715D01*
X157165015Y-89814715D02*
X157165015Y-89700429D01*
X157165015Y-89700429D02*
X157126919Y-89548048D01*
X157126919Y-89548048D02*
X157088824Y-89471857D01*
X157088824Y-89471857D02*
X157012634Y-89395667D01*
X157012634Y-89395667D02*
X156898348Y-89357572D01*
X156898348Y-89357572D02*
X156822157Y-89357572D01*
X156822157Y-89357572D02*
X156707872Y-89395667D01*
X156707872Y-89395667D02*
X156669776Y-89433762D01*
X156326919Y-90157572D02*
X156326919Y-89357572D01*
X156326919Y-89738524D02*
X155869776Y-89738524D01*
X155869776Y-90157572D02*
X155869776Y-89357572D01*
X155526920Y-89929000D02*
X155145967Y-89929000D01*
X155603110Y-90157572D02*
X155336443Y-89357572D01*
X155336443Y-89357572D02*
X155069777Y-90157572D01*
X154803110Y-89738524D02*
X154536444Y-89738524D01*
X154422158Y-90157572D02*
X154803110Y-90157572D01*
X154803110Y-90157572D02*
X154803110Y-89357572D01*
X154803110Y-89357572D02*
X154422158Y-89357572D01*
X153698348Y-90157572D02*
X154079300Y-90157572D01*
X154079300Y-90157572D02*
X154079300Y-89357572D01*
X152365014Y-90081381D02*
X152403110Y-90119477D01*
X152403110Y-90119477D02*
X152517395Y-90157572D01*
X152517395Y-90157572D02*
X152593586Y-90157572D01*
X152593586Y-90157572D02*
X152707872Y-90119477D01*
X152707872Y-90119477D02*
X152784062Y-90043286D01*
X152784062Y-90043286D02*
X152822157Y-89967096D01*
X152822157Y-89967096D02*
X152860253Y-89814715D01*
X152860253Y-89814715D02*
X152860253Y-89700429D01*
X152860253Y-89700429D02*
X152822157Y-89548048D01*
X152822157Y-89548048D02*
X152784062Y-89471857D01*
X152784062Y-89471857D02*
X152707872Y-89395667D01*
X152707872Y-89395667D02*
X152593586Y-89357572D01*
X152593586Y-89357572D02*
X152517395Y-89357572D01*
X152517395Y-89357572D02*
X152403110Y-89395667D01*
X152403110Y-89395667D02*
X152365014Y-89433762D01*
X152022157Y-90157572D02*
X152022157Y-89357572D01*
X152022157Y-89738524D02*
X151565014Y-89738524D01*
X151565014Y-90157572D02*
X151565014Y-89357572D01*
X151184062Y-90157572D02*
X151184062Y-89357572D01*
X150345967Y-90157572D02*
X150612634Y-89776619D01*
X150803110Y-90157572D02*
X150803110Y-89357572D01*
X150803110Y-89357572D02*
X150498348Y-89357572D01*
X150498348Y-89357572D02*
X150422158Y-89395667D01*
X150422158Y-89395667D02*
X150384063Y-89433762D01*
X150384063Y-89433762D02*
X150345967Y-89509953D01*
X150345967Y-89509953D02*
X150345967Y-89624238D01*
X150345967Y-89624238D02*
X150384063Y-89700429D01*
X150384063Y-89700429D02*
X150422158Y-89738524D01*
X150422158Y-89738524D02*
X150498348Y-89776619D01*
X150498348Y-89776619D02*
X150803110Y-89776619D01*
X149622158Y-90157572D02*
X150003110Y-90157572D01*
X150003110Y-90157572D02*
X150003110Y-89357572D01*
X149355491Y-90157572D02*
X149355491Y-89357572D01*
X148974539Y-90157572D02*
X148974539Y-89357572D01*
X148974539Y-89357572D02*
X148517396Y-90157572D01*
X148517396Y-90157572D02*
X148517396Y-89357572D01*
D12*
X160449773Y-88545828D02*
X160449773Y-87045828D01*
X160449773Y-87045828D02*
X159949773Y-88117257D01*
X159949773Y-88117257D02*
X159449773Y-87045828D01*
X159449773Y-87045828D02*
X159449773Y-88545828D01*
X158735487Y-88545828D02*
X158735487Y-87045828D01*
X158021201Y-88545828D02*
X158021201Y-87045828D01*
X158021201Y-87045828D02*
X157164058Y-88545828D01*
X157164058Y-88545828D02*
X157164058Y-87045828D01*
X156449772Y-87760114D02*
X155949772Y-87760114D01*
X155735486Y-88545828D02*
X156449772Y-88545828D01*
X156449772Y-88545828D02*
X156449772Y-87045828D01*
X156449772Y-87045828D02*
X155735486Y-87045828D01*
X154235486Y-88402971D02*
X154306914Y-88474400D01*
X154306914Y-88474400D02*
X154521200Y-88545828D01*
X154521200Y-88545828D02*
X154664057Y-88545828D01*
X154664057Y-88545828D02*
X154878343Y-88474400D01*
X154878343Y-88474400D02*
X155021200Y-88331542D01*
X155021200Y-88331542D02*
X155092629Y-88188685D01*
X155092629Y-88188685D02*
X155164057Y-87902971D01*
X155164057Y-87902971D02*
X155164057Y-87688685D01*
X155164057Y-87688685D02*
X155092629Y-87402971D01*
X155092629Y-87402971D02*
X155021200Y-87260114D01*
X155021200Y-87260114D02*
X154878343Y-87117257D01*
X154878343Y-87117257D02*
X154664057Y-87045828D01*
X154664057Y-87045828D02*
X154521200Y-87045828D01*
X154521200Y-87045828D02*
X154306914Y-87117257D01*
X154306914Y-87117257D02*
X154235486Y-87188685D01*
X152735486Y-88545828D02*
X153235486Y-87831542D01*
X153592629Y-88545828D02*
X153592629Y-87045828D01*
X153592629Y-87045828D02*
X153021200Y-87045828D01*
X153021200Y-87045828D02*
X152878343Y-87117257D01*
X152878343Y-87117257D02*
X152806914Y-87188685D01*
X152806914Y-87188685D02*
X152735486Y-87331542D01*
X152735486Y-87331542D02*
X152735486Y-87545828D01*
X152735486Y-87545828D02*
X152806914Y-87688685D01*
X152806914Y-87688685D02*
X152878343Y-87760114D01*
X152878343Y-87760114D02*
X153021200Y-87831542D01*
X153021200Y-87831542D02*
X153592629Y-87831542D01*
X152164057Y-88117257D02*
X151449772Y-88117257D01*
X152306914Y-88545828D02*
X151806914Y-87045828D01*
X151806914Y-87045828D02*
X151306914Y-88545828D01*
X150306915Y-87760114D02*
X150806915Y-87760114D01*
X150806915Y-88545828D02*
X150806915Y-87045828D01*
X150806915Y-87045828D02*
X150092629Y-87045828D01*
X149735486Y-87045828D02*
X148878344Y-87045828D01*
X149306915Y-88545828D02*
X149306915Y-87045828D01*
X146378344Y-88402971D02*
X146449772Y-88474400D01*
X146449772Y-88474400D02*
X146664058Y-88545828D01*
X146664058Y-88545828D02*
X146806915Y-88545828D01*
X146806915Y-88545828D02*
X147021201Y-88474400D01*
X147021201Y-88474400D02*
X147164058Y-88331542D01*
X147164058Y-88331542D02*
X147235487Y-88188685D01*
X147235487Y-88188685D02*
X147306915Y-87902971D01*
X147306915Y-87902971D02*
X147306915Y-87688685D01*
X147306915Y-87688685D02*
X147235487Y-87402971D01*
X147235487Y-87402971D02*
X147164058Y-87260114D01*
X147164058Y-87260114D02*
X147021201Y-87117257D01*
X147021201Y-87117257D02*
X146806915Y-87045828D01*
X146806915Y-87045828D02*
X146664058Y-87045828D01*
X146664058Y-87045828D02*
X146449772Y-87117257D01*
X146449772Y-87117257D02*
X146378344Y-87188685D01*
X144878344Y-88545828D02*
X145378344Y-87831542D01*
X145735487Y-88545828D02*
X145735487Y-87045828D01*
X145735487Y-87045828D02*
X145164058Y-87045828D01*
X145164058Y-87045828D02*
X145021201Y-87117257D01*
X145021201Y-87117257D02*
X144949772Y-87188685D01*
X144949772Y-87188685D02*
X144878344Y-87331542D01*
X144878344Y-87331542D02*
X144878344Y-87545828D01*
X144878344Y-87545828D02*
X144949772Y-87688685D01*
X144949772Y-87688685D02*
X145021201Y-87760114D01*
X145021201Y-87760114D02*
X145164058Y-87831542D01*
X145164058Y-87831542D02*
X145735487Y-87831542D01*
X144306915Y-88117257D02*
X143592630Y-88117257D01*
X144449772Y-88545828D02*
X143949772Y-87045828D01*
X143949772Y-87045828D02*
X143449772Y-88545828D01*
X142449773Y-87760114D02*
X142949773Y-87760114D01*
X142949773Y-88545828D02*
X142949773Y-87045828D01*
X142949773Y-87045828D02*
X142235487Y-87045828D01*
X141878344Y-87045828D02*
X141021202Y-87045828D01*
X141449773Y-88545828D02*
X141449773Y-87045828D01*
X140521202Y-88545828D02*
X140521202Y-87045828D01*
X139806916Y-88545828D02*
X139806916Y-87045828D01*
X139806916Y-87045828D02*
X138949773Y-88545828D01*
X138949773Y-88545828D02*
X138949773Y-87045828D01*
X137449772Y-87117257D02*
X137592630Y-87045828D01*
X137592630Y-87045828D02*
X137806915Y-87045828D01*
X137806915Y-87045828D02*
X138021201Y-87117257D01*
X138021201Y-87117257D02*
X138164058Y-87260114D01*
X138164058Y-87260114D02*
X138235487Y-87402971D01*
X138235487Y-87402971D02*
X138306915Y-87688685D01*
X138306915Y-87688685D02*
X138306915Y-87902971D01*
X138306915Y-87902971D02*
X138235487Y-88188685D01*
X138235487Y-88188685D02*
X138164058Y-88331542D01*
X138164058Y-88331542D02*
X138021201Y-88474400D01*
X138021201Y-88474400D02*
X137806915Y-88545828D01*
X137806915Y-88545828D02*
X137664058Y-88545828D01*
X137664058Y-88545828D02*
X137449772Y-88474400D01*
X137449772Y-88474400D02*
X137378344Y-88402971D01*
X137378344Y-88402971D02*
X137378344Y-87902971D01*
X137378344Y-87902971D02*
X137664058Y-87902971D01*
X135806915Y-87045828D02*
X134949773Y-87045828D01*
X135378344Y-88545828D02*
X135378344Y-87045828D01*
X134521201Y-88117257D02*
X133806916Y-88117257D01*
X134664058Y-88545828D02*
X134164058Y-87045828D01*
X134164058Y-87045828D02*
X133664058Y-88545828D01*
X132664059Y-87760114D02*
X132449773Y-87831542D01*
X132449773Y-87831542D02*
X132378344Y-87902971D01*
X132378344Y-87902971D02*
X132306916Y-88045828D01*
X132306916Y-88045828D02*
X132306916Y-88260114D01*
X132306916Y-88260114D02*
X132378344Y-88402971D01*
X132378344Y-88402971D02*
X132449773Y-88474400D01*
X132449773Y-88474400D02*
X132592630Y-88545828D01*
X132592630Y-88545828D02*
X133164059Y-88545828D01*
X133164059Y-88545828D02*
X133164059Y-87045828D01*
X133164059Y-87045828D02*
X132664059Y-87045828D01*
X132664059Y-87045828D02*
X132521202Y-87117257D01*
X132521202Y-87117257D02*
X132449773Y-87188685D01*
X132449773Y-87188685D02*
X132378344Y-87331542D01*
X132378344Y-87331542D02*
X132378344Y-87474400D01*
X132378344Y-87474400D02*
X132449773Y-87617257D01*
X132449773Y-87617257D02*
X132521202Y-87688685D01*
X132521202Y-87688685D02*
X132664059Y-87760114D01*
X132664059Y-87760114D02*
X133164059Y-87760114D01*
X130949773Y-88545828D02*
X131664059Y-88545828D01*
X131664059Y-88545828D02*
X131664059Y-87045828D01*
X130449773Y-87760114D02*
X129949773Y-87760114D01*
X129735487Y-88545828D02*
X130449773Y-88545828D01*
X130449773Y-88545828D02*
X130449773Y-87045828D01*
X130449773Y-87045828D02*
X129735487Y-87045828D01*
X128092630Y-87545828D02*
X127735487Y-88545828D01*
X127735487Y-88545828D02*
X127378344Y-87545828D01*
X126021201Y-88545828D02*
X126878344Y-88545828D01*
X126449773Y-88545828D02*
X126449773Y-87045828D01*
X126449773Y-87045828D02*
X126592630Y-87260114D01*
X126592630Y-87260114D02*
X126735487Y-87402971D01*
X126735487Y-87402971D02*
X126878344Y-87474400D01*
X125378345Y-88402971D02*
X125306916Y-88474400D01*
X125306916Y-88474400D02*
X125378345Y-88545828D01*
X125378345Y-88545828D02*
X125449773Y-88474400D01*
X125449773Y-88474400D02*
X125378345Y-88402971D01*
X125378345Y-88402971D02*
X125378345Y-88545828D01*
X124378344Y-87045828D02*
X124235487Y-87045828D01*
X124235487Y-87045828D02*
X124092630Y-87117257D01*
X124092630Y-87117257D02*
X124021202Y-87188685D01*
X124021202Y-87188685D02*
X123949773Y-87331542D01*
X123949773Y-87331542D02*
X123878344Y-87617257D01*
X123878344Y-87617257D02*
X123878344Y-87974400D01*
X123878344Y-87974400D02*
X123949773Y-88260114D01*
X123949773Y-88260114D02*
X124021202Y-88402971D01*
X124021202Y-88402971D02*
X124092630Y-88474400D01*
X124092630Y-88474400D02*
X124235487Y-88545828D01*
X124235487Y-88545828D02*
X124378344Y-88545828D01*
X124378344Y-88545828D02*
X124521202Y-88474400D01*
X124521202Y-88474400D02*
X124592630Y-88402971D01*
X124592630Y-88402971D02*
X124664059Y-88260114D01*
X124664059Y-88260114D02*
X124735487Y-87974400D01*
X124735487Y-87974400D02*
X124735487Y-87617257D01*
X124735487Y-87617257D02*
X124664059Y-87331542D01*
X124664059Y-87331542D02*
X124592630Y-87188685D01*
X124592630Y-87188685D02*
X124521202Y-87117257D01*
X124521202Y-87117257D02*
X124378344Y-87045828D01*
M02*
