<?xml version="1.0" encoding="UTF-8"?>
<svg xmlns="http://www.w3.org/2000/svg" width="4in" height="8in" viewBox="0 0 288 576" shape-rendering="crispEdges">
<g transform="translate(288, 0) rotate(90)">
<rect x="0.0" y="0.0" width="24.5" height="24.5" fill="#B8945F"/>
<rect x="24.0" y="0.0" width="24.5" height="24.5" fill="#AF8F55"/>
<rect x="48.0" y="0.0" width="24.5" height="24.5" fill="#B8945F"/>
<rect x="72.0" y="0.0" width="24.5" height="24.5" fill="#C29D62"/>
<rect x="96.0" y="0.0" width="24.5" height="24.5" fill="#C29D62"/>
<rect x="120.0" y="0.0" width="24.5" height="24.5" fill="#C29D62"/>
<rect x="144.0" y="0.0" width="24.5" height="24.5" fill="#C29D62"/>
<rect x="168.0" y="0.0" width="24.5" height="24.5" fill="#C29D62"/>
<rect x="192.0" y="0.0" width="24.5" height="24.5" fill="#B8945F"/>
<rect x="216.0" y="0.0" width="24.5" height="24.5" fill="#C29D62"/>
<rect x="240.0" y="0.0" width="24.5" height="24.5" fill="#C29D62"/>
<rect x="264.0" y="0.0" width="24.5" height="24.5" fill="#C29D62"/>
<rect x="288.0" y="0.0" width="24.5" height="24.5" fill="#C29D62"/>
<rect x="312.0" y="0.0" width="24.5" height="24.5" fill="#C29D62"/>
<rect x="336.0" y="0.0" width="24.5" height="24.5" fill="#B8945F"/>
<rect x="360.0" y="0.0" width="24.5" height="24.5" fill="#967441"/>
<rect x="384.0" y="0.0" width="24.5" height="24.5" fill="#B8945F"/>
<rect x="408.0" y="0.0" width="24.5" height="24.5" fill="#AF8F55"/>
<rect x="432.0" y="0.0" width="24.5" height="24.5" fill="#B8945F"/>
<rect x="456.0" y="0.0" width="24.5" height="24.5" fill="#C29D62"/>
<rect x="480.0" y="0.0" width="24.5" height="24.5" fill="#C29D62"/>
<rect x="504.0" y="0.0" width="24.5" height="24.5" fill="#C29D62"/>
<rect x="528.0" y="0.0" width="24.5" height="24.5" fill="#C29D62"/>
<rect x="552.0" y="0.0" width="24.5" height="24.5" fill="#C29D62"/>
<rect x="0.0" y="24.0" width="24.5" height="24.5" fill="#B8945F"/>
<rect x="24.0" y="24.0" width="24.5" height="24.5" fill="#B8945F"/>
<rect x="48.0" y="24.0" width="24.5" height="24.5" fill="#AF8F55"/>
<rect x="72.0" y="24.0" width="24.5" height="24.5" fill="#AF8F55"/>
<rect x="96.0" y="24.0" width="24.5" height="24.5" fill="#967441"/>
<rect x="120.0" y="24.0" width="24.5" height="24.5" fill="#9F844D"/>
<rect x="144.0" y="24.0" width="24.5" height="24.5" fill="#AF8F55"/>
<rect x="168.0" y="24.0" width="24.5" height="24.5" fill="#B8945F"/>
<rect x="192.0" y="24.0" width="24.5" height="24.5" fill="#B8945F"/>
<rect x="216.0" y="24.0" width="24.5" height="24.5" fill="#B8945F"/>
<rect x="240.0" y="24.0" width="24.5" height="24.5" fill="#AF8F55"/>
<rect x="264.0" y="24.0" width="24.5" height="24.5" fill="#AF8F55"/>
<rect x="288.0" y="24.0" width="24.5" height="24.5" fill="#B8945F"/>
<rect x="312.0" y="24.0" width="24.5" height="24.5" fill="#B8945F"/>
<rect x="336.0" y="24.0" width="24.5" height="24.5" fill="#9F844D"/>
<rect x="360.0" y="24.0" width="24.5" height="24.5" fill="#9F844D"/>
<rect x="384.0" y="24.0" width="24.5" height="24.5" fill="#B8945F"/>
<rect x="408.0" y="24.0" width="24.5" height="24.5" fill="#B8945F"/>
<rect x="432.0" y="24.0" width="24.5" height="24.5" fill="#AF8F55"/>
<rect x="456.0" y="24.0" width="24.5" height="24.5" fill="#AF8F55"/>
<rect x="480.0" y="24.0" width="24.5" height="24.5" fill="#967441"/>
<rect x="504.0" y="24.0" width="24.5" height="24.5" fill="#9F844D"/>
<rect x="528.0" y="24.0" width="24.5" height="24.5" fill="#AF8F55"/>
<rect x="552.0" y="24.0" width="24.5" height="24.5" fill="#B8945F"/>
<rect x="0.0" y="48.0" width="24.5" height="24.5" fill="#AF8F55"/>
<rect x="24.0" y="48.0" width="24.5" height="24.5" fill="#B8945F"/>
<rect x="48.0" y="48.0" width="24.5" height="24.5" fill="#B8945F"/>
<rect x="72.0" y="48.0" width="24.5" height="24.5" fill="#B8945F"/>
<rect x="96.0" y="48.0" width="24.5" height="24.5" fill="#AF8F55"/>
<rect x="120.0" y="48.0" width="24.5" height="24.5" fill="#B8945F"/>
<rect x="144.0" y="48.0" width="24.5" height="24.5" fill="#AF8F55"/>
<rect x="168.0" y="48.0" width="24.5" height="24.5" fill="#9F844D"/>
<rect x="192.0" y="48.0" width="24.5" height="24.5" fill="#9F844D"/>
<rect x="216.0" y="48.0" width="24.5" height="24.5" fill="#9F844D"/>
<rect x="240.0" y="48.0" width="24.5" height="24.5" fill="#9F844D"/>
<rect x="264.0" y="48.0" width="24.5" height="24.5" fill="#AF8F55"/>
<rect x="288.0" y="48.0" width="24.5" height="24.5" fill="#AF8F55"/>
<rect x="312.0" y="48.0" width="24.5" height="24.5" fill="#B8945F"/>
<rect x="336.0" y="48.0" width="24.5" height="24.5" fill="#B8945F"/>
<rect x="360.0" y="48.0" width="24.5" height="24.5" fill="#967441"/>
<rect x="384.0" y="48.0" width="24.5" height="24.5" fill="#AF8F55"/>
<rect x="408.0" y="48.0" width="24.5" height="24.5" fill="#B8945F"/>
<rect x="432.0" y="48.0" width="24.5" height="24.5" fill="#B8945F"/>
<rect x="456.0" y="48.0" width="24.5" height="24.5" fill="#B8945F"/>
<rect x="480.0" y="48.0" width="24.5" height="24.5" fill="#AF8F55"/>
<rect x="504.0" y="48.0" width="24.5" height="24.5" fill="#B8945F"/>
<rect x="528.0" y="48.0" width="24.5" height="24.5" fill="#AF8F55"/>
<rect x="552.0" y="48.0" width="24.5" height="24.5" fill="#9F844D"/>
<rect x="0.0" y="72.0" width="24.5" height="24.5" fill="#967441"/>
<rect x="24.0" y="72.0" width="24.5" height="24.5" fill="#7E6237"/>
<rect x="48.0" y="72.0" width="24.5" height="24.5" fill="#7E6237"/>
<rect x="72.0" y="72.0" width="24.5" height="24.5" fill="#967441"/>
<rect x="96.0" y="72.0" width="24.5" height="24.5" fill="#967441"/>
<rect x="120.0" y="72.0" width="24.5" height="24.5" fill="#7E6237"/>
<rect x="144.0" y="72.0" width="24.5" height="24.5" fill="#67502C"/>
<rect x="168.0" y="72.0" width="24.5" height="24.5" fill="#67502C"/>
<rect x="192.0" y="72.0" width="24.5" height="24.5" fill="#7E6237"/>
<rect x="216.0" y="72.0" width="24.5" height="24.5" fill="#7E6237"/>
<rect x="240.0" y="72.0" width="24.5" height="24.5" fill="#67502C"/>
<rect x="264.0" y="72.0" width="24.5" height="24.5" fill="#7E6237"/>
<rect x="288.0" y="72.0" width="24.5" height="24.5" fill="#67502C"/>
<rect x="312.0" y="72.0" width="24.5" height="24.5" fill="#67502C"/>
<rect x="336.0" y="72.0" width="24.5" height="24.5" fill="#7E6237"/>
<rect x="360.0" y="72.0" width="24.5" height="24.5" fill="#67502C"/>
<rect x="384.0" y="72.0" width="24.5" height="24.5" fill="#967441"/>
<rect x="408.0" y="72.0" width="24.5" height="24.5" fill="#7E6237"/>
<rect x="432.0" y="72.0" width="24.5" height="24.5" fill="#7E6237"/>
<rect x="456.0" y="72.0" width="24.5" height="24.5" fill="#967441"/>
<rect x="480.0" y="72.0" width="24.5" height="24.5" fill="#967441"/>
<rect x="504.0" y="72.0" width="24.5" height="24.5" fill="#7E6237"/>
<rect x="528.0" y="72.0" width="24.5" height="24.5" fill="#67502C"/>
<rect x="552.0" y="72.0" width="24.5" height="24.5" fill="#67502C"/>
<rect x="0.0" y="96.0" width="24.5" height="24.5" fill="#B8945F"/>
<rect x="24.0" y="96.0" width="24.5" height="24.5" fill="#C29D62"/>
<rect x="48.0" y="96.0" width="24.5" height="24.5" fill="#9F844D"/>
<rect x="72.0" y="96.0" width="24.5" height="24.5" fill="#C29D62"/>
<rect x="96.0" y="96.0" width="24.5" height="24.5" fill="#C29D62"/>
<rect x="120.0" y="96.0" width="24.5" height="24.5" fill="#C29D62"/>
<rect x="144.0" y="96.0" width="24.5" height="24.5" fill="#C29D62"/>
<rect x="168.0" y="96.0" width="24.5" height="24.5" fill="#9F844D"/>
<rect x="192.0" y="96.0" width="24.5" height="24.5" fill="#C29D62"/>
<rect x="216.0" y="96.0" width="24.5" height="24.5" fill="#C29D62"/>
<rect x="240.0" y="96.0" width="24.5" height="24.5" fill="#C29D62"/>
<rect x="264.0" y="96.0" width="24.5" height="24.5" fill="#B8945F"/>
<rect x="288.0" y="96.0" width="24.5" height="24.5" fill="#AF8F55"/>
<rect x="312.0" y="96.0" width="24.5" height="24.5" fill="#AF8F55"/>
<rect x="336.0" y="96.0" width="24.5" height="24.5" fill="#9F844D"/>
<rect x="360.0" y="96.0" width="24.5" height="24.5" fill="#B8945F"/>
<rect x="384.0" y="96.0" width="24.5" height="24.5" fill="#B8945F"/>
<rect x="408.0" y="96.0" width="24.5" height="24.5" fill="#C29D62"/>
<rect x="432.0" y="96.0" width="24.5" height="24.5" fill="#9F844D"/>
<rect x="456.0" y="96.0" width="24.5" height="24.5" fill="#C29D62"/>
<rect x="480.0" y="96.0" width="24.5" height="24.5" fill="#C29D62"/>
<rect x="504.0" y="96.0" width="24.5" height="24.5" fill="#C29D62"/>
<rect x="528.0" y="96.0" width="24.5" height="24.5" fill="#C29D62"/>
<rect x="552.0" y="96.0" width="24.5" height="24.5" fill="#9F844D"/>
<rect x="0.0" y="120.0" width="24.5" height="24.5" fill="#AF8F55"/>
<rect x="24.0" y="120.0" width="24.5" height="24.5" fill="#B8945F"/>
<rect x="48.0" y="120.0" width="24.5" height="24.5" fill="#B8945F"/>
<rect x="72.0" y="120.0" width="24.5" height="24.5" fill="#AF8F55"/>
<rect x="96.0" y="120.0" width="24.5" height="24.5" fill="#9F844D"/>
<rect x="120.0" y="120.0" width="24.5" height="24.5" fill="#AF8F55"/>
<rect x="144.0" y="120.0" width="24.5" height="24.5" fill="#9F844D"/>
<rect x="168.0" y="120.0" width="24.5" height="24.5" fill="#967441"/>
<rect x="192.0" y="120.0" width="24.5" height="24.5" fill="#9F844D"/>
<rect x="216.0" y="120.0" width="24.5" height="24.5" fill="#AF8F55"/>
<rect x="240.0" y="120.0" width="24.5" height="24.5" fill="#AF8F55"/>
<rect x="264.0" y="120.0" width="24.5" height="24.5" fill="#B8945F"/>
<rect x="288.0" y="120.0" width="24.5" height="24.5" fill="#B8945F"/>
<rect x="312.0" y="120.0" width="24.5" height="24.5" fill="#B8945F"/>
<rect x="336.0" y="120.0" width="24.5" height="24.5" fill="#B8945F"/>
<rect x="360.0" y="120.0" width="24.5" height="24.5" fill="#AF8F55"/>
<rect x="384.0" y="120.0" width="24.5" height="24.5" fill="#AF8F55"/>
<rect x="408.0" y="120.0" width="24.5" height="24.5" fill="#B8945F"/>
<rect x="432.0" y="120.0" width="24.5" height="24.5" fill="#B8945F"/>
<rect x="456.0" y="120.0" width="24.5" height="24.5" fill="#AF8F55"/>
<rect x="480.0" y="120.0" width="24.5" height="24.5" fill="#9F844D"/>
<rect x="504.0" y="120.0" width="24.5" height="24.5" fill="#AF8F55"/>
<rect x="528.0" y="120.0" width="24.5" height="24.5" fill="#9F844D"/>
<rect x="552.0" y="120.0" width="24.5" height="24.5" fill="#967441"/>
<rect x="0.0" y="144.0" width="24.5" height="24.5" fill="#9F844D"/>
<rect x="24.0" y="144.0" width="24.5" height="24.5" fill="#9F844D"/>
<rect x="48.0" y="144.0" width="24.5" height="24.5" fill="#AF8F55"/>
<rect x="72.0" y="144.0" width="24.5" height="24.5" fill="#B8945F"/>
<rect x="96.0" y="144.0" width="24.5" height="24.5" fill="#AF8F55"/>
<rect x="120.0" y="144.0" width="24.5" height="24.5" fill="#AF8F55"/>
<rect x="144.0" y="144.0" width="24.5" height="24.5" fill="#AF8F55"/>
<rect x="168.0" y="144.0" width="24.5" height="24.5" fill="#967441"/>
<rect x="192.0" y="144.0" width="24.5" height="24.5" fill="#B8945F"/>
<rect x="216.0" y="144.0" width="24.5" height="24.5" fill="#B8945F"/>
<rect x="240.0" y="144.0" width="24.5" height="24.5" fill="#B8945F"/>
<rect x="264.0" y="144.0" width="24.5" height="24.5" fill="#AF8F55"/>
<rect x="288.0" y="144.0" width="24.5" height="24.5" fill="#AF8F55"/>
<rect x="312.0" y="144.0" width="24.5" height="24.5" fill="#9F844D"/>
<rect x="336.0" y="144.0" width="24.5" height="24.5" fill="#9F844D"/>
<rect x="360.0" y="144.0" width="24.5" height="24.5" fill="#9F844D"/>
<rect x="384.0" y="144.0" width="24.5" height="24.5" fill="#9F844D"/>
<rect x="408.0" y="144.0" width="24.5" height="24.5" fill="#9F844D"/>
<rect x="432.0" y="144.0" width="24.5" height="24.5" fill="#AF8F55"/>
<rect x="456.0" y="144.0" width="24.5" height="24.5" fill="#B8945F"/>
<rect x="480.0" y="144.0" width="24.5" height="24.5" fill="#AF8F55"/>
<rect x="504.0" y="144.0" width="24.5" height="24.5" fill="#AF8F55"/>
<rect x="528.0" y="144.0" width="24.5" height="24.5" fill="#AF8F55"/>
<rect x="552.0" y="144.0" width="24.5" height="24.5" fill="#967441"/>
<rect x="0.0" y="168.0" width="24.5" height="24.5" fill="#67502C"/>
<rect x="24.0" y="168.0" width="24.5" height="24.5" fill="#67502C"/>
<rect x="48.0" y="168.0" width="24.5" height="24.5" fill="#7E6237"/>
<rect x="72.0" y="168.0" width="24.5" height="24.5" fill="#7E6237"/>
<rect x="96.0" y="168.0" width="24.5" height="24.5" fill="#967441"/>
<rect x="120.0" y="168.0" width="24.5" height="24.5" fill="#7E6237"/>
<rect x="144.0" y="168.0" width="24.5" height="24.5" fill="#67502C"/>
<rect x="168.0" y="168.0" width="24.5" height="24.5" fill="#67502C"/>
<rect x="192.0" y="168.0" width="24.5" height="24.5" fill="#67502C"/>
<rect x="216.0" y="168.0" width="24.5" height="24.5" fill="#67502C"/>
<rect x="240.0" y="168.0" width="24.5" height="24.5" fill="#7E6237"/>
<rect x="264.0" y="168.0" width="24.5" height="24.5" fill="#7E6237"/>
<rect x="288.0" y="168.0" width="24.5" height="24.5" fill="#7E6237"/>
<rect x="312.0" y="168.0" width="24.5" height="24.5" fill="#967441"/>
<rect x="336.0" y="168.0" width="24.5" height="24.5" fill="#7E6237"/>
<rect x="360.0" y="168.0" width="24.5" height="24.5" fill="#67502C"/>
<rect x="384.0" y="168.0" width="24.5" height="24.5" fill="#67502C"/>
<rect x="408.0" y="168.0" width="24.5" height="24.5" fill="#67502C"/>
<rect x="432.0" y="168.0" width="24.5" height="24.5" fill="#7E6237"/>
<rect x="456.0" y="168.0" width="24.5" height="24.5" fill="#7E6237"/>
<rect x="480.0" y="168.0" width="24.5" height="24.5" fill="#967441"/>
<rect x="504.0" y="168.0" width="24.5" height="24.5" fill="#7E6237"/>
<rect x="528.0" y="168.0" width="24.5" height="24.5" fill="#67502C"/>
<rect x="552.0" y="168.0" width="24.5" height="24.5" fill="#67502C"/>
<rect x="0.0" y="192.0" width="24.5" height="24.5" fill="#B8945F"/>
<rect x="24.0" y="192.0" width="24.5" height="24.5" fill="#C29D62"/>
<rect x="48.0" y="192.0" width="24.5" height="24.5" fill="#C29D62"/>
<rect x="72.0" y="192.0" width="24.5" height="24.5" fill="#B8945F"/>
<rect x="96.0" y="192.0" width="24.5" height="24.5" fill="#AF8F55"/>
<rect x="120.0" y="192.0" width="24.5" height="24.5" fill="#AF8F55"/>
<rect x="144.0" y="192.0" width="24.5" height="24.5" fill="#C29D62"/>
<rect x="168.0" y="192.0" width="24.5" height="24.5" fill="#C29D62"/>
<rect x="192.0" y="192.0" width="24.5" height="24.5" fill="#C29D62"/>
<rect x="216.0" y="192.0" width="24.5" height="24.5" fill="#C29D62"/>
<rect x="240.0" y="192.0" width="24.5" height="24.5" fill="#C29D62"/>
<rect x="264.0" y="192.0" width="24.5" height="24.5" fill="#C29D62"/>
<rect x="288.0" y="192.0" width="24.5" height="24.5" fill="#C29D62"/>
<rect x="312.0" y="192.0" width="24.5" height="24.5" fill="#C29D62"/>
<rect x="336.0" y="192.0" width="24.5" height="24.5" fill="#B8945F"/>
<rect x="360.0" y="192.0" width="24.5" height="24.5" fill="#9F844D"/>
<rect x="384.0" y="192.0" width="24.5" height="24.5" fill="#B8945F"/>
<rect x="408.0" y="192.0" width="24.5" height="24.5" fill="#C29D62"/>
<rect x="432.0" y="192.0" width="24.5" height="24.5" fill="#C29D62"/>
<rect x="456.0" y="192.0" width="24.5" height="24.5" fill="#B8945F"/>
<rect x="480.0" y="192.0" width="24.5" height="24.5" fill="#AF8F55"/>
<rect x="504.0" y="192.0" width="24.5" height="24.5" fill="#AF8F55"/>
<rect x="528.0" y="192.0" width="24.5" height="24.5" fill="#C29D62"/>
<rect x="552.0" y="192.0" width="24.5" height="24.5" fill="#C29D62"/>
<rect x="0.0" y="216.0" width="24.5" height="24.5" fill="#B8945F"/>
<rect x="24.0" y="216.0" width="24.5" height="24.5" fill="#AF8F55"/>
<rect x="48.0" y="216.0" width="24.5" height="24.5" fill="#B8945F"/>
<rect x="72.0" y="216.0" width="24.5" height="24.5" fill="#B8945F"/>
<rect x="96.0" y="216.0" width="24.5" height="24.5" fill="#B8945F"/>
<rect x="120.0" y="216.0" width="24.5" height="24.5" fill="#B8945F"/>
<rect x="144.0" y="216.0" width="24.5" height="24.5" fill="#AF8F55"/>
<rect x="168.0" y="216.0" width="24.5" height="24.5" fill="#9F844D"/>
<rect x="192.0" y="216.0" width="24.5" height="24.5" fill="#9F844D"/>
<rect x="216.0" y="216.0" width="24.5" height="24.5" fill="#9F844D"/>
<rect x="240.0" y="216.0" width="24.5" height="24.5" fill="#AF8F55"/>
<rect x="264.0" y="216.0" width="24.5" height="24.5" fill="#9F844D"/>
<rect x="288.0" y="216.0" width="24.5" height="24.5" fill="#AF8F55"/>
<rect x="312.0" y="216.0" width="24.5" height="24.5" fill="#9F844D"/>
<rect x="336.0" y="216.0" width="24.5" height="24.5" fill="#9F844D"/>
<rect x="360.0" y="216.0" width="24.5" height="24.5" fill="#967441"/>
<rect x="384.0" y="216.0" width="24.5" height="24.5" fill="#B8945F"/>
<rect x="408.0" y="216.0" width="24.5" height="24.5" fill="#AF8F55"/>
<rect x="432.0" y="216.0" width="24.5" height="24.5" fill="#B8945F"/>
<rect x="456.0" y="216.0" width="24.5" height="24.5" fill="#B8945F"/>
<rect x="480.0" y="216.0" width="24.5" height="24.5" fill="#B8945F"/>
<rect x="504.0" y="216.0" width="24.5" height="24.5" fill="#B8945F"/>
<rect x="528.0" y="216.0" width="24.5" height="24.5" fill="#AF8F55"/>
<rect x="552.0" y="216.0" width="24.5" height="24.5" fill="#9F844D"/>
<rect x="0.0" y="240.0" width="24.5" height="24.5" fill="#C29D62"/>
<rect x="24.0" y="240.0" width="24.5" height="24.5" fill="#B8945F"/>
<rect x="48.0" y="240.0" width="24.5" height="24.5" fill="#AF8F55"/>
<rect x="72.0" y="240.0" width="24.5" height="24.5" fill="#AF8F55"/>
<rect x="96.0" y="240.0" width="24.5" height="24.5" fill="#9F844D"/>
<rect x="120.0" y="240.0" width="24.5" height="24.5" fill="#9F844D"/>
<rect x="144.0" y="240.0" width="24.5" height="24.5" fill="#9F844D"/>
<rect x="168.0" y="240.0" width="24.5" height="24.5" fill="#9F844D"/>
<rect x="192.0" y="240.0" width="24.5" height="24.5" fill="#AF8F55"/>
<rect x="216.0" y="240.0" width="24.5" height="24.5" fill="#AF8F55"/>
<rect x="240.0" y="240.0" width="24.5" height="24.5" fill="#AF8F55"/>
<rect x="264.0" y="240.0" width="24.5" height="24.5" fill="#AF8F55"/>
<rect x="288.0" y="240.0" width="24.5" height="24.5" fill="#9F844D"/>
<rect x="312.0" y="240.0" width="24.5" height="24.5" fill="#9F844D"/>
<rect x="336.0" y="240.0" width="24.5" height="24.5" fill="#B8945F"/>
<rect x="360.0" y="240.0" width="24.5" height="24.5" fill="#9F844D"/>
<rect x="384.0" y="240.0" width="24.5" height="24.5" fill="#C29D62"/>
<rect x="408.0" y="240.0" width="24.5" height="24.5" fill="#B8945F"/>
<rect x="432.0" y="240.0" width="24.5" height="24.5" fill="#AF8F55"/>
<rect x="456.0" y="240.0" width="24.5" height="24.5" fill="#AF8F55"/>
<rect x="480.0" y="240.0" width="24.5" height="24.5" fill="#9F844D"/>
<rect x="504.0" y="240.0" width="24.5" height="24.5" fill="#9F844D"/>
<rect x="528.0" y="240.0" width="24.5" height="24.5" fill="#9F844D"/>
<rect x="552.0" y="240.0" width="24.5" height="24.5" fill="#9F844D"/>
<rect x="0.0" y="264.0" width="24.5" height="24.5" fill="#67502C"/>
<rect x="24.0" y="264.0" width="24.5" height="24.5" fill="#67502C"/>
<rect x="48.0" y="264.0" width="24.5" height="24.5" fill="#7E6237"/>
<rect x="72.0" y="264.0" width="24.5" height="24.5" fill="#967441"/>
<rect x="96.0" y="264.0" width="24.5" height="24.5" fill="#967441"/>
<rect x="120.0" y="264.0" width="24.5" height="24.5" fill="#7E6237"/>
<rect x="144.0" y="264.0" width="24.5" height="24.5" fill="#67502C"/>
<rect x="168.0" y="264.0" width="24.5" height="24.5" fill="#67502C"/>
<rect x="192.0" y="264.0" width="24.5" height="24.5" fill="#67502C"/>
<rect x="216.0" y="264.0" width="24.5" height="24.5" fill="#7E6237"/>
<rect x="240.0" y="264.0" width="24.5" height="24.5" fill="#967441"/>
<rect x="264.0" y="264.0" width="24.5" height="24.5" fill="#7E6237"/>
<rect x="288.0" y="264.0" width="24.5" height="24.5" fill="#7E6237"/>
<rect x="312.0" y="264.0" width="24.5" height="24.5" fill="#67502C"/>
<rect x="336.0" y="264.0" width="24.5" height="24.5" fill="#67502C"/>
<rect x="360.0" y="264.0" width="24.5" height="24.5" fill="#67502C"/>
<rect x="384.0" y="264.0" width="24.5" height="24.5" fill="#67502C"/>
<rect x="408.0" y="264.0" width="24.5" height="24.5" fill="#67502C"/>
<rect x="432.0" y="264.0" width="24.5" height="24.5" fill="#7E6237"/>
<rect x="456.0" y="264.0" width="24.5" height="24.5" fill="#967441"/>
<rect x="480.0" y="264.0" width="24.5" height="24.5" fill="#967441"/>
<rect x="504.0" y="264.0" width="24.5" height="24.5" fill="#7E6237"/>
<rect x="528.0" y="264.0" width="24.5" height="24.5" fill="#67502C"/>
<rect x="552.0" y="264.0" width="24.5" height="24.5" fill="#67502C"/>
<rect x="80.5" y="75.0" width="5.0" height="5.0" fill="#1A1A1A"/>
<rect x="85.5" y="75.0" width="5.0" height="5.0" fill="#1A1A1A"/>
<rect x="90.5" y="75.0" width="5.0" height="5.0" fill="#1A1A1A"/>
<rect x="95.5" y="75.0" width="5.0" height="5.0" fill="#1A1A1A"/>
<rect x="100.5" y="75.0" width="5.0" height="5.0" fill="#1A1A1A"/>
<rect x="80.5" y="80.0" width="5.0" height="5.0" fill="#1A1A1A"/>
<rect x="80.5" y="85.0" width="5.0" height="5.0" fill="#1A1A1A"/>
<rect x="85.5" y="85.0" width="5.0" height="5.0" fill="#1A1A1A"/>
<rect x="90.5" y="85.0" width="5.0" height="5.0" fill="#1A1A1A"/>
<rect x="80.5" y="90.0" width="5.0" height="5.0" fill="#1A1A1A"/>
<rect x="80.5" y="95.0" width="5.0" height="5.0" fill="#1A1A1A"/>
<rect x="80.5" y="100.0" width="5.0" height="5.0" fill="#1A1A1A"/>
<rect x="80.5" y="105.0" width="5.0" height="5.0" fill="#1A1A1A"/>
<rect x="85.5" y="105.0" width="5.0" height="5.0" fill="#1A1A1A"/>
<rect x="90.5" y="105.0" width="5.0" height="5.0" fill="#1A1A1A"/>
<rect x="95.5" y="105.0" width="5.0" height="5.0" fill="#1A1A1A"/>
<rect x="100.5" y="105.0" width="5.0" height="5.0" fill="#1A1A1A"/>
<rect x="115.5" y="85.0" width="5.0" height="5.0" fill="#1A1A1A"/>
<rect x="135.5" y="85.0" width="5.0" height="5.0" fill="#1A1A1A"/>
<rect x="120.5" y="90.0" width="5.0" height="5.0" fill="#1A1A1A"/>
<rect x="130.5" y="90.0" width="5.0" height="5.0" fill="#1A1A1A"/>
<rect x="125.5" y="95.0" width="5.0" height="5.0" fill="#1A1A1A"/>
<rect x="120.5" y="100.0" width="5.0" height="5.0" fill="#1A1A1A"/>
<rect x="130.5" y="100.0" width="5.0" height="5.0" fill="#1A1A1A"/>
<rect x="115.5" y="105.0" width="5.0" height="5.0" fill="#1A1A1A"/>
<rect x="135.5" y="105.0" width="5.0" height="5.0" fill="#1A1A1A"/>
<rect x="150.5" y="85.0" width="5.0" height="5.0" fill="#1A1A1A"/>
<rect x="160.5" y="85.0" width="5.0" height="5.0" fill="#1A1A1A"/>
<rect x="165.5" y="85.0" width="5.0" height="5.0" fill="#1A1A1A"/>
<rect x="150.5" y="90.0" width="5.0" height="5.0" fill="#1A1A1A"/>
<rect x="155.5" y="90.0" width="5.0" height="5.0" fill="#1A1A1A"/>
<rect x="170.5" y="90.0" width="5.0" height="5.0" fill="#1A1A1A"/>
<rect x="150.5" y="95.0" width="5.0" height="5.0" fill="#1A1A1A"/>
<rect x="170.5" y="95.0" width="5.0" height="5.0" fill="#1A1A1A"/>
<rect x="150.5" y="100.0" width="5.0" height="5.0" fill="#1A1A1A"/>
<rect x="155.5" y="100.0" width="5.0" height="5.0" fill="#1A1A1A"/>
<rect x="160.5" y="100.0" width="5.0" height="5.0" fill="#1A1A1A"/>
<rect x="165.5" y="100.0" width="5.0" height="5.0" fill="#1A1A1A"/>
<rect x="150.5" y="105.0" width="5.0" height="5.0" fill="#1A1A1A"/>
<rect x="150.5" y="110.0" width="5.0" height="5.0" fill="#1A1A1A"/>
<rect x="185.5" y="75.0" width="5.0" height="5.0" fill="#1A1A1A"/>
<rect x="185.5" y="80.0" width="5.0" height="5.0" fill="#1A1A1A"/>
<rect x="185.5" y="85.0" width="5.0" height="5.0" fill="#1A1A1A"/>
<rect x="185.5" y="90.0" width="5.0" height="5.0" fill="#1A1A1A"/>
<rect x="185.5" y="95.0" width="5.0" height="5.0" fill="#1A1A1A"/>
<rect x="185.5" y="100.0" width="5.0" height="5.0" fill="#1A1A1A"/>
<rect x="190.5" y="105.0" width="5.0" height="5.0" fill="#1A1A1A"/>
<rect x="210.5" y="85.0" width="5.0" height="5.0" fill="#1A1A1A"/>
<rect x="215.5" y="85.0" width="5.0" height="5.0" fill="#1A1A1A"/>
<rect x="220.5" y="85.0" width="5.0" height="5.0" fill="#1A1A1A"/>
<rect x="205.5" y="90.0" width="5.0" height="5.0" fill="#1A1A1A"/>
<rect x="225.5" y="90.0" width="5.0" height="5.0" fill="#1A1A1A"/>
<rect x="205.5" y="95.0" width="5.0" height="5.0" fill="#1A1A1A"/>
<rect x="225.5" y="95.0" width="5.0" height="5.0" fill="#1A1A1A"/>
<rect x="205.5" y="100.0" width="5.0" height="5.0" fill="#1A1A1A"/>
<rect x="225.5" y="100.0" width="5.0" height="5.0" fill="#1A1A1A"/>
<rect x="210.5" y="105.0" width="5.0" height="5.0" fill="#1A1A1A"/>
<rect x="215.5" y="105.0" width="5.0" height="5.0" fill="#1A1A1A"/>
<rect x="220.5" y="105.0" width="5.0" height="5.0" fill="#1A1A1A"/>
<rect x="240.5" y="85.0" width="5.0" height="5.0" fill="#1A1A1A"/>
<rect x="250.5" y="85.0" width="5.0" height="5.0" fill="#1A1A1A"/>
<rect x="255.5" y="85.0" width="5.0" height="5.0" fill="#1A1A1A"/>
<rect x="240.5" y="90.0" width="5.0" height="5.0" fill="#1A1A1A"/>
<rect x="245.5" y="90.0" width="5.0" height="5.0" fill="#1A1A1A"/>
<rect x="260.5" y="90.0" width="5.0" height="5.0" fill="#1A1A1A"/>
<rect x="240.5" y="95.0" width="5.0" height="5.0" fill="#1A1A1A"/>
<rect x="240.5" y="100.0" width="5.0" height="5.0" fill="#1A1A1A"/>
<rect x="240.5" y="105.0" width="5.0" height="5.0" fill="#1A1A1A"/>
<rect x="280.5" y="85.0" width="5.0" height="5.0" fill="#1A1A1A"/>
<rect x="285.5" y="85.0" width="5.0" height="5.0" fill="#1A1A1A"/>
<rect x="290.5" y="85.0" width="5.0" height="5.0" fill="#1A1A1A"/>
<rect x="275.5" y="90.0" width="5.0" height="5.0" fill="#1A1A1A"/>
<rect x="295.5" y="90.0" width="5.0" height="5.0" fill="#1A1A1A"/>
<rect x="275.5" y="95.0" width="5.0" height="5.0" fill="#1A1A1A"/>
<rect x="280.5" y="95.0" width="5.0" height="5.0" fill="#1A1A1A"/>
<rect x="285.5" y="95.0" width="5.0" height="5.0" fill="#1A1A1A"/>
<rect x="290.5" y="95.0" width="5.0" height="5.0" fill="#1A1A1A"/>
<rect x="295.5" y="95.0" width="5.0" height="5.0" fill="#1A1A1A"/>
<rect x="275.5" y="100.0" width="5.0" height="5.0" fill="#1A1A1A"/>
<rect x="280.5" y="105.0" width="5.0" height="5.0" fill="#1A1A1A"/>
<rect x="285.5" y="105.0" width="5.0" height="5.0" fill="#1A1A1A"/>
<rect x="290.5" y="105.0" width="5.0" height="5.0" fill="#1A1A1A"/>
<rect x="295.5" y="105.0" width="5.0" height="5.0" fill="#1A1A1A"/>
<rect x="310.5" y="85.0" width="5.0" height="5.0" fill="#1A1A1A"/>
<rect x="320.5" y="85.0" width="5.0" height="5.0" fill="#1A1A1A"/>
<rect x="325.5" y="85.0" width="5.0" height="5.0" fill="#1A1A1A"/>
<rect x="310.5" y="90.0" width="5.0" height="5.0" fill="#1A1A1A"/>
<rect x="315.5" y="90.0" width="5.0" height="5.0" fill="#1A1A1A"/>
<rect x="330.5" y="90.0" width="5.0" height="5.0" fill="#1A1A1A"/>
<rect x="310.5" y="95.0" width="5.0" height="5.0" fill="#1A1A1A"/>
<rect x="310.5" y="100.0" width="5.0" height="5.0" fill="#1A1A1A"/>
<rect x="310.5" y="105.0" width="5.0" height="5.0" fill="#1A1A1A"/>
<rect x="370.5" y="75.0" width="5.0" height="5.0" fill="#1A1A1A"/>
<rect x="375.5" y="75.0" width="5.0" height="5.0" fill="#1A1A1A"/>
<rect x="380.5" y="75.0" width="5.0" height="5.0" fill="#1A1A1A"/>
<rect x="385.5" y="75.0" width="5.0" height="5.0" fill="#1A1A1A"/>
<rect x="390.5" y="75.0" width="5.0" height="5.0" fill="#1A1A1A"/>
<rect x="380.5" y="80.0" width="5.0" height="5.0" fill="#1A1A1A"/>
<rect x="380.5" y="85.0" width="5.0" height="5.0" fill="#1A1A1A"/>
<rect x="380.5" y="90.0" width="5.0" height="5.0" fill="#1A1A1A"/>
<rect x="380.5" y="95.0" width="5.0" height="5.0" fill="#1A1A1A"/>
<rect x="380.5" y="100.0" width="5.0" height="5.0" fill="#1A1A1A"/>
<rect x="380.5" y="105.0" width="5.0" height="5.0" fill="#1A1A1A"/>
<rect x="410.5" y="85.0" width="5.0" height="5.0" fill="#1A1A1A"/>
<rect x="415.5" y="85.0" width="5.0" height="5.0" fill="#1A1A1A"/>
<rect x="420.5" y="85.0" width="5.0" height="5.0" fill="#1A1A1A"/>
<rect x="405.5" y="90.0" width="5.0" height="5.0" fill="#1A1A1A"/>
<rect x="425.5" y="90.0" width="5.0" height="5.0" fill="#1A1A1A"/>
<rect x="405.5" y="95.0" width="5.0" height="5.0" fill="#1A1A1A"/>
<rect x="410.5" y="95.0" width="5.0" height="5.0" fill="#1A1A1A"/>
<rect x="415.5" y="95.0" width="5.0" height="5.0" fill="#1A1A1A"/>
<rect x="420.5" y="95.0" width="5.0" height="5.0" fill="#1A1A1A"/>
<rect x="425.5" y="95.0" width="5.0" height="5.0" fill="#1A1A1A"/>
<rect x="405.5" y="100.0" width="5.0" height="5.0" fill="#1A1A1A"/>
<rect x="410.5" y="105.0" width="5.0" height="5.0" fill="#1A1A1A"/>
<rect x="415.5" y="105.0" width="5.0" height="5.0" fill="#1A1A1A"/>
<rect x="420.5" y="105.0" width="5.0" height="5.0" fill="#1A1A1A"/>
<rect x="425.5" y="105.0" width="5.0" height="5.0" fill="#1A1A1A"/>
<rect x="440.5" y="85.0" width="5.0" height="5.0" fill="#1A1A1A"/>
<rect x="445.5" y="85.0" width="5.0" height="5.0" fill="#1A1A1A"/>
<rect x="450.5" y="85.0" width="5.0" height="5.0" fill="#1A1A1A"/>
<rect x="455.5" y="85.0" width="5.0" height="5.0" fill="#1A1A1A"/>
<rect x="440.5" y="90.0" width="5.0" height="5.0" fill="#1A1A1A"/>
<rect x="460.5" y="90.0" width="5.0" height="5.0" fill="#1A1A1A"/>
<rect x="440.5" y="95.0" width="5.0" height="5.0" fill="#1A1A1A"/>
<rect x="460.5" y="95.0" width="5.0" height="5.0" fill="#1A1A1A"/>
<rect x="440.5" y="100.0" width="5.0" height="5.0" fill="#1A1A1A"/>
<rect x="460.5" y="100.0" width="5.0" height="5.0" fill="#1A1A1A"/>
<rect x="440.5" y="105.0" width="5.0" height="5.0" fill="#1A1A1A"/>
<rect x="460.5" y="105.0" width="5.0" height="5.0" fill="#1A1A1A"/>
<rect x="480.5" y="75.0" width="5.0" height="5.0" fill="#1A1A1A"/>
<rect x="480.5" y="80.0" width="5.0" height="5.0" fill="#1A1A1A"/>
<rect x="475.5" y="85.0" width="5.0" height="5.0" fill="#1A1A1A"/>
<rect x="480.5" y="85.0" width="5.0" height="5.0" fill="#1A1A1A"/>
<rect x="485.5" y="85.0" width="5.0" height="5.0" fill="#1A1A1A"/>
<rect x="480.5" y="90.0" width="5.0" height="5.0" fill="#1A1A1A"/>
<rect x="480.5" y="95.0" width="5.0" height="5.0" fill="#1A1A1A"/>
<rect x="480.5" y="100.0" width="5.0" height="5.0" fill="#1A1A1A"/>
<rect x="485.5" y="105.0" width="5.0" height="5.0" fill="#1A1A1A"/>
<rect x="56.7" y="186.5" width="3.8" height="3.8" fill="#1A1A1A"/>
<rect x="60.4" y="186.5" width="3.8" height="3.8" fill="#1A1A1A"/>
<rect x="52.1" y="190.2" width="3.8" height="3.8" fill="#1A1A1A"/>
<rect x="59.7" y="190.2" width="3.8" height="3.8" fill="#1A1A1A"/>
<rect x="47.6" y="194.0" width="3.8" height="3.8" fill="#1A1A1A"/>
<rect x="58.9" y="194.0" width="3.8" height="3.8" fill="#1A1A1A"/>
<rect x="43.0" y="197.8" width="3.8" height="3.8" fill="#1A1A1A"/>
<rect x="58.2" y="197.8" width="3.8" height="3.8" fill="#1A1A1A"/>
<rect x="42.3" y="201.6" width="3.8" height="3.8" fill="#1A1A1A"/>
<rect x="46.1" y="201.6" width="3.8" height="3.8" fill="#1A1A1A"/>
<rect x="49.8" y="201.6" width="3.8" height="3.8" fill="#1A1A1A"/>
<rect x="53.6" y="201.6" width="3.8" height="3.8" fill="#1A1A1A"/>
<rect x="57.4" y="201.6" width="3.8" height="3.8" fill="#1A1A1A"/>
<rect x="56.7" y="205.4" width="3.8" height="3.8" fill="#1A1A1A"/>
<rect x="55.9" y="209.2" width="3.8" height="3.8" fill="#1A1A1A"/>
<rect x="94.5" y="186.5" width="3.8" height="3.8" fill="#1A1A1A"/>
<rect x="98.3" y="186.5" width="3.8" height="3.8" fill="#1A1A1A"/>
<rect x="102.1" y="186.5" width="3.8" height="3.8" fill="#1A1A1A"/>
<rect x="90.0" y="190.2" width="3.8" height="3.8" fill="#1A1A1A"/>
<rect x="105.1" y="190.2" width="3.8" height="3.8" fill="#1A1A1A"/>
<rect x="89.2" y="194.0" width="3.8" height="3.8" fill="#1A1A1A"/>
<rect x="104.4" y="194.0" width="3.8" height="3.8" fill="#1A1A1A"/>
<rect x="88.5" y="197.8" width="3.8" height="3.8" fill="#1A1A1A"/>
<rect x="103.6" y="197.8" width="3.8" height="3.8" fill="#1A1A1A"/>
<rect x="87.7" y="201.6" width="3.8" height="3.8" fill="#1A1A1A"/>
<rect x="102.9" y="201.6" width="3.8" height="3.8" fill="#1A1A1A"/>
<rect x="86.9" y="205.4" width="3.8" height="3.8" fill="#1A1A1A"/>
<rect x="102.1" y="205.4" width="3.8" height="3.8" fill="#1A1A1A"/>
<rect x="90.0" y="209.2" width="3.8" height="3.8" fill="#1A1A1A"/>
<rect x="93.8" y="209.2" width="3.8" height="3.8" fill="#1A1A1A"/>
<rect x="97.6" y="209.2" width="3.8" height="3.8" fill="#1A1A1A"/>
<rect x="119.5" y="194.0" width="3.8" height="3.8" fill="#1A1A1A"/>
<rect x="123.3" y="194.0" width="3.8" height="3.8" fill="#1A1A1A"/>
<rect x="127.1" y="194.0" width="3.8" height="3.8" fill="#1A1A1A"/>
<rect x="130.1" y="197.8" width="3.8" height="3.8" fill="#1A1A1A"/>
<rect x="118.0" y="201.6" width="3.8" height="3.8" fill="#1A1A1A"/>
<rect x="121.8" y="201.6" width="3.8" height="3.8" fill="#1A1A1A"/>
<rect x="125.6" y="201.6" width="3.8" height="3.8" fill="#1A1A1A"/>
<rect x="129.4" y="201.6" width="3.8" height="3.8" fill="#1A1A1A"/>
<rect x="113.5" y="205.4" width="3.8" height="3.8" fill="#1A1A1A"/>
<rect x="128.6" y="205.4" width="3.8" height="3.8" fill="#1A1A1A"/>
<rect x="116.5" y="209.2" width="3.8" height="3.8" fill="#1A1A1A"/>
<rect x="120.3" y="209.2" width="3.8" height="3.8" fill="#1A1A1A"/>
<rect x="124.1" y="209.2" width="3.8" height="3.8" fill="#1A1A1A"/>
<rect x="127.8" y="209.2" width="3.8" height="3.8" fill="#1A1A1A"/>
<rect x="143.7" y="186.5" width="3.8" height="3.8" fill="#1A1A1A"/>
<rect x="143.0" y="190.2" width="3.8" height="3.8" fill="#1A1A1A"/>
<rect x="142.2" y="194.0" width="3.8" height="3.8" fill="#1A1A1A"/>
<rect x="153.6" y="194.0" width="3.8" height="3.8" fill="#1A1A1A"/>
<rect x="141.5" y="197.8" width="3.8" height="3.8" fill="#1A1A1A"/>
<rect x="149.0" y="197.8" width="3.8" height="3.8" fill="#1A1A1A"/>
<rect x="140.7" y="201.6" width="3.8" height="3.8" fill="#1A1A1A"/>
<rect x="144.5" y="201.6" width="3.8" height="3.8" fill="#1A1A1A"/>
<rect x="140.0" y="205.4" width="3.8" height="3.8" fill="#1A1A1A"/>
<rect x="147.5" y="205.4" width="3.8" height="3.8" fill="#1A1A1A"/>
<rect x="139.2" y="209.2" width="3.8" height="3.8" fill="#1A1A1A"/>
<rect x="150.6" y="209.2" width="3.8" height="3.8" fill="#1A1A1A"/>
<rect x="185.4" y="186.5" width="3.8" height="3.8" fill="#1A1A1A"/>
<rect x="189.2" y="186.5" width="3.8" height="3.8" fill="#1A1A1A"/>
<rect x="193.0" y="186.5" width="3.8" height="3.8" fill="#1A1A1A"/>
<rect x="196.8" y="186.5" width="3.8" height="3.8" fill="#1A1A1A"/>
<rect x="184.6" y="190.2" width="3.8" height="3.8" fill="#1A1A1A"/>
<rect x="199.8" y="190.2" width="3.8" height="3.8" fill="#1A1A1A"/>
<rect x="183.9" y="194.0" width="3.8" height="3.8" fill="#1A1A1A"/>
<rect x="187.7" y="194.0" width="3.8" height="3.8" fill="#1A1A1A"/>
<rect x="191.5" y="194.0" width="3.8" height="3.8" fill="#1A1A1A"/>
<rect x="195.2" y="194.0" width="3.8" height="3.8" fill="#1A1A1A"/>
<rect x="183.1" y="197.8" width="3.8" height="3.8" fill="#1A1A1A"/>
<rect x="182.4" y="201.6" width="3.8" height="3.8" fill="#1A1A1A"/>
<rect x="181.6" y="205.4" width="3.8" height="3.8" fill="#1A1A1A"/>
<rect x="180.8" y="209.2" width="3.8" height="3.8" fill="#1A1A1A"/>
<rect x="211.9" y="186.5" width="3.8" height="3.8" fill="#1A1A1A"/>
<rect x="211.1" y="190.2" width="3.8" height="3.8" fill="#1A1A1A"/>
<rect x="210.4" y="194.0" width="3.8" height="3.8" fill="#1A1A1A"/>
<rect x="209.6" y="197.8" width="3.8" height="3.8" fill="#1A1A1A"/>
<rect x="208.9" y="201.6" width="3.8" height="3.8" fill="#1A1A1A"/>
<rect x="208.1" y="205.4" width="3.8" height="3.8" fill="#1A1A1A"/>
<rect x="211.1" y="209.2" width="3.8" height="3.8" fill="#1A1A1A"/>
<rect x="229.3" y="194.0" width="3.8" height="3.8" fill="#1A1A1A"/>
<rect x="233.1" y="194.0" width="3.8" height="3.8" fill="#1A1A1A"/>
<rect x="236.9" y="194.0" width="3.8" height="3.8" fill="#1A1A1A"/>
<rect x="239.9" y="197.8" width="3.8" height="3.8" fill="#1A1A1A"/>
<rect x="227.8" y="201.6" width="3.8" height="3.8" fill="#1A1A1A"/>
<rect x="231.6" y="201.6" width="3.8" height="3.8" fill="#1A1A1A"/>
<rect x="235.4" y="201.6" width="3.8" height="3.8" fill="#1A1A1A"/>
<rect x="239.2" y="201.6" width="3.8" height="3.8" fill="#1A1A1A"/>
<rect x="223.3" y="205.4" width="3.8" height="3.8" fill="#1A1A1A"/>
<rect x="238.4" y="205.4" width="3.8" height="3.8" fill="#1A1A1A"/>
<rect x="226.3" y="209.2" width="3.8" height="3.8" fill="#1A1A1A"/>
<rect x="230.1" y="209.2" width="3.8" height="3.8" fill="#1A1A1A"/>
<rect x="233.9" y="209.2" width="3.8" height="3.8" fill="#1A1A1A"/>
<rect x="237.6" y="209.2" width="3.8" height="3.8" fill="#1A1A1A"/>
<rect x="252.0" y="194.0" width="3.8" height="3.8" fill="#1A1A1A"/>
<rect x="255.8" y="194.0" width="3.8" height="3.8" fill="#1A1A1A"/>
<rect x="259.6" y="194.0" width="3.8" height="3.8" fill="#1A1A1A"/>
<rect x="263.4" y="194.0" width="3.8" height="3.8" fill="#1A1A1A"/>
<rect x="251.3" y="197.8" width="3.8" height="3.8" fill="#1A1A1A"/>
<rect x="266.4" y="197.8" width="3.8" height="3.8" fill="#1A1A1A"/>
<rect x="250.5" y="201.6" width="3.8" height="3.8" fill="#1A1A1A"/>
<rect x="265.7" y="201.6" width="3.8" height="3.8" fill="#1A1A1A"/>
<rect x="249.8" y="205.4" width="3.8" height="3.8" fill="#1A1A1A"/>
<rect x="264.9" y="205.4" width="3.8" height="3.8" fill="#1A1A1A"/>
<rect x="249.0" y="209.2" width="3.8" height="3.8" fill="#1A1A1A"/>
<rect x="264.1" y="209.2" width="3.8" height="3.8" fill="#1A1A1A"/>
<rect x="280.0" y="186.5" width="3.8" height="3.8" fill="#1A1A1A"/>
<rect x="279.3" y="190.2" width="3.8" height="3.8" fill="#1A1A1A"/>
<rect x="278.5" y="194.0" width="3.8" height="3.8" fill="#1A1A1A"/>
<rect x="289.9" y="194.0" width="3.8" height="3.8" fill="#1A1A1A"/>
<rect x="277.8" y="197.8" width="3.8" height="3.8" fill="#1A1A1A"/>
<rect x="285.3" y="197.8" width="3.8" height="3.8" fill="#1A1A1A"/>
<rect x="277.0" y="201.6" width="3.8" height="3.8" fill="#1A1A1A"/>
<rect x="280.8" y="201.6" width="3.8" height="3.8" fill="#1A1A1A"/>
<rect x="276.3" y="205.4" width="3.8" height="3.8" fill="#1A1A1A"/>
<rect x="283.8" y="205.4" width="3.8" height="3.8" fill="#1A1A1A"/>
<rect x="275.5" y="209.2" width="3.8" height="3.8" fill="#1A1A1A"/>
<rect x="286.9" y="209.2" width="3.8" height="3.8" fill="#1A1A1A"/>
<rect x="305.0" y="194.0" width="3.8" height="3.8" fill="#1A1A1A"/>
<rect x="308.8" y="194.0" width="3.8" height="3.8" fill="#1A1A1A"/>
<rect x="312.6" y="194.0" width="3.8" height="3.8" fill="#1A1A1A"/>
<rect x="316.4" y="194.0" width="3.8" height="3.8" fill="#1A1A1A"/>
<rect x="300.5" y="197.8" width="3.8" height="3.8" fill="#1A1A1A"/>
<rect x="303.5" y="201.6" width="3.8" height="3.8" fill="#1A1A1A"/>
<rect x="307.3" y="201.6" width="3.8" height="3.8" fill="#1A1A1A"/>
<rect x="311.1" y="201.6" width="3.8" height="3.8" fill="#1A1A1A"/>
<rect x="314.1" y="205.4" width="3.8" height="3.8" fill="#1A1A1A"/>
<rect x="298.2" y="209.2" width="3.8" height="3.8" fill="#1A1A1A"/>
<rect x="302.0" y="209.2" width="3.8" height="3.8" fill="#1A1A1A"/>
<rect x="305.8" y="209.2" width="3.8" height="3.8" fill="#1A1A1A"/>
<rect x="309.6" y="209.2" width="3.8" height="3.8" fill="#1A1A1A"/>
<rect x="348.2" y="186.5" width="3.8" height="3.8" fill="#1A1A1A"/>
<rect x="352.0" y="186.5" width="3.8" height="3.8" fill="#1A1A1A"/>
<rect x="355.8" y="186.5" width="3.8" height="3.8" fill="#1A1A1A"/>
<rect x="359.6" y="186.5" width="3.8" height="3.8" fill="#1A1A1A"/>
<rect x="347.4" y="190.2" width="3.8" height="3.8" fill="#1A1A1A"/>
<rect x="362.6" y="190.2" width="3.8" height="3.8" fill="#1A1A1A"/>
<rect x="346.7" y="194.0" width="3.8" height="3.8" fill="#1A1A1A"/>
<rect x="350.5" y="194.0" width="3.8" height="3.8" fill="#1A1A1A"/>
<rect x="354.3" y="194.0" width="3.8" height="3.8" fill="#1A1A1A"/>
<rect x="358.0" y="194.0" width="3.8" height="3.8" fill="#1A1A1A"/>
<rect x="345.9" y="197.8" width="3.8" height="3.8" fill="#1A1A1A"/>
<rect x="361.1" y="197.8" width="3.8" height="3.8" fill="#1A1A1A"/>
<rect x="345.2" y="201.6" width="3.8" height="3.8" fill="#1A1A1A"/>
<rect x="360.3" y="201.6" width="3.8" height="3.8" fill="#1A1A1A"/>
<rect x="344.4" y="205.4" width="3.8" height="3.8" fill="#1A1A1A"/>
<rect x="359.6" y="205.4" width="3.8" height="3.8" fill="#1A1A1A"/>
<rect x="343.7" y="209.2" width="3.8" height="3.8" fill="#1A1A1A"/>
<rect x="358.8" y="209.2" width="3.8" height="3.8" fill="#1A1A1A"/>
<rect x="377.0" y="194.0" width="3.8" height="3.8" fill="#1A1A1A"/>
<rect x="380.8" y="194.0" width="3.8" height="3.8" fill="#1A1A1A"/>
<rect x="384.5" y="194.0" width="3.8" height="3.8" fill="#1A1A1A"/>
<rect x="372.4" y="197.8" width="3.8" height="3.8" fill="#1A1A1A"/>
<rect x="387.6" y="197.8" width="3.8" height="3.8" fill="#1A1A1A"/>
<rect x="371.7" y="201.6" width="3.8" height="3.8" fill="#1A1A1A"/>
<rect x="375.5" y="201.6" width="3.8" height="3.8" fill="#1A1A1A"/>
<rect x="379.2" y="201.6" width="3.8" height="3.8" fill="#1A1A1A"/>
<rect x="383.0" y="201.6" width="3.8" height="3.8" fill="#1A1A1A"/>
<rect x="386.8" y="201.6" width="3.8" height="3.8" fill="#1A1A1A"/>
<rect x="370.9" y="205.4" width="3.8" height="3.8" fill="#1A1A1A"/>
<rect x="373.9" y="209.2" width="3.8" height="3.8" fill="#1A1A1A"/>
<rect x="377.7" y="209.2" width="3.8" height="3.8" fill="#1A1A1A"/>
<rect x="381.5" y="209.2" width="3.8" height="3.8" fill="#1A1A1A"/>
<rect x="385.3" y="209.2" width="3.8" height="3.8" fill="#1A1A1A"/>
<rect x="403.5" y="194.0" width="3.8" height="3.8" fill="#1A1A1A"/>
<rect x="407.3" y="194.0" width="3.8" height="3.8" fill="#1A1A1A"/>
<rect x="414.8" y="194.0" width="3.8" height="3.8" fill="#1A1A1A"/>
<rect x="398.9" y="197.8" width="3.8" height="3.8" fill="#1A1A1A"/>
<rect x="410.3" y="197.8" width="3.8" height="3.8" fill="#1A1A1A"/>
<rect x="414.1" y="197.8" width="3.8" height="3.8" fill="#1A1A1A"/>
<rect x="398.2" y="201.6" width="3.8" height="3.8" fill="#1A1A1A"/>
<rect x="413.3" y="201.6" width="3.8" height="3.8" fill="#1A1A1A"/>
<rect x="401.2" y="205.4" width="3.8" height="3.8" fill="#1A1A1A"/>
<rect x="405.0" y="205.4" width="3.8" height="3.8" fill="#1A1A1A"/>
<rect x="408.8" y="205.4" width="3.8" height="3.8" fill="#1A1A1A"/>
<rect x="412.6" y="205.4" width="3.8" height="3.8" fill="#1A1A1A"/>
<rect x="411.8" y="209.2" width="3.8" height="3.8" fill="#1A1A1A"/>
<rect x="411.1" y="213.0" width="3.8" height="3.8" fill="#1A1A1A"/>
<rect x="426.2" y="194.0" width="3.8" height="3.8" fill="#1A1A1A"/>
<rect x="441.3" y="194.0" width="3.8" height="3.8" fill="#1A1A1A"/>
<rect x="425.4" y="197.8" width="3.8" height="3.8" fill="#1A1A1A"/>
<rect x="440.6" y="197.8" width="3.8" height="3.8" fill="#1A1A1A"/>
<rect x="424.7" y="201.6" width="3.8" height="3.8" fill="#1A1A1A"/>
<rect x="439.8" y="201.6" width="3.8" height="3.8" fill="#1A1A1A"/>
<rect x="423.9" y="205.4" width="3.8" height="3.8" fill="#1A1A1A"/>
<rect x="439.1" y="205.4" width="3.8" height="3.8" fill="#1A1A1A"/>
<rect x="427.0" y="209.2" width="3.8" height="3.8" fill="#1A1A1A"/>
<rect x="430.7" y="209.2" width="3.8" height="3.8" fill="#1A1A1A"/>
<rect x="434.5" y="209.2" width="3.8" height="3.8" fill="#1A1A1A"/>
<rect x="438.3" y="209.2" width="3.8" height="3.8" fill="#1A1A1A"/>
<rect x="454.2" y="186.5" width="3.8" height="3.8" fill="#1A1A1A"/>
<rect x="452.7" y="194.0" width="3.8" height="3.8" fill="#1A1A1A"/>
<rect x="451.9" y="197.8" width="3.8" height="3.8" fill="#1A1A1A"/>
<rect x="451.2" y="201.6" width="3.8" height="3.8" fill="#1A1A1A"/>
<rect x="450.4" y="205.4" width="3.8" height="3.8" fill="#1A1A1A"/>
<rect x="449.7" y="209.2" width="3.8" height="3.8" fill="#1A1A1A"/>
<rect x="464.1" y="194.0" width="3.8" height="3.8" fill="#1A1A1A"/>
<rect x="471.6" y="194.0" width="3.8" height="3.8" fill="#1A1A1A"/>
<rect x="475.4" y="194.0" width="3.8" height="3.8" fill="#1A1A1A"/>
<rect x="463.3" y="197.8" width="3.8" height="3.8" fill="#1A1A1A"/>
<rect x="467.1" y="197.8" width="3.8" height="3.8" fill="#1A1A1A"/>
<rect x="478.4" y="197.8" width="3.8" height="3.8" fill="#1A1A1A"/>
<rect x="462.5" y="201.6" width="3.8" height="3.8" fill="#1A1A1A"/>
<rect x="461.8" y="205.4" width="3.8" height="3.8" fill="#1A1A1A"/>
<rect x="461.0" y="209.2" width="3.8" height="3.8" fill="#1A1A1A"/>
<rect x="494.4" y="194.0" width="3.8" height="3.8" fill="#1A1A1A"/>
<rect x="498.1" y="194.0" width="3.8" height="3.8" fill="#1A1A1A"/>
<rect x="501.9" y="194.0" width="3.8" height="3.8" fill="#1A1A1A"/>
<rect x="489.8" y="197.8" width="3.8" height="3.8" fill="#1A1A1A"/>
<rect x="505.0" y="197.8" width="3.8" height="3.8" fill="#1A1A1A"/>
<rect x="489.1" y="201.6" width="3.8" height="3.8" fill="#1A1A1A"/>
<rect x="492.8" y="201.6" width="3.8" height="3.8" fill="#1A1A1A"/>
<rect x="496.6" y="201.6" width="3.8" height="3.8" fill="#1A1A1A"/>
<rect x="500.4" y="201.6" width="3.8" height="3.8" fill="#1A1A1A"/>
<rect x="504.2" y="201.6" width="3.8" height="3.8" fill="#1A1A1A"/>
<rect x="488.3" y="205.4" width="3.8" height="3.8" fill="#1A1A1A"/>
<rect x="491.3" y="209.2" width="3.8" height="3.8" fill="#1A1A1A"/>
<rect x="495.1" y="209.2" width="3.8" height="3.8" fill="#1A1A1A"/>
<rect x="498.9" y="209.2" width="3.8" height="3.8" fill="#1A1A1A"/>
<rect x="502.7" y="209.2" width="3.8" height="3.8" fill="#1A1A1A"/>
<rect x="533.7" y="186.5" width="3.8" height="3.8" fill="#1A1A1A"/>
<rect x="533.0" y="190.2" width="3.8" height="3.8" fill="#1A1A1A"/>
<rect x="520.9" y="194.0" width="3.8" height="3.8" fill="#1A1A1A"/>
<rect x="524.6" y="194.0" width="3.8" height="3.8" fill="#1A1A1A"/>
<rect x="532.2" y="194.0" width="3.8" height="3.8" fill="#1A1A1A"/>
<rect x="516.3" y="197.8" width="3.8" height="3.8" fill="#1A1A1A"/>
<rect x="527.7" y="197.8" width="3.8" height="3.8" fill="#1A1A1A"/>
<rect x="531.5" y="197.8" width="3.8" height="3.8" fill="#1A1A1A"/>
<rect x="515.6" y="201.6" width="3.8" height="3.8" fill="#1A1A1A"/>
<rect x="530.7" y="201.6" width="3.8" height="3.8" fill="#1A1A1A"/>
<rect x="514.8" y="205.4" width="3.8" height="3.8" fill="#1A1A1A"/>
<rect x="529.9" y="205.4" width="3.8" height="3.8" fill="#1A1A1A"/>
<rect x="517.8" y="209.2" width="3.8" height="3.8" fill="#1A1A1A"/>
<rect x="521.6" y="209.2" width="3.8" height="3.8" fill="#1A1A1A"/>
<rect x="525.4" y="209.2" width="3.8" height="3.8" fill="#1A1A1A"/>
<rect x="529.2" y="209.2" width="3.8" height="3.8" fill="#1A1A1A"/>
</g>
</svg>