<?xml version="1.0" encoding="UTF-8"?>
<svg xmlns="http://www.w3.org/2000/svg" width="8.5in" height="11in" viewBox="0 0 612 792">
<rect width="100%" height="100%" fill="white"/>
<text x="306" y="57.6" font-size="16" fill="#333" text-anchor="middle" font-family="sans-serif" font-weight="bold">Prop Reference Sheet</text>
<text x="306" y="79.2" font-size="9" fill="#666" text-anchor="middle" font-family="sans-serif">1 pixel = 1.25" at full scale</text>
<rect x="247.5" y="108.0" width="13.5" height="13.5" fill="rgb(130,93,22)" stroke="#888" stroke-width="0.3"/>
<rect x="261.0" y="108.0" width="13.5" height="13.5" fill="rgb(130,93,22)" stroke="#888" stroke-width="0.3"/>
<rect x="274.5" y="108.0" width="13.5" height="13.5" fill="rgb(130,93,22)" stroke="#888" stroke-width="0.3"/>
<rect x="234.0" y="121.5" width="13.5" height="13.5" fill="rgb(130,93,22)" stroke="#888" stroke-width="0.3"/>
<rect x="247.5" y="121.5" width="13.5" height="13.5" fill="rgb(255,255,255)" stroke="#888" stroke-width="0.3"/>
<rect x="261.0" y="121.5" width="13.5" height="13.5" fill="rgb(255,255,255)" stroke="#888" stroke-width="0.3"/>
<rect x="274.5" y="121.5" width="13.5" height="13.5" fill="rgb(63,46,14)" stroke="#888" stroke-width="0.3"/>
<rect x="220.5" y="135.0" width="13.5" height="13.5" fill="rgb(130,93,22)" stroke="#888" stroke-width="0.3"/>
<rect x="234.0" y="135.0" width="13.5" height="13.5" fill="rgb(255,255,255)" stroke="#888" stroke-width="0.3"/>
<rect x="247.5" y="135.0" width="13.5" height="13.5" fill="rgb(234,238,87)" stroke="#888" stroke-width="0.3"/>
<rect x="261.0" y="135.0" width="13.5" height="13.5" fill="rgb(255,255,255)" stroke="#888" stroke-width="0.3"/>
<rect x="274.5" y="135.0" width="13.5" height="13.5" fill="rgb(63,46,14)" stroke="#888" stroke-width="0.3"/>
<rect x="207.0" y="148.5" width="13.5" height="13.5" fill="rgb(130,93,22)" stroke="#888" stroke-width="0.3"/>
<rect x="220.5" y="148.5" width="13.5" height="13.5" fill="rgb(255,255,255)" stroke="#888" stroke-width="0.3"/>
<rect x="234.0" y="148.5" width="13.5" height="13.5" fill="rgb(234,238,87)" stroke="#888" stroke-width="0.3"/>
<rect x="247.5" y="148.5" width="13.5" height="13.5" fill="rgb(255,255,255)" stroke="#888" stroke-width="0.3"/>
<rect x="261.0" y="148.5" width="13.5" height="13.5" fill="rgb(63,46,14)" stroke="#888" stroke-width="0.3"/>
<rect x="193.5" y="162.0" width="13.5" height="13.5" fill="rgb(130,93,22)" stroke="#888" stroke-width="0.3"/>
<rect x="207.0" y="162.0" width="13.5" height="13.5" fill="rgb(255,255,255)" stroke="#888" stroke-width="0.3"/>
<rect x="220.5" y="162.0" width="13.5" height="13.5" fill="rgb(234,238,87)" stroke="#888" stroke-width="0.3"/>
<rect x="234.0" y="162.0" width="13.5" height="13.5" fill="rgb(253,255,118)" stroke="#888" stroke-width="0.3"/>
<rect x="247.5" y="162.0" width="13.5" height="13.5" fill="rgb(63,46,14)" stroke="#888" stroke-width="0.3"/>
<rect x="180.0" y="175.5" width="13.5" height="13.5" fill="rgb(130,93,22)" stroke="#888" stroke-width="0.3"/>
<rect x="193.5" y="175.5" width="13.5" height="13.5" fill="rgb(255,255,255)" stroke="#888" stroke-width="0.3"/>
<rect x="207.0" y="175.5" width="13.5" height="13.5" fill="rgb(234,238,87)" stroke="#888" stroke-width="0.3"/>
<rect x="220.5" y="175.5" width="13.5" height="13.5" fill="rgb(253,255,118)" stroke="#888" stroke-width="0.3"/>
<rect x="234.0" y="175.5" width="13.5" height="13.5" fill="rgb(63,46,14)" stroke="#888" stroke-width="0.3"/>
<rect x="99.0" y="189.0" width="13.5" height="13.5" fill="rgb(130,93,22)" stroke="#888" stroke-width="0.3"/>
<rect x="112.5" y="189.0" width="13.5" height="13.5" fill="rgb(130,93,22)" stroke="#888" stroke-width="0.3"/>
<rect x="166.5" y="189.0" width="13.5" height="13.5" fill="rgb(130,93,22)" stroke="#888" stroke-width="0.3"/>
<rect x="180.0" y="189.0" width="13.5" height="13.5" fill="rgb(253,255,118)" stroke="#888" stroke-width="0.3"/>
<rect x="193.5" y="189.0" width="13.5" height="13.5" fill="rgb(234,238,87)" stroke="#888" stroke-width="0.3"/>
<rect x="207.0" y="189.0" width="13.5" height="13.5" fill="rgb(253,255,118)" stroke="#888" stroke-width="0.3"/>
<rect x="220.5" y="189.0" width="13.5" height="13.5" fill="rgb(63,46,14)" stroke="#888" stroke-width="0.3"/>
<rect x="99.0" y="202.5" width="13.5" height="13.5" fill="rgb(130,93,22)" stroke="#888" stroke-width="0.3"/>
<rect x="112.5" y="202.5" width="13.5" height="13.5" fill="rgb(220,150,19)" stroke="#888" stroke-width="0.3"/>
<rect x="126.0" y="202.5" width="13.5" height="13.5" fill="rgb(130,93,22)" stroke="#888" stroke-width="0.3"/>
<rect x="153.0" y="202.5" width="13.5" height="13.5" fill="rgb(130,93,22)" stroke="#888" stroke-width="0.3"/>
<rect x="166.5" y="202.5" width="13.5" height="13.5" fill="rgb(253,255,118)" stroke="#888" stroke-width="0.3"/>
<rect x="180.0" y="202.5" width="13.5" height="13.5" fill="rgb(234,238,87)" stroke="#888" stroke-width="0.3"/>
<rect x="193.5" y="202.5" width="13.5" height="13.5" fill="rgb(253,255,118)" stroke="#888" stroke-width="0.3"/>
<rect x="207.0" y="202.5" width="13.5" height="13.5" fill="rgb(63,46,14)" stroke="#888" stroke-width="0.3"/>
<rect x="112.5" y="216.0" width="13.5" height="13.5" fill="rgb(130,93,22)" stroke="#888" stroke-width="0.3"/>
<rect x="126.0" y="216.0" width="13.5" height="13.5" fill="rgb(233,177,21)" stroke="#888" stroke-width="0.3"/>
<rect x="139.5" y="216.0" width="13.5" height="13.5" fill="rgb(63,46,14)" stroke="#888" stroke-width="0.3"/>
<rect x="153.0" y="216.0" width="13.5" height="13.5" fill="rgb(253,255,118)" stroke="#888" stroke-width="0.3"/>
<rect x="166.5" y="216.0" width="13.5" height="13.5" fill="rgb(233,177,21)" stroke="#888" stroke-width="0.3"/>
<rect x="180.0" y="216.0" width="13.5" height="13.5" fill="rgb(253,255,118)" stroke="#888" stroke-width="0.3"/>
<rect x="193.5" y="216.0" width="13.5" height="13.5" fill="rgb(63,46,14)" stroke="#888" stroke-width="0.3"/>
<rect x="112.5" y="229.5" width="13.5" height="13.5" fill="rgb(130,93,22)" stroke="#888" stroke-width="0.3"/>
<rect x="126.0" y="229.5" width="13.5" height="13.5" fill="rgb(233,177,21)" stroke="#888" stroke-width="0.3"/>
<rect x="139.5" y="229.5" width="13.5" height="13.5" fill="rgb(233,177,21)" stroke="#888" stroke-width="0.3"/>
<rect x="153.0" y="229.5" width="13.5" height="13.5" fill="rgb(220,150,19)" stroke="#888" stroke-width="0.3"/>
<rect x="166.5" y="229.5" width="13.5" height="13.5" fill="rgb(253,255,118)" stroke="#888" stroke-width="0.3"/>
<rect x="180.0" y="229.5" width="13.5" height="13.5" fill="rgb(63,46,14)" stroke="#888" stroke-width="0.3"/>
<rect x="126.0" y="243.0" width="13.5" height="13.5" fill="rgb(130,93,22)" stroke="#888" stroke-width="0.3"/>
<rect x="139.5" y="243.0" width="13.5" height="13.5" fill="rgb(220,150,19)" stroke="#888" stroke-width="0.3"/>
<rect x="153.0" y="243.0" width="13.5" height="13.5" fill="rgb(130,93,22)" stroke="#888" stroke-width="0.3"/>
<rect x="166.5" y="243.0" width="13.5" height="13.5" fill="rgb(63,46,14)" stroke="#888" stroke-width="0.3"/>
<rect x="112.5" y="256.5" width="13.5" height="13.5" fill="rgb(73,54,21)" stroke="#888" stroke-width="0.3"/>
<rect x="126.0" y="256.5" width="13.5" height="13.5" fill="rgb(104,78,30)" stroke="#888" stroke-width="0.3"/>
<rect x="139.5" y="256.5" width="13.5" height="13.5" fill="rgb(63,46,14)" stroke="#888" stroke-width="0.3"/>
<rect x="153.0" y="256.5" width="13.5" height="13.5" fill="rgb(130,93,22)" stroke="#888" stroke-width="0.3"/>
<rect x="166.5" y="256.5" width="13.5" height="13.5" fill="rgb(130,93,22)" stroke="#888" stroke-width="0.3"/>
<rect x="180.0" y="256.5" width="13.5" height="13.5" fill="rgb(63,46,14)" stroke="#888" stroke-width="0.3"/>
<rect x="99.0" y="270.0" width="13.5" height="13.5" fill="rgb(73,54,21)" stroke="#888" stroke-width="0.3"/>
<rect x="112.5" y="270.0" width="13.5" height="13.5" fill="rgb(137,103,39)" stroke="#888" stroke-width="0.3"/>
<rect x="126.0" y="270.0" width="13.5" height="13.5" fill="rgb(40,30,11)" stroke="#888" stroke-width="0.3"/>
<rect x="153.0" y="270.0" width="13.5" height="13.5" fill="rgb(63,46,14)" stroke="#888" stroke-width="0.3"/>
<rect x="166.5" y="270.0" width="13.5" height="13.5" fill="rgb(63,46,14)" stroke="#888" stroke-width="0.3"/>
<rect x="180.0" y="270.0" width="13.5" height="13.5" fill="rgb(130,93,22)" stroke="#888" stroke-width="0.3"/>
<rect x="193.5" y="270.0" width="13.5" height="13.5" fill="rgb(63,46,14)" stroke="#888" stroke-width="0.3"/>
<rect x="72.0" y="283.5" width="13.5" height="13.5" fill="rgb(130,93,22)" stroke="#888" stroke-width="0.3"/>
<rect x="85.5" y="283.5" width="13.5" height="13.5" fill="rgb(130,93,22)" stroke="#888" stroke-width="0.3"/>
<rect x="99.0" y="283.5" width="13.5" height="13.5" fill="rgb(104,78,30)" stroke="#888" stroke-width="0.3"/>
<rect x="112.5" y="283.5" width="13.5" height="13.5" fill="rgb(40,30,11)" stroke="#888" stroke-width="0.3"/>
<rect x="180.0" y="283.5" width="13.5" height="13.5" fill="rgb(63,46,14)" stroke="#888" stroke-width="0.3"/>
<rect x="193.5" y="283.5" width="13.5" height="13.5" fill="rgb(63,46,14)" stroke="#888" stroke-width="0.3"/>
<rect x="72.0" y="297.0" width="13.5" height="13.5" fill="rgb(130,93,22)" stroke="#888" stroke-width="0.3"/>
<rect x="85.5" y="297.0" width="13.5" height="13.5" fill="rgb(220,150,19)" stroke="#888" stroke-width="0.3"/>
<rect x="99.0" y="297.0" width="13.5" height="13.5" fill="rgb(63,46,14)" stroke="#888" stroke-width="0.3"/>
<rect x="72.0" y="310.5" width="13.5" height="13.5" fill="rgb(63,46,14)" stroke="#888" stroke-width="0.3"/>
<rect x="85.5" y="310.5" width="13.5" height="13.5" fill="rgb(63,46,14)" stroke="#888" stroke-width="0.3"/>
<rect x="99.0" y="310.5" width="13.5" height="13.5" fill="rgb(63,46,14)" stroke="#888" stroke-width="0.3"/>
<text x="180.0" y="342.0" font-size="10" fill="#333" text-anchor="middle" font-family="sans-serif">Gold Sword</text>
<rect x="405.0" y="135.0" width="13.5" height="13.5" fill="rgb(55,41,16)" stroke="#888" stroke-width="0.3"/>
<rect x="418.5" y="135.0" width="13.5" height="13.5" fill="rgb(55,41,16)" stroke="#888" stroke-width="0.3"/>
<rect x="432.0" y="135.0" width="13.5" height="13.5" fill="rgb(55,41,16)" stroke="#888" stroke-width="0.3"/>
<rect x="445.5" y="135.0" width="13.5" height="13.5" fill="rgb(55,41,16)" stroke="#888" stroke-width="0.3"/>
<rect x="459.0" y="135.0" width="13.5" height="13.5" fill="rgb(55,41,16)" stroke="#888" stroke-width="0.3"/>
<rect x="391.5" y="148.5" width="13.5" height="13.5" fill="rgb(55,41,16)" stroke="#888" stroke-width="0.3"/>
<rect x="405.0" y="148.5" width="13.5" height="13.5" fill="rgb(136,102,38)" stroke="#888" stroke-width="0.3"/>
<rect x="418.5" y="148.5" width="13.5" height="13.5" fill="rgb(117,88,33)" stroke="#888" stroke-width="0.3"/>
<rect x="432.0" y="148.5" width="13.5" height="13.5" fill="rgb(106,80,30)" stroke="#888" stroke-width="0.3"/>
<rect x="445.5" y="148.5" width="13.5" height="13.5" fill="rgb(106,80,30)" stroke="#888" stroke-width="0.3"/>
<rect x="459.0" y="148.5" width="13.5" height="13.5" fill="rgb(117,88,33)" stroke="#888" stroke-width="0.3"/>
<rect x="472.5" y="148.5" width="13.5" height="13.5" fill="rgb(55,41,16)" stroke="#888" stroke-width="0.3"/>
<rect x="486.0" y="148.5" width="13.5" height="13.5" fill="rgb(73,54,21)" stroke="#888" stroke-width="0.3"/>
<rect x="499.5" y="148.5" width="13.5" height="13.5" fill="rgb(106,80,30)" stroke="#888" stroke-width="0.3"/>
<rect x="405.0" y="162.0" width="13.5" height="13.5" fill="rgb(55,41,16)" stroke="#888" stroke-width="0.3"/>
<rect x="418.5" y="162.0" width="13.5" height="13.5" fill="rgb(32,24,10)" stroke="#888" stroke-width="0.3"/>
<rect x="432.0" y="162.0" width="13.5" height="13.5" fill="rgb(32,24,10)" stroke="#888" stroke-width="0.3"/>
<rect x="445.5" y="162.0" width="13.5" height="13.5" fill="rgb(32,24,10)" stroke="#888" stroke-width="0.3"/>
<rect x="459.0" y="162.0" width="13.5" height="13.5" fill="rgb(106,80,30)" stroke="#888" stroke-width="0.3"/>
<rect x="472.5" y="162.0" width="13.5" height="13.5" fill="rgb(106,80,30)" stroke="#888" stroke-width="0.3"/>
<rect x="486.0" y="162.0" width="13.5" height="13.5" fill="rgb(136,102,38)" stroke="#888" stroke-width="0.3"/>
<rect x="499.5" y="162.0" width="13.5" height="13.5" fill="rgb(40,30,11)" stroke="#888" stroke-width="0.3"/>
<rect x="459.0" y="175.5" width="13.5" height="13.5" fill="rgb(73,54,21)" stroke="#888" stroke-width="0.3"/>
<rect x="472.5" y="175.5" width="13.5" height="13.5" fill="rgb(117,88,33)" stroke="#888" stroke-width="0.3"/>
<rect x="486.0" y="175.5" width="13.5" height="13.5" fill="rgb(106,80,30)" stroke="#888" stroke-width="0.3"/>
<rect x="499.5" y="175.5" width="13.5" height="13.5" fill="rgb(32,24,10)" stroke="#888" stroke-width="0.3"/>
<rect x="445.5" y="189.0" width="13.5" height="13.5" fill="rgb(73,54,21)" stroke="#888" stroke-width="0.3"/>
<rect x="459.0" y="189.0" width="13.5" height="13.5" fill="rgb(106,80,30)" stroke="#888" stroke-width="0.3"/>
<rect x="472.5" y="189.0" width="13.5" height="13.5" fill="rgb(40,30,11)" stroke="#888" stroke-width="0.3"/>
<rect x="486.0" y="189.0" width="13.5" height="13.5" fill="rgb(106,80,30)" stroke="#888" stroke-width="0.3"/>
<rect x="499.5" y="189.0" width="13.5" height="13.5" fill="rgb(117,88,33)" stroke="#888" stroke-width="0.3"/>
<rect x="513.0" y="189.0" width="13.5" height="13.5" fill="rgb(32,24,10)" stroke="#888" stroke-width="0.3"/>
<rect x="432.0" y="202.5" width="13.5" height="13.5" fill="rgb(73,54,21)" stroke="#888" stroke-width="0.3"/>
<rect x="445.5" y="202.5" width="13.5" height="13.5" fill="rgb(136,102,38)" stroke="#888" stroke-width="0.3"/>
<rect x="459.0" y="202.5" width="13.5" height="13.5" fill="rgb(40,30,11)" stroke="#888" stroke-width="0.3"/>
<rect x="486.0" y="202.5" width="13.5" height="13.5" fill="rgb(32,24,10)" stroke="#888" stroke-width="0.3"/>
<rect x="499.5" y="202.5" width="13.5" height="13.5" fill="rgb(106,80,30)" stroke="#888" stroke-width="0.3"/>
<rect x="513.0" y="202.5" width="13.5" height="13.5" fill="rgb(32,24,10)" stroke="#888" stroke-width="0.3"/>
<rect x="418.5" y="216.0" width="13.5" height="13.5" fill="rgb(73,54,21)" stroke="#888" stroke-width="0.3"/>
<rect x="432.0" y="216.0" width="13.5" height="13.5" fill="rgb(106,80,30)" stroke="#888" stroke-width="0.3"/>
<rect x="445.5" y="216.0" width="13.5" height="13.5" fill="rgb(40,30,11)" stroke="#888" stroke-width="0.3"/>
<rect x="486.0" y="216.0" width="13.5" height="13.5" fill="rgb(32,24,10)" stroke="#888" stroke-width="0.3"/>
<rect x="499.5" y="216.0" width="13.5" height="13.5" fill="rgb(106,80,30)" stroke="#888" stroke-width="0.3"/>
<rect x="513.0" y="216.0" width="13.5" height="13.5" fill="rgb(32,24,10)" stroke="#888" stroke-width="0.3"/>
<rect x="405.0" y="229.5" width="13.5" height="13.5" fill="rgb(73,54,21)" stroke="#888" stroke-width="0.3"/>
<rect x="418.5" y="229.5" width="13.5" height="13.5" fill="rgb(136,102,38)" stroke="#888" stroke-width="0.3"/>
<rect x="432.0" y="229.5" width="13.5" height="13.5" fill="rgb(40,30,11)" stroke="#888" stroke-width="0.3"/>
<rect x="486.0" y="229.5" width="13.5" height="13.5" fill="rgb(32,24,10)" stroke="#888" stroke-width="0.3"/>
<rect x="499.5" y="229.5" width="13.5" height="13.5" fill="rgb(117,88,33)" stroke="#888" stroke-width="0.3"/>
<rect x="513.0" y="229.5" width="13.5" height="13.5" fill="rgb(32,24,10)" stroke="#888" stroke-width="0.3"/>
<rect x="391.5" y="243.0" width="13.5" height="13.5" fill="rgb(73,54,21)" stroke="#888" stroke-width="0.3"/>
<rect x="405.0" y="243.0" width="13.5" height="13.5" fill="rgb(106,80,30)" stroke="#888" stroke-width="0.3"/>
<rect x="418.5" y="243.0" width="13.5" height="13.5" fill="rgb(40,30,11)" stroke="#888" stroke-width="0.3"/>
<rect x="486.0" y="243.0" width="13.5" height="13.5" fill="rgb(32,24,10)" stroke="#888" stroke-width="0.3"/>
<rect x="499.5" y="243.0" width="13.5" height="13.5" fill="rgb(136,102,38)" stroke="#888" stroke-width="0.3"/>
<rect x="513.0" y="243.0" width="13.5" height="13.5" fill="rgb(32,24,10)" stroke="#888" stroke-width="0.3"/>
<rect x="378.0" y="256.5" width="13.5" height="13.5" fill="rgb(73,54,21)" stroke="#888" stroke-width="0.3"/>
<rect x="391.5" y="256.5" width="13.5" height="13.5" fill="rgb(136,102,38)" stroke="#888" stroke-width="0.3"/>
<rect x="405.0" y="256.5" width="13.5" height="13.5" fill="rgb(40,30,11)" stroke="#888" stroke-width="0.3"/>
<rect x="499.5" y="256.5" width="13.5" height="13.5" fill="rgb(32,24,10)" stroke="#888" stroke-width="0.3"/>
<rect x="364.5" y="270.0" width="13.5" height="13.5" fill="rgb(73,54,21)" stroke="#888" stroke-width="0.3"/>
<rect x="378.0" y="270.0" width="13.5" height="13.5" fill="rgb(106,80,30)" stroke="#888" stroke-width="0.3"/>
<rect x="391.5" y="270.0" width="13.5" height="13.5" fill="rgb(40,30,11)" stroke="#888" stroke-width="0.3"/>
<rect x="351.0" y="283.5" width="13.5" height="13.5" fill="rgb(73,54,21)" stroke="#888" stroke-width="0.3"/>
<rect x="364.5" y="283.5" width="13.5" height="13.5" fill="rgb(136,102,38)" stroke="#888" stroke-width="0.3"/>
<rect x="378.0" y="283.5" width="13.5" height="13.5" fill="rgb(40,30,11)" stroke="#888" stroke-width="0.3"/>
<rect x="351.0" y="297.0" width="13.5" height="13.5" fill="rgb(40,30,11)" stroke="#888" stroke-width="0.3"/>
<rect x="364.5" y="297.0" width="13.5" height="13.5" fill="rgb(40,30,11)" stroke="#888" stroke-width="0.3"/>
<text x="432.0" y="342.0" font-size="10" fill="#333" text-anchor="middle" font-family="sans-serif">Wooden Pickaxe</text>
<rect x="220.5" y="415.8" width="13.5" height="13.5" fill="rgb(14,63,54)" stroke="#888" stroke-width="0.3"/>
<rect x="234.0" y="415.8" width="13.5" height="13.5" fill="rgb(14,63,54)" stroke="#888" stroke-width="0.3"/>
<rect x="247.5" y="415.8" width="13.5" height="13.5" fill="rgb(8,37,32)" stroke="#888" stroke-width="0.3"/>
<rect x="207.0" y="429.3" width="13.5" height="13.5" fill="rgb(14,63,54)" stroke="#888" stroke-width="0.3"/>
<rect x="220.5" y="429.3" width="13.5" height="13.5" fill="rgb(51,235,203)" stroke="#888" stroke-width="0.3"/>
<rect x="234.0" y="429.3" width="13.5" height="13.5" fill="rgb(51,235,203)" stroke="#888" stroke-width="0.3"/>
<rect x="247.5" y="429.3" width="13.5" height="13.5" fill="rgb(39,178,154)" stroke="#888" stroke-width="0.3"/>
<rect x="261.0" y="429.3" width="13.5" height="13.5" fill="rgb(8,37,32)" stroke="#888" stroke-width="0.3"/>
<rect x="193.5" y="442.8" width="13.5" height="13.5" fill="rgb(14,63,54)" stroke="#888" stroke-width="0.3"/>
<rect x="207.0" y="442.8" width="13.5" height="13.5" fill="rgb(51,235,203)" stroke="#888" stroke-width="0.3"/>
<rect x="220.5" y="442.8" width="13.5" height="13.5" fill="rgb(43,199,172)" stroke="#888" stroke-width="0.3"/>
<rect x="234.0" y="442.8" width="13.5" height="13.5" fill="rgb(39,178,154)" stroke="#888" stroke-width="0.3"/>
<rect x="247.5" y="442.8" width="13.5" height="13.5" fill="rgb(51,235,203)" stroke="#888" stroke-width="0.3"/>
<rect x="261.0" y="442.8" width="13.5" height="13.5" fill="rgb(8,37,32)" stroke="#888" stroke-width="0.3"/>
<rect x="180.0" y="456.3" width="13.5" height="13.5" fill="rgb(14,63,54)" stroke="#888" stroke-width="0.3"/>
<rect x="193.5" y="456.3" width="13.5" height="13.5" fill="rgb(51,235,203)" stroke="#888" stroke-width="0.3"/>
<rect x="207.0" y="456.3" width="13.5" height="13.5" fill="rgb(43,199,172)" stroke="#888" stroke-width="0.3"/>
<rect x="220.5" y="456.3" width="13.5" height="13.5" fill="rgb(39,178,154)" stroke="#888" stroke-width="0.3"/>
<rect x="234.0" y="456.3" width="13.5" height="13.5" fill="rgb(43,199,172)" stroke="#888" stroke-width="0.3"/>
<rect x="247.5" y="456.3" width="13.5" height="13.5" fill="rgb(51,235,203)" stroke="#888" stroke-width="0.3"/>
<rect x="261.0" y="456.3" width="13.5" height="13.5" fill="rgb(8,37,32)" stroke="#888" stroke-width="0.3"/>
<rect x="193.5" y="469.8" width="13.5" height="13.5" fill="rgb(73,54,21)" stroke="#888" stroke-width="0.3"/>
<rect x="207.0" y="469.8" width="13.5" height="13.5" fill="rgb(39,178,154)" stroke="#888" stroke-width="0.3"/>
<rect x="220.5" y="469.8" width="13.5" height="13.5" fill="rgb(43,199,172)" stroke="#888" stroke-width="0.3"/>
<rect x="234.0" y="469.8" width="13.5" height="13.5" fill="rgb(51,235,203)" stroke="#888" stroke-width="0.3"/>
<rect x="247.5" y="469.8" width="13.5" height="13.5" fill="rgb(8,37,32)" stroke="#888" stroke-width="0.3"/>
<rect x="180.0" y="483.3" width="13.5" height="13.5" fill="rgb(73,54,21)" stroke="#888" stroke-width="0.3"/>
<rect x="193.5" y="483.3" width="13.5" height="13.5" fill="rgb(137,103,39)" stroke="#888" stroke-width="0.3"/>
<rect x="207.0" y="483.3" width="13.5" height="13.5" fill="rgb(40,30,11)" stroke="#888" stroke-width="0.3"/>
<rect x="220.5" y="483.3" width="13.5" height="13.5" fill="rgb(51,235,203)" stroke="#888" stroke-width="0.3"/>
<rect x="234.0" y="483.3" width="13.5" height="13.5" fill="rgb(8,37,32)" stroke="#888" stroke-width="0.3"/>
<rect x="166.5" y="496.8" width="13.5" height="13.5" fill="rgb(73,54,21)" stroke="#888" stroke-width="0.3"/>
<rect x="180.0" y="496.8" width="13.5" height="13.5" fill="rgb(137,103,39)" stroke="#888" stroke-width="0.3"/>
<rect x="193.5" y="496.8" width="13.5" height="13.5" fill="rgb(40,30,11)" stroke="#888" stroke-width="0.3"/>
<rect x="220.5" y="496.8" width="13.5" height="13.5" fill="rgb(8,37,32)" stroke="#888" stroke-width="0.3"/>
<rect x="153.0" y="510.3" width="13.5" height="13.5" fill="rgb(73,54,21)" stroke="#888" stroke-width="0.3"/>
<rect x="166.5" y="510.3" width="13.5" height="13.5" fill="rgb(104,78,30)" stroke="#888" stroke-width="0.3"/>
<rect x="180.0" y="510.3" width="13.5" height="13.5" fill="rgb(40,30,11)" stroke="#888" stroke-width="0.3"/>
<rect x="139.5" y="523.8" width="13.5" height="13.5" fill="rgb(73,54,21)" stroke="#888" stroke-width="0.3"/>
<rect x="153.0" y="523.8" width="13.5" height="13.5" fill="rgb(137,103,39)" stroke="#888" stroke-width="0.3"/>
<rect x="166.5" y="523.8" width="13.5" height="13.5" fill="rgb(40,30,11)" stroke="#888" stroke-width="0.3"/>
<rect x="126.0" y="537.3" width="13.5" height="13.5" fill="rgb(73,54,21)" stroke="#888" stroke-width="0.3"/>
<rect x="139.5" y="537.3" width="13.5" height="13.5" fill="rgb(104,78,30)" stroke="#888" stroke-width="0.3"/>
<rect x="153.0" y="537.3" width="13.5" height="13.5" fill="rgb(40,30,11)" stroke="#888" stroke-width="0.3"/>
<rect x="99.0" y="550.8" width="13.5" height="13.5" fill="rgb(73,54,21)" stroke="#888" stroke-width="0.3"/>
<rect x="112.5" y="550.8" width="13.5" height="13.5" fill="rgb(73,54,21)" stroke="#888" stroke-width="0.3"/>
<rect x="126.0" y="550.8" width="13.5" height="13.5" fill="rgb(137,103,39)" stroke="#888" stroke-width="0.3"/>
<rect x="139.5" y="550.8" width="13.5" height="13.5" fill="rgb(40,30,11)" stroke="#888" stroke-width="0.3"/>
<rect x="99.0" y="564.3" width="13.5" height="13.5" fill="rgb(73,54,21)" stroke="#888" stroke-width="0.3"/>
<rect x="112.5" y="564.3" width="13.5" height="13.5" fill="rgb(137,103,39)" stroke="#888" stroke-width="0.3"/>
<rect x="126.0" y="564.3" width="13.5" height="13.5" fill="rgb(40,30,11)" stroke="#888" stroke-width="0.3"/>
<rect x="112.5" y="577.8" width="13.5" height="13.5" fill="rgb(40,30,11)" stroke="#888" stroke-width="0.3"/>
<rect x="126.0" y="577.8" width="13.5" height="13.5" fill="rgb(40,30,11)" stroke="#888" stroke-width="0.3"/>
<text x="180.0" y="622.8" font-size="10" fill="#333" text-anchor="middle" font-family="sans-serif">Diamond Shovel</text>
<rect x="499.5" y="402.3" width="13.5" height="13.5" fill="rgb(100,100,100)" stroke="#888" stroke-width="0.3"/>
<rect x="513.0" y="402.3" width="13.5" height="13.5" fill="rgb(68,68,68)" stroke="#888" stroke-width="0.3"/>
<rect x="486.0" y="415.8" width="13.5" height="13.5" fill="rgb(100,100,100)" stroke="#888" stroke-width="0.3"/>
<rect x="499.5" y="415.8" width="13.5" height="13.5" fill="rgb(73,54,21)" stroke="#888" stroke-width="0.3"/>
<rect x="513.0" y="415.8" width="13.5" height="13.5" fill="rgb(40,30,11)" stroke="#888" stroke-width="0.3"/>
<rect x="472.5" y="429.3" width="13.5" height="13.5" fill="rgb(68,68,68)" stroke="#888" stroke-width="0.3"/>
<rect x="486.0" y="429.3" width="13.5" height="13.5" fill="rgb(73,54,21)" stroke="#888" stroke-width="0.3"/>
<rect x="499.5" y="429.3" width="13.5" height="13.5" fill="rgb(104,78,30)" stroke="#888" stroke-width="0.3"/>
<rect x="513.0" y="429.3" width="13.5" height="13.5" fill="rgb(40,30,11)" stroke="#888" stroke-width="0.3"/>
<rect x="459.0" y="442.8" width="13.5" height="13.5" fill="rgb(68,68,68)" stroke="#888" stroke-width="0.3"/>
<rect x="472.5" y="442.8" width="13.5" height="13.5" fill="rgb(73,54,21)" stroke="#888" stroke-width="0.3"/>
<rect x="486.0" y="442.8" width="13.5" height="13.5" fill="rgb(137,103,39)" stroke="#888" stroke-width="0.3"/>
<rect x="499.5" y="442.8" width="13.5" height="13.5" fill="rgb(40,30,11)" stroke="#888" stroke-width="0.3"/>
<rect x="513.0" y="442.8" width="13.5" height="13.5" fill="rgb(68,68,68)" stroke="#888" stroke-width="0.3"/>
<rect x="445.5" y="456.3" width="13.5" height="13.5" fill="rgb(68,68,68)" stroke="#888" stroke-width="0.3"/>
<rect x="459.0" y="456.3" width="13.5" height="13.5" fill="rgb(73,54,21)" stroke="#888" stroke-width="0.3"/>
<rect x="472.5" y="456.3" width="13.5" height="13.5" fill="rgb(137,103,39)" stroke="#888" stroke-width="0.3"/>
<rect x="486.0" y="456.3" width="13.5" height="13.5" fill="rgb(40,30,11)" stroke="#888" stroke-width="0.3"/>
<rect x="513.0" y="456.3" width="13.5" height="13.5" fill="rgb(68,68,68)" stroke="#888" stroke-width="0.3"/>
<rect x="432.0" y="469.8" width="13.5" height="13.5" fill="rgb(68,68,68)" stroke="#888" stroke-width="0.3"/>
<rect x="445.5" y="469.8" width="13.5" height="13.5" fill="rgb(73,54,21)" stroke="#888" stroke-width="0.3"/>
<rect x="459.0" y="469.8" width="13.5" height="13.5" fill="rgb(137,103,39)" stroke="#888" stroke-width="0.3"/>
<rect x="472.5" y="469.8" width="13.5" height="13.5" fill="rgb(40,30,11)" stroke="#888" stroke-width="0.3"/>
<rect x="513.0" y="469.8" width="13.5" height="13.5" fill="rgb(100,100,100)" stroke="#888" stroke-width="0.3"/>
<rect x="418.5" y="483.3" width="13.5" height="13.5" fill="rgb(68,68,68)" stroke="#888" stroke-width="0.3"/>
<rect x="432.0" y="483.3" width="13.5" height="13.5" fill="rgb(73,54,21)" stroke="#888" stroke-width="0.3"/>
<rect x="445.5" y="483.3" width="13.5" height="13.5" fill="rgb(137,103,39)" stroke="#888" stroke-width="0.3"/>
<rect x="459.0" y="483.3" width="13.5" height="13.5" fill="rgb(40,30,11)" stroke="#888" stroke-width="0.3"/>
<rect x="513.0" y="483.3" width="13.5" height="13.5" fill="rgb(100,100,100)" stroke="#888" stroke-width="0.3"/>
<rect x="405.0" y="496.8" width="13.5" height="13.5" fill="rgb(68,68,68)" stroke="#888" stroke-width="0.3"/>
<rect x="418.5" y="496.8" width="13.5" height="13.5" fill="rgb(73,54,21)" stroke="#888" stroke-width="0.3"/>
<rect x="432.0" y="496.8" width="13.5" height="13.5" fill="rgb(104,78,30)" stroke="#888" stroke-width="0.3"/>
<rect x="445.5" y="496.8" width="13.5" height="13.5" fill="rgb(40,30,11)" stroke="#888" stroke-width="0.3"/>
<rect x="513.0" y="496.8" width="13.5" height="13.5" fill="rgb(116,116,116)" stroke="#888" stroke-width="0.3"/>
<rect x="391.5" y="510.3" width="13.5" height="13.5" fill="rgb(68,68,68)" stroke="#888" stroke-width="0.3"/>
<rect x="405.0" y="510.3" width="13.5" height="13.5" fill="rgb(73,54,21)" stroke="#888" stroke-width="0.3"/>
<rect x="418.5" y="510.3" width="13.5" height="13.5" fill="rgb(104,78,30)" stroke="#888" stroke-width="0.3"/>
<rect x="432.0" y="510.3" width="13.5" height="13.5" fill="rgb(40,30,11)" stroke="#888" stroke-width="0.3"/>
<rect x="513.0" y="510.3" width="13.5" height="13.5" fill="rgb(100,100,100)" stroke="#888" stroke-width="0.3"/>
<rect x="391.5" y="523.8" width="13.5" height="13.5" fill="rgb(73,54,21)" stroke="#888" stroke-width="0.3"/>
<rect x="405.0" y="523.8" width="13.5" height="13.5" fill="rgb(104,78,30)" stroke="#888" stroke-width="0.3"/>
<rect x="418.5" y="523.8" width="13.5" height="13.5" fill="rgb(40,30,11)" stroke="#888" stroke-width="0.3"/>
<rect x="499.5" y="523.8" width="13.5" height="13.5" fill="rgb(100,100,100)" stroke="#888" stroke-width="0.3"/>
<rect x="378.0" y="537.3" width="13.5" height="13.5" fill="rgb(73,54,21)" stroke="#888" stroke-width="0.3"/>
<rect x="391.5" y="537.3" width="13.5" height="13.5" fill="rgb(104,78,30)" stroke="#888" stroke-width="0.3"/>
<rect x="405.0" y="537.3" width="13.5" height="13.5" fill="rgb(180,179,179)" stroke="#888" stroke-width="0.3"/>
<rect x="418.5" y="537.3" width="13.5" height="13.5" fill="rgb(180,179,179)" stroke="#888" stroke-width="0.3"/>
<rect x="432.0" y="537.3" width="13.5" height="13.5" fill="rgb(53,53,53)" stroke="#888" stroke-width="0.3"/>
<rect x="499.5" y="537.3" width="13.5" height="13.5" fill="rgb(68,68,68)" stroke="#888" stroke-width="0.3"/>
<rect x="364.5" y="550.8" width="13.5" height="13.5" fill="rgb(73,54,21)" stroke="#888" stroke-width="0.3"/>
<rect x="378.0" y="550.8" width="13.5" height="13.5" fill="rgb(73,54,21)" stroke="#888" stroke-width="0.3"/>
<rect x="391.5" y="550.8" width="13.5" height="13.5" fill="rgb(40,30,11)" stroke="#888" stroke-width="0.3"/>
<rect x="405.0" y="550.8" width="13.5" height="13.5" fill="rgb(150,150,150)" stroke="#888" stroke-width="0.3"/>
<rect x="418.5" y="550.8" width="13.5" height="13.5" fill="rgb(180,179,179)" stroke="#888" stroke-width="0.3"/>
<rect x="432.0" y="550.8" width="13.5" height="13.5" fill="rgb(53,53,53)" stroke="#888" stroke-width="0.3"/>
<rect x="486.0" y="550.8" width="13.5" height="13.5" fill="rgb(68,68,68)" stroke="#888" stroke-width="0.3"/>
<rect x="351.0" y="564.3" width="13.5" height="13.5" fill="rgb(73,54,21)" stroke="#888" stroke-width="0.3"/>
<rect x="364.5" y="564.3" width="13.5" height="13.5" fill="rgb(73,54,21)" stroke="#888" stroke-width="0.3"/>
<rect x="378.0" y="564.3" width="13.5" height="13.5" fill="rgb(40,30,11)" stroke="#888" stroke-width="0.3"/>
<rect x="405.0" y="564.3" width="13.5" height="13.5" fill="rgb(53,53,53)" stroke="#888" stroke-width="0.3"/>
<rect x="418.5" y="564.3" width="13.5" height="13.5" fill="rgb(53,53,53)" stroke="#888" stroke-width="0.3"/>
<rect x="459.0" y="564.3" width="13.5" height="13.5" fill="rgb(255,255,255)" stroke="#888" stroke-width="0.3"/>
<rect x="486.0" y="564.3" width="13.5" height="13.5" fill="rgb(255,255,255)" stroke="#888" stroke-width="0.3"/>
<rect x="351.0" y="577.8" width="13.5" height="13.5" fill="rgb(40,30,11)" stroke="#888" stroke-width="0.3"/>
<rect x="364.5" y="577.8" width="13.5" height="13.5" fill="rgb(40,30,11)" stroke="#888" stroke-width="0.3"/>
<rect x="459.0" y="577.8" width="13.5" height="13.5" fill="rgb(150,150,150)" stroke="#888" stroke-width="0.3"/>
<rect x="472.5" y="577.8" width="13.5" height="13.5" fill="rgb(255,255,255)" stroke="#888" stroke-width="0.3"/>
<text x="432.0" y="622.8" font-size="10" fill="#333" text-anchor="middle" font-family="sans-serif">Fishing Rod</text>
</svg>
