<?xml version="1.0" encoding="UTF-8"?>
<svg xmlns="http://www.w3.org/2000/svg" width="8.5in" height="11in" viewBox="0 0 612.0 792.0">
<rect width="100%" height="100%" fill="white"/>
<!-- Pickaxe [2,1] -->
<rect x="103.5" y="193.5" width="78.75" height="78.75" fill="rgb(55,41,16)" stroke="#555" stroke-width="0.5"/>
<rect x="182.25" y="193.5" width="78.75" height="78.75" fill="rgb(55,41,16)" stroke="#555" stroke-width="0.5"/>
<rect x="261.0" y="193.5" width="78.75" height="78.75" fill="rgb(55,41,16)" stroke="#555" stroke-width="0.5"/>
<rect x="339.75" y="193.5" width="78.75" height="78.75" fill="rgb(55,41,16)" stroke="#555" stroke-width="0.5"/>
<rect x="418.5" y="193.5" width="78.75" height="78.75" fill="rgb(55,41,16)" stroke="#555" stroke-width="0.5"/>
<rect x="103.5" y="272.25" width="78.75" height="78.75" fill="rgb(136,102,38)" stroke="#555" stroke-width="0.5"/>
<rect x="182.25" y="272.25" width="78.75" height="78.75" fill="rgb(117,88,33)" stroke="#555" stroke-width="0.5"/>
<rect x="261.0" y="272.25" width="78.75" height="78.75" fill="rgb(106,80,30)" stroke="#555" stroke-width="0.5"/>
<rect x="339.75" y="272.25" width="78.75" height="78.75" fill="rgb(106,80,30)" stroke="#555" stroke-width="0.5"/>
<rect x="418.5" y="272.25" width="78.75" height="78.75" fill="rgb(117,88,33)" stroke="#555" stroke-width="0.5"/>
<rect x="497.25" y="272.25" width="78.75" height="78.75" fill="rgb(55,41,16)" stroke="#555" stroke-width="0.5"/>
<text x="36.0" y="359.0" font-size="6" fill="#333">Pickaxe [2,1]</text>
<!-- Pickaxe [2,2] -->
<rect x="103.5" y="396.0" width="78.75" height="78.75" fill="rgb(55,41,16)" stroke="#555" stroke-width="0.5"/>
<rect x="182.25" y="396.0" width="78.75" height="78.75" fill="rgb(32,24,10)" stroke="#555" stroke-width="0.5"/>
<rect x="261.0" y="396.0" width="78.75" height="78.75" fill="rgb(32,24,10)" stroke="#555" stroke-width="0.5"/>
<rect x="339.75" y="396.0" width="78.75" height="78.75" fill="rgb(32,24,10)" stroke="#555" stroke-width="0.5"/>
<rect x="418.5" y="396.0" width="78.75" height="78.75" fill="rgb(106,80,30)" stroke="#555" stroke-width="0.5"/>
<rect x="497.25" y="396.0" width="78.75" height="78.75" fill="rgb(106,80,30)" stroke="#555" stroke-width="0.5"/>
<rect x="418.5" y="474.75" width="78.75" height="78.75" fill="rgb(73,54,21)" stroke="#555" stroke-width="0.5"/>
<rect x="497.25" y="474.75" width="78.75" height="78.75" fill="rgb(117,88,33)" stroke="#555" stroke-width="0.5"/>
<rect x="339.75" y="553.5" width="78.75" height="78.75" fill="rgb(73,54,21)" stroke="#555" stroke-width="0.5"/>
<rect x="418.5" y="553.5" width="78.75" height="78.75" fill="rgb(106,80,30)" stroke="#555" stroke-width="0.5"/>
<rect x="497.25" y="553.5" width="78.75" height="78.75" fill="rgb(40,30,11)" stroke="#555" stroke-width="0.5"/>
<rect x="261.0" y="632.25" width="78.75" height="78.75" fill="rgb(73,54,21)" stroke="#555" stroke-width="0.5"/>
<rect x="339.75" y="632.25" width="78.75" height="78.75" fill="rgb(136,102,38)" stroke="#555" stroke-width="0.5"/>
<rect x="418.5" y="632.25" width="78.75" height="78.75" fill="rgb(40,30,11)" stroke="#555" stroke-width="0.5"/>
<text x="36.0" y="719.0" font-size="6" fill="#333">Pickaxe [2,2]</text>
<text x="36.0" y="765.0" font-size="8" fill="#999">Pickaxe — 1 sq = 1.094"</text>
</svg>