<?xml version="1.0" encoding="UTF-8"?>
<svg xmlns="http://www.w3.org/2000/svg" width="8.5in" height="11in" viewBox="0 0 612.0 792.0">
<rect width="100%" height="100%" fill="white"/>
<text x="306.0" y="57.6" font-size="16" fill="#333" text-anchor="middle" font-family="sans-serif" font-weight="bold">Prop Reference Sheet</text>
<text x="306.0" y="79.2" font-size="9" fill="#666" text-anchor="middle" font-family="sans-serif">1 pixel = 1.094" at full scale</text>
<rect x="220.5" y="110.0" width="13.5" height="13.5" fill="rgb(130,93,22)" stroke="#888" stroke-width="0.3"/>
<rect x="234.0" y="110.0" width="13.5" height="13.5" fill="rgb(130,93,22)" stroke="#888" stroke-width="0.3"/>
<rect x="247.5" y="110.0" width="13.5" height="13.5" fill="rgb(130,93,22)" stroke="#888" stroke-width="0.3"/>
<rect x="207.0" y="123.5" width="13.5" height="13.5" fill="rgb(130,93,22)" stroke="#888" stroke-width="0.3"/>
<rect x="220.5" y="123.5" width="13.5" height="13.5" fill="rgb(255,255,255)" stroke="#888" stroke-width="0.3"/>
<rect x="234.0" y="123.5" width="13.5" height="13.5" fill="rgb(255,255,255)" stroke="#888" stroke-width="0.3"/>
<rect x="247.5" y="123.5" width="13.5" height="13.5" fill="rgb(63,46,14)" stroke="#888" stroke-width="0.3"/>
<rect x="193.5" y="137.0" width="13.5" height="13.5" fill="rgb(130,93,22)" stroke="#888" stroke-width="0.3"/>
<rect x="207.0" y="137.0" width="13.5" height="13.5" fill="rgb(255,255,255)" stroke="#888" stroke-width="0.3"/>
<rect x="220.5" y="137.0" width="13.5" height="13.5" fill="rgb(234,238,87)" stroke="#888" stroke-width="0.3"/>
<rect x="234.0" y="137.0" width="13.5" height="13.5" fill="rgb(255,255,255)" stroke="#888" stroke-width="0.3"/>
<rect x="247.5" y="137.0" width="13.5" height="13.5" fill="rgb(63,46,14)" stroke="#888" stroke-width="0.3"/>
<rect x="180.0" y="150.5" width="13.5" height="13.5" fill="rgb(130,93,22)" stroke="#888" stroke-width="0.3"/>
<rect x="193.5" y="150.5" width="13.5" height="13.5" fill="rgb(255,255,255)" stroke="#888" stroke-width="0.3"/>
<rect x="207.0" y="150.5" width="13.5" height="13.5" fill="rgb(234,238,87)" stroke="#888" stroke-width="0.3"/>
<rect x="220.5" y="150.5" width="13.5" height="13.5" fill="rgb(255,255,255)" stroke="#888" stroke-width="0.3"/>
<rect x="234.0" y="150.5" width="13.5" height="13.5" fill="rgb(63,46,14)" stroke="#888" stroke-width="0.3"/>
<rect x="166.5" y="164.0" width="13.5" height="13.5" fill="rgb(130,93,22)" stroke="#888" stroke-width="0.3"/>
<rect x="180.0" y="164.0" width="13.5" height="13.5" fill="rgb(255,255,255)" stroke="#888" stroke-width="0.3"/>
<rect x="193.5" y="164.0" width="13.5" height="13.5" fill="rgb(234,238,87)" stroke="#888" stroke-width="0.3"/>
<rect x="207.0" y="164.0" width="13.5" height="13.5" fill="rgb(253,255,118)" stroke="#888" stroke-width="0.3"/>
<rect x="220.5" y="164.0" width="13.5" height="13.5" fill="rgb(63,46,14)" stroke="#888" stroke-width="0.3"/>
<rect x="153.0" y="177.5" width="13.5" height="13.5" fill="rgb(130,93,22)" stroke="#888" stroke-width="0.3"/>
<rect x="166.5" y="177.5" width="13.5" height="13.5" fill="rgb(255,255,255)" stroke="#888" stroke-width="0.3"/>
<rect x="180.0" y="177.5" width="13.5" height="13.5" fill="rgb(234,238,87)" stroke="#888" stroke-width="0.3"/>
<rect x="193.5" y="177.5" width="13.5" height="13.5" fill="rgb(253,255,118)" stroke="#888" stroke-width="0.3"/>
<rect x="207.0" y="177.5" width="13.5" height="13.5" fill="rgb(63,46,14)" stroke="#888" stroke-width="0.3"/>
<rect x="72.0" y="191.0" width="13.5" height="13.5" fill="rgb(130,93,22)" stroke="#888" stroke-width="0.3"/>
<rect x="85.5" y="191.0" width="13.5" height="13.5" fill="rgb(130,93,22)" stroke="#888" stroke-width="0.3"/>
<rect x="139.5" y="191.0" width="13.5" height="13.5" fill="rgb(130,93,22)" stroke="#888" stroke-width="0.3"/>
<rect x="153.0" y="191.0" width="13.5" height="13.5" fill="rgb(253,255,118)" stroke="#888" stroke-width="0.3"/>
<rect x="166.5" y="191.0" width="13.5" height="13.5" fill="rgb(234,238,87)" stroke="#888" stroke-width="0.3"/>
<rect x="180.0" y="191.0" width="13.5" height="13.5" fill="rgb(253,255,118)" stroke="#888" stroke-width="0.3"/>
<rect x="193.5" y="191.0" width="13.5" height="13.5" fill="rgb(63,46,14)" stroke="#888" stroke-width="0.3"/>
<rect x="72.0" y="204.5" width="13.5" height="13.5" fill="rgb(130,93,22)" stroke="#888" stroke-width="0.3"/>
<rect x="85.5" y="204.5" width="13.5" height="13.5" fill="rgb(220,150,19)" stroke="#888" stroke-width="0.3"/>
<rect x="99.0" y="204.5" width="13.5" height="13.5" fill="rgb(130,93,22)" stroke="#888" stroke-width="0.3"/>
<rect x="126.0" y="204.5" width="13.5" height="13.5" fill="rgb(130,93,22)" stroke="#888" stroke-width="0.3"/>
<rect x="139.5" y="204.5" width="13.5" height="13.5" fill="rgb(253,255,118)" stroke="#888" stroke-width="0.3"/>
<rect x="153.0" y="204.5" width="13.5" height="13.5" fill="rgb(234,238,87)" stroke="#888" stroke-width="0.3"/>
<rect x="166.5" y="204.5" width="13.5" height="13.5" fill="rgb(253,255,118)" stroke="#888" stroke-width="0.3"/>
<rect x="180.0" y="204.5" width="13.5" height="13.5" fill="rgb(63,46,14)" stroke="#888" stroke-width="0.3"/>
<rect x="85.5" y="218.0" width="13.5" height="13.5" fill="rgb(130,93,22)" stroke="#888" stroke-width="0.3"/>
<rect x="99.0" y="218.0" width="13.5" height="13.5" fill="rgb(233,177,21)" stroke="#888" stroke-width="0.3"/>
<rect x="112.5" y="218.0" width="13.5" height="13.5" fill="rgb(63,46,14)" stroke="#888" stroke-width="0.3"/>
<rect x="126.0" y="218.0" width="13.5" height="13.5" fill="rgb(253,255,118)" stroke="#888" stroke-width="0.3"/>
<rect x="139.5" y="218.0" width="13.5" height="13.5" fill="rgb(233,177,21)" stroke="#888" stroke-width="0.3"/>
<rect x="153.0" y="218.0" width="13.5" height="13.5" fill="rgb(253,255,118)" stroke="#888" stroke-width="0.3"/>
<rect x="166.5" y="218.0" width="13.5" height="13.5" fill="rgb(63,46,14)" stroke="#888" stroke-width="0.3"/>
<rect x="85.5" y="231.5" width="13.5" height="13.5" fill="rgb(130,93,22)" stroke="#888" stroke-width="0.3"/>
<rect x="99.0" y="231.5" width="13.5" height="13.5" fill="rgb(233,177,21)" stroke="#888" stroke-width="0.3"/>
<rect x="112.5" y="231.5" width="13.5" height="13.5" fill="rgb(233,177,21)" stroke="#888" stroke-width="0.3"/>
<rect x="126.0" y="231.5" width="13.5" height="13.5" fill="rgb(220,150,19)" stroke="#888" stroke-width="0.3"/>
<rect x="139.5" y="231.5" width="13.5" height="13.5" fill="rgb(253,255,118)" stroke="#888" stroke-width="0.3"/>
<rect x="153.0" y="231.5" width="13.5" height="13.5" fill="rgb(63,46,14)" stroke="#888" stroke-width="0.3"/>
<rect x="99.0" y="245.0" width="13.5" height="13.5" fill="rgb(130,93,22)" stroke="#888" stroke-width="0.3"/>
<rect x="112.5" y="245.0" width="13.5" height="13.5" fill="rgb(220,150,19)" stroke="#888" stroke-width="0.3"/>
<rect x="126.0" y="245.0" width="13.5" height="13.5" fill="rgb(130,93,22)" stroke="#888" stroke-width="0.3"/>
<rect x="139.5" y="245.0" width="13.5" height="13.5" fill="rgb(63,46,14)" stroke="#888" stroke-width="0.3"/>
<rect x="85.5" y="258.5" width="13.5" height="13.5" fill="rgb(73,54,21)" stroke="#888" stroke-width="0.3"/>
<rect x="99.0" y="258.5" width="13.5" height="13.5" fill="rgb(104,78,30)" stroke="#888" stroke-width="0.3"/>
<rect x="112.5" y="258.5" width="13.5" height="13.5" fill="rgb(63,46,14)" stroke="#888" stroke-width="0.3"/>
<rect x="126.0" y="258.5" width="13.5" height="13.5" fill="rgb(130,93,22)" stroke="#888" stroke-width="0.3"/>
<rect x="139.5" y="258.5" width="13.5" height="13.5" fill="rgb(130,93,22)" stroke="#888" stroke-width="0.3"/>
<rect x="153.0" y="258.5" width="13.5" height="13.5" fill="rgb(63,46,14)" stroke="#888" stroke-width="0.3"/>
<rect x="72.0" y="272.0" width="13.5" height="13.5" fill="rgb(73,54,21)" stroke="#888" stroke-width="0.3"/>
<rect x="85.5" y="272.0" width="13.5" height="13.5" fill="rgb(137,103,39)" stroke="#888" stroke-width="0.3"/>
<rect x="99.0" y="272.0" width="13.5" height="13.5" fill="rgb(40,30,11)" stroke="#888" stroke-width="0.3"/>
<rect x="126.0" y="272.0" width="13.5" height="13.5" fill="rgb(63,46,14)" stroke="#888" stroke-width="0.3"/>
<rect x="139.5" y="272.0" width="13.5" height="13.5" fill="rgb(63,46,14)" stroke="#888" stroke-width="0.3"/>
<rect x="153.0" y="272.0" width="13.5" height="13.5" fill="rgb(130,93,22)" stroke="#888" stroke-width="0.3"/>
<rect x="166.5" y="272.0" width="13.5" height="13.5" fill="rgb(63,46,14)" stroke="#888" stroke-width="0.3"/>
<rect x="45.0" y="285.5" width="13.5" height="13.5" fill="rgb(130,93,22)" stroke="#888" stroke-width="0.3"/>
<rect x="58.5" y="285.5" width="13.5" height="13.5" fill="rgb(130,93,22)" stroke="#888" stroke-width="0.3"/>
<rect x="72.0" y="285.5" width="13.5" height="13.5" fill="rgb(104,78,30)" stroke="#888" stroke-width="0.3"/>
<rect x="85.5" y="285.5" width="13.5" height="13.5" fill="rgb(40,30,11)" stroke="#888" stroke-width="0.3"/>
<rect x="153.0" y="285.5" width="13.5" height="13.5" fill="rgb(63,46,14)" stroke="#888" stroke-width="0.3"/>
<rect x="166.5" y="285.5" width="13.5" height="13.5" fill="rgb(63,46,14)" stroke="#888" stroke-width="0.3"/>
<rect x="45.0" y="299.0" width="13.5" height="13.5" fill="rgb(130,93,22)" stroke="#888" stroke-width="0.3"/>
<rect x="58.5" y="299.0" width="13.5" height="13.5" fill="rgb(220,150,19)" stroke="#888" stroke-width="0.3"/>
<rect x="72.0" y="299.0" width="13.5" height="13.5" fill="rgb(63,46,14)" stroke="#888" stroke-width="0.3"/>
<rect x="45.0" y="312.5" width="13.5" height="13.5" fill="rgb(63,46,14)" stroke="#888" stroke-width="0.3"/>
<rect x="58.5" y="312.5" width="13.5" height="13.5" fill="rgb(63,46,14)" stroke="#888" stroke-width="0.3"/>
<rect x="72.0" y="312.5" width="13.5" height="13.5" fill="rgb(63,46,14)" stroke="#888" stroke-width="0.3"/>
<text x="153.0" y="351.0" font-size="10" fill="#333" text-anchor="middle" font-family="sans-serif">Gold Sword</text>
<rect x="438.75" y="137.0" width="13.5" height="13.5" fill="rgb(55,41,16)" stroke="#888" stroke-width="0.3"/>
<rect x="452.25" y="137.0" width="13.5" height="13.5" fill="rgb(55,41,16)" stroke="#888" stroke-width="0.3"/>
<rect x="465.75" y="137.0" width="13.5" height="13.5" fill="rgb(55,41,16)" stroke="#888" stroke-width="0.3"/>
<rect x="479.25" y="137.0" width="13.5" height="13.5" fill="rgb(55,41,16)" stroke="#888" stroke-width="0.3"/>
<rect x="492.75" y="137.0" width="13.5" height="13.5" fill="rgb(55,41,16)" stroke="#888" stroke-width="0.3"/>
<rect x="425.25" y="150.5" width="13.5" height="13.5" fill="rgb(55,41,16)" stroke="#888" stroke-width="0.3"/>
<rect x="438.75" y="150.5" width="13.5" height="13.5" fill="rgb(136,102,38)" stroke="#888" stroke-width="0.3"/>
<rect x="452.25" y="150.5" width="13.5" height="13.5" fill="rgb(117,88,33)" stroke="#888" stroke-width="0.3"/>
<rect x="465.75" y="150.5" width="13.5" height="13.5" fill="rgb(106,80,30)" stroke="#888" stroke-width="0.3"/>
<rect x="479.25" y="150.5" width="13.5" height="13.5" fill="rgb(106,80,30)" stroke="#888" stroke-width="0.3"/>
<rect x="492.75" y="150.5" width="13.5" height="13.5" fill="rgb(117,88,33)" stroke="#888" stroke-width="0.3"/>
<rect x="506.25" y="150.5" width="13.5" height="13.5" fill="rgb(55,41,16)" stroke="#888" stroke-width="0.3"/>
<rect x="519.75" y="150.5" width="13.5" height="13.5" fill="rgb(73,54,21)" stroke="#888" stroke-width="0.3"/>
<rect x="533.25" y="150.5" width="13.5" height="13.5" fill="rgb(106,80,30)" stroke="#888" stroke-width="0.3"/>
<rect x="438.75" y="164.0" width="13.5" height="13.5" fill="rgb(55,41,16)" stroke="#888" stroke-width="0.3"/>
<rect x="452.25" y="164.0" width="13.5" height="13.5" fill="rgb(32,24,10)" stroke="#888" stroke-width="0.3"/>
<rect x="465.75" y="164.0" width="13.5" height="13.5" fill="rgb(32,24,10)" stroke="#888" stroke-width="0.3"/>
<rect x="479.25" y="164.0" width="13.5" height="13.5" fill="rgb(32,24,10)" stroke="#888" stroke-width="0.3"/>
<rect x="492.75" y="164.0" width="13.5" height="13.5" fill="rgb(106,80,30)" stroke="#888" stroke-width="0.3"/>
<rect x="506.25" y="164.0" width="13.5" height="13.5" fill="rgb(106,80,30)" stroke="#888" stroke-width="0.3"/>
<rect x="519.75" y="164.0" width="13.5" height="13.5" fill="rgb(136,102,38)" stroke="#888" stroke-width="0.3"/>
<rect x="533.25" y="164.0" width="13.5" height="13.5" fill="rgb(40,30,11)" stroke="#888" stroke-width="0.3"/>
<rect x="492.75" y="177.5" width="13.5" height="13.5" fill="rgb(73,54,21)" stroke="#888" stroke-width="0.3"/>
<rect x="506.25" y="177.5" width="13.5" height="13.5" fill="rgb(117,88,33)" stroke="#888" stroke-width="0.3"/>
<rect x="519.75" y="177.5" width="13.5" height="13.5" fill="rgb(106,80,30)" stroke="#888" stroke-width="0.3"/>
<rect x="533.25" y="177.5" width="13.5" height="13.5" fill="rgb(32,24,10)" stroke="#888" stroke-width="0.3"/>
<rect x="479.25" y="191.0" width="13.5" height="13.5" fill="rgb(73,54,21)" stroke="#888" stroke-width="0.3"/>
<rect x="492.75" y="191.0" width="13.5" height="13.5" fill="rgb(106,80,30)" stroke="#888" stroke-width="0.3"/>
<rect x="506.25" y="191.0" width="13.5" height="13.5" fill="rgb(40,30,11)" stroke="#888" stroke-width="0.3"/>
<rect x="519.75" y="191.0" width="13.5" height="13.5" fill="rgb(106,80,30)" stroke="#888" stroke-width="0.3"/>
<rect x="533.25" y="191.0" width="13.5" height="13.5" fill="rgb(117,88,33)" stroke="#888" stroke-width="0.3"/>
<rect x="546.75" y="191.0" width="13.5" height="13.5" fill="rgb(32,24,10)" stroke="#888" stroke-width="0.3"/>
<rect x="465.75" y="204.5" width="13.5" height="13.5" fill="rgb(73,54,21)" stroke="#888" stroke-width="0.3"/>
<rect x="479.25" y="204.5" width="13.5" height="13.5" fill="rgb(136,102,38)" stroke="#888" stroke-width="0.3"/>
<rect x="492.75" y="204.5" width="13.5" height="13.5" fill="rgb(40,30,11)" stroke="#888" stroke-width="0.3"/>
<rect x="519.75" y="204.5" width="13.5" height="13.5" fill="rgb(32,24,10)" stroke="#888" stroke-width="0.3"/>
<rect x="533.25" y="204.5" width="13.5" height="13.5" fill="rgb(106,80,30)" stroke="#888" stroke-width="0.3"/>
<rect x="546.75" y="204.5" width="13.5" height="13.5" fill="rgb(32,24,10)" stroke="#888" stroke-width="0.3"/>
<rect x="452.25" y="218.0" width="13.5" height="13.5" fill="rgb(73,54,21)" stroke="#888" stroke-width="0.3"/>
<rect x="465.75" y="218.0" width="13.5" height="13.5" fill="rgb(106,80,30)" stroke="#888" stroke-width="0.3"/>
<rect x="479.25" y="218.0" width="13.5" height="13.5" fill="rgb(40,30,11)" stroke="#888" stroke-width="0.3"/>
<rect x="519.75" y="218.0" width="13.5" height="13.5" fill="rgb(32,24,10)" stroke="#888" stroke-width="0.3"/>
<rect x="533.25" y="218.0" width="13.5" height="13.5" fill="rgb(106,80,30)" stroke="#888" stroke-width="0.3"/>
<rect x="546.75" y="218.0" width="13.5" height="13.5" fill="rgb(32,24,10)" stroke="#888" stroke-width="0.3"/>
<rect x="438.75" y="231.5" width="13.5" height="13.5" fill="rgb(73,54,21)" stroke="#888" stroke-width="0.3"/>
<rect x="452.25" y="231.5" width="13.5" height="13.5" fill="rgb(136,102,38)" stroke="#888" stroke-width="0.3"/>
<rect x="465.75" y="231.5" width="13.5" height="13.5" fill="rgb(40,30,11)" stroke="#888" stroke-width="0.3"/>
<rect x="519.75" y="231.5" width="13.5" height="13.5" fill="rgb(32,24,10)" stroke="#888" stroke-width="0.3"/>
<rect x="533.25" y="231.5" width="13.5" height="13.5" fill="rgb(117,88,33)" stroke="#888" stroke-width="0.3"/>
<rect x="546.75" y="231.5" width="13.5" height="13.5" fill="rgb(32,24,10)" stroke="#888" stroke-width="0.3"/>
<rect x="425.25" y="245.0" width="13.5" height="13.5" fill="rgb(73,54,21)" stroke="#888" stroke-width="0.3"/>
<rect x="438.75" y="245.0" width="13.5" height="13.5" fill="rgb(106,80,30)" stroke="#888" stroke-width="0.3"/>
<rect x="452.25" y="245.0" width="13.5" height="13.5" fill="rgb(40,30,11)" stroke="#888" stroke-width="0.3"/>
<rect x="519.75" y="245.0" width="13.5" height="13.5" fill="rgb(32,24,10)" stroke="#888" stroke-width="0.3"/>
<rect x="533.25" y="245.0" width="13.5" height="13.5" fill="rgb(136,102,38)" stroke="#888" stroke-width="0.3"/>
<rect x="546.75" y="245.0" width="13.5" height="13.5" fill="rgb(32,24,10)" stroke="#888" stroke-width="0.3"/>
<rect x="411.75" y="258.5" width="13.5" height="13.5" fill="rgb(73,54,21)" stroke="#888" stroke-width="0.3"/>
<rect x="425.25" y="258.5" width="13.5" height="13.5" fill="rgb(136,102,38)" stroke="#888" stroke-width="0.3"/>
<rect x="438.75" y="258.5" width="13.5" height="13.5" fill="rgb(40,30,11)" stroke="#888" stroke-width="0.3"/>
<rect x="533.25" y="258.5" width="13.5" height="13.5" fill="rgb(32,24,10)" stroke="#888" stroke-width="0.3"/>
<rect x="398.25" y="272.0" width="13.5" height="13.5" fill="rgb(73,54,21)" stroke="#888" stroke-width="0.3"/>
<rect x="411.75" y="272.0" width="13.5" height="13.5" fill="rgb(106,80,30)" stroke="#888" stroke-width="0.3"/>
<rect x="425.25" y="272.0" width="13.5" height="13.5" fill="rgb(40,30,11)" stroke="#888" stroke-width="0.3"/>
<rect x="384.75" y="285.5" width="13.5" height="13.5" fill="rgb(73,54,21)" stroke="#888" stroke-width="0.3"/>
<rect x="398.25" y="285.5" width="13.5" height="13.5" fill="rgb(136,102,38)" stroke="#888" stroke-width="0.3"/>
<rect x="411.75" y="285.5" width="13.5" height="13.5" fill="rgb(40,30,11)" stroke="#888" stroke-width="0.3"/>
<rect x="384.75" y="299.0" width="13.5" height="13.5" fill="rgb(40,30,11)" stroke="#888" stroke-width="0.3"/>
<rect x="398.25" y="299.0" width="13.5" height="13.5" fill="rgb(40,30,11)" stroke="#888" stroke-width="0.3"/>
<text x="459.0" y="337.5" font-size="10" fill="#333" text-anchor="middle" font-family="sans-serif">Wooden Pickaxe</text>
<rect x="227.25" y="469.5" width="13.5" height="13.5" fill="rgb(100,100,100)" stroke="#888" stroke-width="0.3"/>
<rect x="240.75" y="469.5" width="13.5" height="13.5" fill="rgb(68,68,68)" stroke="#888" stroke-width="0.3"/>
<rect x="213.75" y="483.0" width="13.5" height="13.5" fill="rgb(100,100,100)" stroke="#888" stroke-width="0.3"/>
<rect x="227.25" y="483.0" width="13.5" height="13.5" fill="rgb(73,54,21)" stroke="#888" stroke-width="0.3"/>
<rect x="240.75" y="483.0" width="13.5" height="13.5" fill="rgb(40,30,11)" stroke="#888" stroke-width="0.3"/>
<rect x="200.25" y="496.5" width="13.5" height="13.5" fill="rgb(68,68,68)" stroke="#888" stroke-width="0.3"/>
<rect x="213.75" y="496.5" width="13.5" height="13.5" fill="rgb(73,54,21)" stroke="#888" stroke-width="0.3"/>
<rect x="227.25" y="496.5" width="13.5" height="13.5" fill="rgb(104,78,30)" stroke="#888" stroke-width="0.3"/>
<rect x="240.75" y="496.5" width="13.5" height="13.5" fill="rgb(40,30,11)" stroke="#888" stroke-width="0.3"/>
<rect x="186.75" y="510.0" width="13.5" height="13.5" fill="rgb(68,68,68)" stroke="#888" stroke-width="0.3"/>
<rect x="200.25" y="510.0" width="13.5" height="13.5" fill="rgb(73,54,21)" stroke="#888" stroke-width="0.3"/>
<rect x="213.75" y="510.0" width="13.5" height="13.5" fill="rgb(137,103,39)" stroke="#888" stroke-width="0.3"/>
<rect x="227.25" y="510.0" width="13.5" height="13.5" fill="rgb(40,30,11)" stroke="#888" stroke-width="0.3"/>
<rect x="240.75" y="510.0" width="13.5" height="13.5" fill="rgb(68,68,68)" stroke="#888" stroke-width="0.3"/>
<rect x="173.25" y="523.5" width="13.5" height="13.5" fill="rgb(68,68,68)" stroke="#888" stroke-width="0.3"/>
<rect x="186.75" y="523.5" width="13.5" height="13.5" fill="rgb(73,54,21)" stroke="#888" stroke-width="0.3"/>
<rect x="200.25" y="523.5" width="13.5" height="13.5" fill="rgb(137,103,39)" stroke="#888" stroke-width="0.3"/>
<rect x="213.75" y="523.5" width="13.5" height="13.5" fill="rgb(40,30,11)" stroke="#888" stroke-width="0.3"/>
<rect x="240.75" y="523.5" width="13.5" height="13.5" fill="rgb(68,68,68)" stroke="#888" stroke-width="0.3"/>
<rect x="159.75" y="537.0" width="13.5" height="13.5" fill="rgb(68,68,68)" stroke="#888" stroke-width="0.3"/>
<rect x="173.25" y="537.0" width="13.5" height="13.5" fill="rgb(73,54,21)" stroke="#888" stroke-width="0.3"/>
<rect x="186.75" y="537.0" width="13.5" height="13.5" fill="rgb(137,103,39)" stroke="#888" stroke-width="0.3"/>
<rect x="200.25" y="537.0" width="13.5" height="13.5" fill="rgb(40,30,11)" stroke="#888" stroke-width="0.3"/>
<rect x="240.75" y="537.0" width="13.5" height="13.5" fill="rgb(100,100,100)" stroke="#888" stroke-width="0.3"/>
<rect x="146.25" y="550.5" width="13.5" height="13.5" fill="rgb(68,68,68)" stroke="#888" stroke-width="0.3"/>
<rect x="159.75" y="550.5" width="13.5" height="13.5" fill="rgb(73,54,21)" stroke="#888" stroke-width="0.3"/>
<rect x="173.25" y="550.5" width="13.5" height="13.5" fill="rgb(137,103,39)" stroke="#888" stroke-width="0.3"/>
<rect x="186.75" y="550.5" width="13.5" height="13.5" fill="rgb(40,30,11)" stroke="#888" stroke-width="0.3"/>
<rect x="240.75" y="550.5" width="13.5" height="13.5" fill="rgb(100,100,100)" stroke="#888" stroke-width="0.3"/>
<rect x="132.75" y="564.0" width="13.5" height="13.5" fill="rgb(68,68,68)" stroke="#888" stroke-width="0.3"/>
<rect x="146.25" y="564.0" width="13.5" height="13.5" fill="rgb(73,54,21)" stroke="#888" stroke-width="0.3"/>
<rect x="159.75" y="564.0" width="13.5" height="13.5" fill="rgb(104,78,30)" stroke="#888" stroke-width="0.3"/>
<rect x="173.25" y="564.0" width="13.5" height="13.5" fill="rgb(40,30,11)" stroke="#888" stroke-width="0.3"/>
<rect x="240.75" y="564.0" width="13.5" height="13.5" fill="rgb(116,116,116)" stroke="#888" stroke-width="0.3"/>
<rect x="119.25" y="577.5" width="13.5" height="13.5" fill="rgb(68,68,68)" stroke="#888" stroke-width="0.3"/>
<rect x="132.75" y="577.5" width="13.5" height="13.5" fill="rgb(73,54,21)" stroke="#888" stroke-width="0.3"/>
<rect x="146.25" y="577.5" width="13.5" height="13.5" fill="rgb(104,78,30)" stroke="#888" stroke-width="0.3"/>
<rect x="159.75" y="577.5" width="13.5" height="13.5" fill="rgb(40,30,11)" stroke="#888" stroke-width="0.3"/>
<rect x="240.75" y="577.5" width="13.5" height="13.5" fill="rgb(100,100,100)" stroke="#888" stroke-width="0.3"/>
<rect x="119.25" y="591.0" width="13.5" height="13.5" fill="rgb(73,54,21)" stroke="#888" stroke-width="0.3"/>
<rect x="132.75" y="591.0" width="13.5" height="13.5" fill="rgb(104,78,30)" stroke="#888" stroke-width="0.3"/>
<rect x="146.25" y="591.0" width="13.5" height="13.5" fill="rgb(40,30,11)" stroke="#888" stroke-width="0.3"/>
<rect x="227.25" y="591.0" width="13.5" height="13.5" fill="rgb(100,100,100)" stroke="#888" stroke-width="0.3"/>
<rect x="105.75" y="604.5" width="13.5" height="13.5" fill="rgb(73,54,21)" stroke="#888" stroke-width="0.3"/>
<rect x="119.25" y="604.5" width="13.5" height="13.5" fill="rgb(104,78,30)" stroke="#888" stroke-width="0.3"/>
<rect x="132.75" y="604.5" width="13.5" height="13.5" fill="rgb(180,179,179)" stroke="#888" stroke-width="0.3"/>
<rect x="146.25" y="604.5" width="13.5" height="13.5" fill="rgb(180,179,179)" stroke="#888" stroke-width="0.3"/>
<rect x="159.75" y="604.5" width="13.5" height="13.5" fill="rgb(53,53,53)" stroke="#888" stroke-width="0.3"/>
<rect x="227.25" y="604.5" width="13.5" height="13.5" fill="rgb(68,68,68)" stroke="#888" stroke-width="0.3"/>
<rect x="92.25" y="618.0" width="13.5" height="13.5" fill="rgb(73,54,21)" stroke="#888" stroke-width="0.3"/>
<rect x="105.75" y="618.0" width="13.5" height="13.5" fill="rgb(73,54,21)" stroke="#888" stroke-width="0.3"/>
<rect x="119.25" y="618.0" width="13.5" height="13.5" fill="rgb(40,30,11)" stroke="#888" stroke-width="0.3"/>
<rect x="132.75" y="618.0" width="13.5" height="13.5" fill="rgb(150,150,150)" stroke="#888" stroke-width="0.3"/>
<rect x="146.25" y="618.0" width="13.5" height="13.5" fill="rgb(180,179,179)" stroke="#888" stroke-width="0.3"/>
<rect x="159.75" y="618.0" width="13.5" height="13.5" fill="rgb(53,53,53)" stroke="#888" stroke-width="0.3"/>
<rect x="213.75" y="618.0" width="13.5" height="13.5" fill="rgb(68,68,68)" stroke="#888" stroke-width="0.3"/>
<rect x="78.75" y="631.5" width="13.5" height="13.5" fill="rgb(73,54,21)" stroke="#888" stroke-width="0.3"/>
<rect x="92.25" y="631.5" width="13.5" height="13.5" fill="rgb(73,54,21)" stroke="#888" stroke-width="0.3"/>
<rect x="105.75" y="631.5" width="13.5" height="13.5" fill="rgb(40,30,11)" stroke="#888" stroke-width="0.3"/>
<rect x="132.75" y="631.5" width="13.5" height="13.5" fill="rgb(53,53,53)" stroke="#888" stroke-width="0.3"/>
<rect x="146.25" y="631.5" width="13.5" height="13.5" fill="rgb(53,53,53)" stroke="#888" stroke-width="0.3"/>
<rect x="186.75" y="631.5" width="13.5" height="13.5" fill="rgb(255,255,255)" stroke="#888" stroke-width="0.3"/>
<rect x="213.75" y="631.5" width="13.5" height="13.5" fill="rgb(255,255,255)" stroke="#888" stroke-width="0.3"/>
<rect x="78.75" y="645.0" width="13.5" height="13.5" fill="rgb(40,30,11)" stroke="#888" stroke-width="0.3"/>
<rect x="92.25" y="645.0" width="13.5" height="13.5" fill="rgb(40,30,11)" stroke="#888" stroke-width="0.3"/>
<rect x="186.75" y="645.0" width="13.5" height="13.5" fill="rgb(150,150,150)" stroke="#888" stroke-width="0.3"/>
<rect x="200.25" y="645.0" width="13.5" height="13.5" fill="rgb(255,255,255)" stroke="#888" stroke-width="0.3"/>
<text x="153.0" y="683.5" font-size="10" fill="#333" text-anchor="middle" font-family="sans-serif">Fishing Rod</text>
</svg>