<?xml version="1.0" encoding="UTF-8"?>
<svg xmlns="http://www.w3.org/2000/svg" width="8.5in" height="11in" viewBox="0 0 612 792">
<rect width="100%" height="100%" fill="white"/>
<!-- Shovel [1,2] -->
<rect x="486.0" y="216.0" width="90.0" height="90.0" fill="rgb(73,54,21)" stroke="#555" stroke-width="0.5"/>
<rect x="396.0" y="306.0" width="90.0" height="90.0" fill="rgb(73,54,21)" stroke="#555" stroke-width="0.5"/>
<rect x="486.0" y="306.0" width="90.0" height="90.0" fill="rgb(104,78,30)" stroke="#555" stroke-width="0.5"/>
<text x="36.0" y="394.0" font-size="6" fill="#333">Shovel [1,2]</text>
<!-- Shovel [2,2] -->
<rect x="126.0" y="396.0" width="90.0" height="90.0" fill="rgb(73,54,21)" stroke="#555" stroke-width="0.5"/>
<rect x="216.0" y="396.0" width="90.0" height="90.0" fill="rgb(39,178,154)" stroke="#555" stroke-width="0.5"/>
<rect x="306.0" y="396.0" width="90.0" height="90.0" fill="rgb(43,199,172)" stroke="#555" stroke-width="0.5"/>
<rect x="396.0" y="396.0" width="90.0" height="90.0" fill="rgb(51,235,203)" stroke="#555" stroke-width="0.5"/>
<rect x="486.0" y="396.0" width="90.0" height="90.0" fill="rgb(8,37,32)" stroke="#555" stroke-width="0.5"/>
<rect x="36.0" y="486.0" width="90.0" height="90.0" fill="rgb(73,54,21)" stroke="#555" stroke-width="0.5"/>
<rect x="126.0" y="486.0" width="90.0" height="90.0" fill="rgb(137,103,39)" stroke="#555" stroke-width="0.5"/>
<rect x="216.0" y="486.0" width="90.0" height="90.0" fill="rgb(40,30,11)" stroke="#555" stroke-width="0.5"/>
<rect x="306.0" y="486.0" width="90.0" height="90.0" fill="rgb(51,235,203)" stroke="#555" stroke-width="0.5"/>
<rect x="396.0" y="486.0" width="90.0" height="90.0" fill="rgb(8,37,32)" stroke="#555" stroke-width="0.5"/>
<rect x="36.0" y="576.0" width="90.0" height="90.0" fill="rgb(137,103,39)" stroke="#555" stroke-width="0.5"/>
<rect x="126.0" y="576.0" width="90.0" height="90.0" fill="rgb(40,30,11)" stroke="#555" stroke-width="0.5"/>
<rect x="306.0" y="576.0" width="90.0" height="90.0" fill="rgb(8,37,32)" stroke="#555" stroke-width="0.5"/>
<rect x="36.0" y="666.0" width="90.0" height="90.0" fill="rgb(40,30,11)" stroke="#555" stroke-width="0.5"/>
<text x="36.0" y="754.0" font-size="6" fill="#333">Shovel [2,2]</text>
<text x="36" y="781.1999999999999" font-size="8" fill="#999">Shovel — 1 sq = 1.25"</text>
</svg>
