<?xml version="1.0" encoding="UTF-8"?>
<svg xmlns="http://www.w3.org/2000/svg" width="8.5in" height="11in" viewBox="0 0 612.0 792.0">
<rect width="100%" height="100%" fill="white"/>
<!-- Rod [2,1] -->
<rect x="497.25" y="272.25" width="78.75" height="78.75" fill="rgb(68,68,68)" stroke="#555" stroke-width="0.5"/>
<text x="36.0" y="359.0" font-size="6" fill="#333">Rod [2,1]</text>
<!-- Rod [2,2] -->
<rect x="418.5" y="396.0" width="78.75" height="78.75" fill="rgb(68,68,68)" stroke="#555" stroke-width="0.5"/>
<rect x="497.25" y="396.0" width="78.75" height="78.75" fill="rgb(73,54,21)" stroke="#555" stroke-width="0.5"/>
<rect x="339.75" y="474.75" width="78.75" height="78.75" fill="rgb(68,68,68)" stroke="#555" stroke-width="0.5"/>
<rect x="418.5" y="474.75" width="78.75" height="78.75" fill="rgb(73,54,21)" stroke="#555" stroke-width="0.5"/>
<rect x="497.25" y="474.75" width="78.75" height="78.75" fill="rgb(137,103,39)" stroke="#555" stroke-width="0.5"/>
<rect x="261.0" y="553.5" width="78.75" height="78.75" fill="rgb(68,68,68)" stroke="#555" stroke-width="0.5"/>
<rect x="339.75" y="553.5" width="78.75" height="78.75" fill="rgb(73,54,21)" stroke="#555" stroke-width="0.5"/>
<rect x="418.5" y="553.5" width="78.75" height="78.75" fill="rgb(137,103,39)" stroke="#555" stroke-width="0.5"/>
<rect x="497.25" y="553.5" width="78.75" height="78.75" fill="rgb(40,30,11)" stroke="#555" stroke-width="0.5"/>
<rect x="182.25" y="632.25" width="78.75" height="78.75" fill="rgb(68,68,68)" stroke="#555" stroke-width="0.5"/>
<rect x="261.0" y="632.25" width="78.75" height="78.75" fill="rgb(73,54,21)" stroke="#555" stroke-width="0.5"/>
<rect x="339.75" y="632.25" width="78.75" height="78.75" fill="rgb(137,103,39)" stroke="#555" stroke-width="0.5"/>
<rect x="418.5" y="632.25" width="78.75" height="78.75" fill="rgb(40,30,11)" stroke="#555" stroke-width="0.5"/>
<text x="36.0" y="719.0" font-size="6" fill="#333">Rod [2,2]</text>
<text x="36.0" y="765.0" font-size="8" fill="#999">Rod — 1 sq = 1.094"</text>
</svg>