<?xml version="1.0" encoding="UTF-8"?>
<svg xmlns="http://www.w3.org/2000/svg" width="8.5in" height="11in" viewBox="0 0 612 792">
<rect width="100%" height="100%" fill="white"/>
<!-- Pickaxe [1,2] -->
<rect x="486.0" y="216.0" width="90.0" height="90.0" fill="rgb(73,54,21)" stroke="#555" stroke-width="0.5"/>
<rect x="396.0" y="306.0" width="90.0" height="90.0" fill="rgb(73,54,21)" stroke="#555" stroke-width="0.5"/>
<rect x="486.0" y="306.0" width="90.0" height="90.0" fill="rgb(136,102,38)" stroke="#555" stroke-width="0.5"/>
<text x="36.0" y="394.0" font-size="6" fill="#333">Pickaxe [1,2]</text>
<!-- Pickaxe [2,2] -->
<rect x="126.0" y="396.0" width="90.0" height="90.0" fill="rgb(73,54,21)" stroke="#555" stroke-width="0.5"/>
<rect x="216.0" y="396.0" width="90.0" height="90.0" fill="rgb(106,80,30)" stroke="#555" stroke-width="0.5"/>
<rect x="306.0" y="396.0" width="90.0" height="90.0" fill="rgb(40,30,11)" stroke="#555" stroke-width="0.5"/>
<rect x="396.0" y="396.0" width="90.0" height="90.0" fill="rgb(106,80,30)" stroke="#555" stroke-width="0.5"/>
<rect x="486.0" y="396.0" width="90.0" height="90.0" fill="rgb(117,88,33)" stroke="#555" stroke-width="0.5"/>
<rect x="36.0" y="486.0" width="90.0" height="90.0" fill="rgb(73,54,21)" stroke="#555" stroke-width="0.5"/>
<rect x="126.0" y="486.0" width="90.0" height="90.0" fill="rgb(136,102,38)" stroke="#555" stroke-width="0.5"/>
<rect x="216.0" y="486.0" width="90.0" height="90.0" fill="rgb(40,30,11)" stroke="#555" stroke-width="0.5"/>
<rect x="396.0" y="486.0" width="90.0" height="90.0" fill="rgb(32,24,10)" stroke="#555" stroke-width="0.5"/>
<rect x="486.0" y="486.0" width="90.0" height="90.0" fill="rgb(106,80,30)" stroke="#555" stroke-width="0.5"/>
<rect x="36.0" y="576.0" width="90.0" height="90.0" fill="rgb(106,80,30)" stroke="#555" stroke-width="0.5"/>
<rect x="126.0" y="576.0" width="90.0" height="90.0" fill="rgb(40,30,11)" stroke="#555" stroke-width="0.5"/>
<rect x="396.0" y="576.0" width="90.0" height="90.0" fill="rgb(32,24,10)" stroke="#555" stroke-width="0.5"/>
<rect x="486.0" y="576.0" width="90.0" height="90.0" fill="rgb(106,80,30)" stroke="#555" stroke-width="0.5"/>
<rect x="36.0" y="666.0" width="90.0" height="90.0" fill="rgb(40,30,11)" stroke="#555" stroke-width="0.5"/>
<rect x="396.0" y="666.0" width="90.0" height="90.0" fill="rgb(32,24,10)" stroke="#555" stroke-width="0.5"/>
<rect x="486.0" y="666.0" width="90.0" height="90.0" fill="rgb(117,88,33)" stroke="#555" stroke-width="0.5"/>
<text x="36.0" y="754.0" font-size="6" fill="#333">Pickaxe [2,2]</text>
<text x="36" y="781.1999999999999" font-size="8" fill="#999">Pickaxe — 1 sq = 1.25"</text>
</svg>
