<?xml version="1.0" encoding="UTF-8"?>
<svg xmlns="http://www.w3.org/2000/svg" width="8.5in" height="11in" viewBox="0 0 612.0 792.0">
<rect width="100%" height="100%" fill="white"/>

<!-- stick sticker sheet -->
<!-- pixel = 0.2308" = 16.62pt, grid = 216.0pt = 3.0" -->

<text x="306.0" y="36.0" font-size="12" fill="#333" text-anchor="middle" font-family="sans-serif" font-weight="bold">stick — Item Stickers (cut along outline)</text>

<g transform="translate(36.0,56.0)">
  <rect x="0.00" y="182.77" width="16.62" height="16.62" fill="#493615"/>
  <rect x="0.00" y="199.38" width="16.62" height="16.62" fill="#281E0B"/>
  <rect x="16.62" y="166.15" width="16.62" height="16.62" fill="#493615"/>
  <rect x="16.62" y="182.77" width="16.62" height="16.62" fill="#896727"/>
  <rect x="16.62" y="199.38" width="16.62" height="16.62" fill="#281E0B"/>
  <rect x="33.23" y="149.54" width="16.62" height="16.62" fill="#493615"/>
  <rect x="33.23" y="166.15" width="16.62" height="16.62" fill="#896727"/>
  <rect x="33.23" y="182.77" width="16.62" height="16.62" fill="#281E0B"/>
  <rect x="49.85" y="132.92" width="16.62" height="16.62" fill="#493615"/>
  <rect x="49.85" y="149.54" width="16.62" height="16.62" fill="#684E1E"/>
  <rect x="49.85" y="166.15" width="16.62" height="16.62" fill="#281E0B"/>
  <rect x="66.46" y="116.31" width="16.62" height="16.62" fill="#493615"/>
  <rect x="66.46" y="132.92" width="16.62" height="16.62" fill="#896727"/>
  <rect x="66.46" y="149.54" width="16.62" height="16.62" fill="#281E0B"/>
  <rect x="83.08" y="99.69" width="16.62" height="16.62" fill="#493615"/>
  <rect x="83.08" y="116.31" width="16.62" height="16.62" fill="#684E1E"/>
  <rect x="83.08" y="132.92" width="16.62" height="16.62" fill="#281E0B"/>
  <rect x="99.69" y="83.08" width="16.62" height="16.62" fill="#493615"/>
  <rect x="99.69" y="99.69" width="16.62" height="16.62" fill="#896727"/>
  <rect x="99.69" y="116.31" width="16.62" height="16.62" fill="#281E0B"/>
  <rect x="116.31" y="66.46" width="16.62" height="16.62" fill="#493615"/>
  <rect x="116.31" y="83.08" width="16.62" height="16.62" fill="#684E1E"/>
  <rect x="116.31" y="99.69" width="16.62" height="16.62" fill="#281E0B"/>
  <rect x="132.92" y="49.85" width="16.62" height="16.62" fill="#493615"/>
  <rect x="132.92" y="66.46" width="16.62" height="16.62" fill="#896727"/>
  <rect x="132.92" y="83.08" width="16.62" height="16.62" fill="#281E0B"/>
  <rect x="149.54" y="33.23" width="16.62" height="16.62" fill="#493615"/>
  <rect x="149.54" y="49.85" width="16.62" height="16.62" fill="#684E1E"/>
  <rect x="149.54" y="66.46" width="16.62" height="16.62" fill="#281E0B"/>
  <rect x="166.15" y="16.62" width="16.62" height="16.62" fill="#493615"/>
  <rect x="166.15" y="33.23" width="16.62" height="16.62" fill="#896727"/>
  <rect x="166.15" y="49.85" width="16.62" height="16.62" fill="#281E0B"/>
  <rect x="182.77" y="0.00" width="16.62" height="16.62" fill="#493615"/>
  <rect x="182.77" y="16.62" width="16.62" height="16.62" fill="#896727"/>
  <rect x="182.77" y="33.23" width="16.62" height="16.62" fill="#281E0B"/>
  <rect x="199.38" y="0.00" width="16.62" height="16.62" fill="#281E0B"/>
  <rect x="199.38" y="16.62" width="16.62" height="16.62" fill="#281E0B"/>
  <line x1="0.00" y1="182.77" x2="16.62" y2="182.77" stroke="#333" stroke-width="0.75"/>
  <line x1="0.00" y1="182.77" x2="0.00" y2="199.38" stroke="#333" stroke-width="0.75"/>
  <line x1="0.00" y1="216.00" x2="16.62" y2="216.00" stroke="#333" stroke-width="0.75"/>
  <line x1="0.00" y1="199.38" x2="0.00" y2="216.00" stroke="#333" stroke-width="0.75"/>
  <line x1="16.62" y1="166.15" x2="33.23" y2="166.15" stroke="#333" stroke-width="0.75"/>
  <line x1="16.62" y1="166.15" x2="16.62" y2="182.77" stroke="#333" stroke-width="0.75"/>
  <line x1="16.62" y1="216.00" x2="33.23" y2="216.00" stroke="#333" stroke-width="0.75"/>
  <line x1="33.23" y1="199.38" x2="33.23" y2="216.00" stroke="#333" stroke-width="0.75"/>
  <line x1="33.23" y1="149.54" x2="49.85" y2="149.54" stroke="#333" stroke-width="0.75"/>
  <line x1="33.23" y1="149.54" x2="33.23" y2="166.15" stroke="#333" stroke-width="0.75"/>
  <line x1="33.23" y1="199.38" x2="49.85" y2="199.38" stroke="#333" stroke-width="0.75"/>
  <line x1="49.85" y1="182.77" x2="49.85" y2="199.38" stroke="#333" stroke-width="0.75"/>
  <line x1="49.85" y1="132.92" x2="66.46" y2="132.92" stroke="#333" stroke-width="0.75"/>
  <line x1="49.85" y1="132.92" x2="49.85" y2="149.54" stroke="#333" stroke-width="0.75"/>
  <line x1="49.85" y1="182.77" x2="66.46" y2="182.77" stroke="#333" stroke-width="0.75"/>
  <line x1="66.46" y1="166.15" x2="66.46" y2="182.77" stroke="#333" stroke-width="0.75"/>
  <line x1="66.46" y1="116.31" x2="83.08" y2="116.31" stroke="#333" stroke-width="0.75"/>
  <line x1="66.46" y1="116.31" x2="66.46" y2="132.92" stroke="#333" stroke-width="0.75"/>
  <line x1="66.46" y1="166.15" x2="83.08" y2="166.15" stroke="#333" stroke-width="0.75"/>
  <line x1="83.08" y1="149.54" x2="83.08" y2="166.15" stroke="#333" stroke-width="0.75"/>
  <line x1="83.08" y1="99.69" x2="99.69" y2="99.69" stroke="#333" stroke-width="0.75"/>
  <line x1="83.08" y1="99.69" x2="83.08" y2="116.31" stroke="#333" stroke-width="0.75"/>
  <line x1="83.08" y1="149.54" x2="99.69" y2="149.54" stroke="#333" stroke-width="0.75"/>
  <line x1="99.69" y1="132.92" x2="99.69" y2="149.54" stroke="#333" stroke-width="0.75"/>
  <line x1="99.69" y1="83.08" x2="116.31" y2="83.08" stroke="#333" stroke-width="0.75"/>
  <line x1="99.69" y1="83.08" x2="99.69" y2="99.69" stroke="#333" stroke-width="0.75"/>
  <line x1="99.69" y1="132.92" x2="116.31" y2="132.92" stroke="#333" stroke-width="0.75"/>
  <line x1="116.31" y1="116.31" x2="116.31" y2="132.92" stroke="#333" stroke-width="0.75"/>
  <line x1="116.31" y1="66.46" x2="132.92" y2="66.46" stroke="#333" stroke-width="0.75"/>
  <line x1="116.31" y1="66.46" x2="116.31" y2="83.08" stroke="#333" stroke-width="0.75"/>
  <line x1="116.31" y1="116.31" x2="132.92" y2="116.31" stroke="#333" stroke-width="0.75"/>
  <line x1="132.92" y1="99.69" x2="132.92" y2="116.31" stroke="#333" stroke-width="0.75"/>
  <line x1="132.92" y1="49.85" x2="149.54" y2="49.85" stroke="#333" stroke-width="0.75"/>
  <line x1="132.92" y1="49.85" x2="132.92" y2="66.46" stroke="#333" stroke-width="0.75"/>
  <line x1="132.92" y1="99.69" x2="149.54" y2="99.69" stroke="#333" stroke-width="0.75"/>
  <line x1="149.54" y1="83.08" x2="149.54" y2="99.69" stroke="#333" stroke-width="0.75"/>
  <line x1="149.54" y1="33.23" x2="166.15" y2="33.23" stroke="#333" stroke-width="0.75"/>
  <line x1="149.54" y1="33.23" x2="149.54" y2="49.85" stroke="#333" stroke-width="0.75"/>
  <line x1="149.54" y1="83.08" x2="166.15" y2="83.08" stroke="#333" stroke-width="0.75"/>
  <line x1="166.15" y1="66.46" x2="166.15" y2="83.08" stroke="#333" stroke-width="0.75"/>
  <line x1="166.15" y1="16.62" x2="182.77" y2="16.62" stroke="#333" stroke-width="0.75"/>
  <line x1="166.15" y1="16.62" x2="166.15" y2="33.23" stroke="#333" stroke-width="0.75"/>
  <line x1="166.15" y1="66.46" x2="182.77" y2="66.46" stroke="#333" stroke-width="0.75"/>
  <line x1="182.77" y1="49.85" x2="182.77" y2="66.46" stroke="#333" stroke-width="0.75"/>
  <line x1="182.77" y1="0.00" x2="199.38" y2="0.00" stroke="#333" stroke-width="0.75"/>
  <line x1="182.77" y1="0.00" x2="182.77" y2="16.62" stroke="#333" stroke-width="0.75"/>
  <line x1="182.77" y1="49.85" x2="199.38" y2="49.85" stroke="#333" stroke-width="0.75"/>
  <line x1="199.38" y1="33.23" x2="199.38" y2="49.85" stroke="#333" stroke-width="0.75"/>
  <line x1="199.38" y1="0.00" x2="216.00" y2="0.00" stroke="#333" stroke-width="0.75"/>
  <line x1="216.00" y1="0.00" x2="216.00" y2="16.62" stroke="#333" stroke-width="0.75"/>
  <line x1="199.38" y1="33.23" x2="216.00" y2="33.23" stroke="#333" stroke-width="0.75"/>
  <line x1="216.00" y1="16.62" x2="216.00" y2="33.23" stroke="#333" stroke-width="0.75"/>
</g>

<g transform="translate(270.0,56.0)">
  <rect x="0.00" y="182.77" width="16.62" height="16.62" fill="#493615"/>
  <rect x="0.00" y="199.38" width="16.62" height="16.62" fill="#281E0B"/>
  <rect x="16.62" y="166.15" width="16.62" height="16.62" fill="#493615"/>
  <rect x="16.62" y="182.77" width="16.62" height="16.62" fill="#896727"/>
  <rect x="16.62" y="199.38" width="16.62" height="16.62" fill="#281E0B"/>
  <rect x="33.23" y="149.54" width="16.62" height="16.62" fill="#493615"/>
  <rect x="33.23" y="166.15" width="16.62" height="16.62" fill="#896727"/>
  <rect x="33.23" y="182.77" width="16.62" height="16.62" fill="#281E0B"/>
  <rect x="49.85" y="132.92" width="16.62" height="16.62" fill="#493615"/>
  <rect x="49.85" y="149.54" width="16.62" height="16.62" fill="#684E1E"/>
  <rect x="49.85" y="166.15" width="16.62" height="16.62" fill="#281E0B"/>
  <rect x="66.46" y="116.31" width="16.62" height="16.62" fill="#493615"/>
  <rect x="66.46" y="132.92" width="16.62" height="16.62" fill="#896727"/>
  <rect x="66.46" y="149.54" width="16.62" height="16.62" fill="#281E0B"/>
  <rect x="83.08" y="99.69" width="16.62" height="16.62" fill="#493615"/>
  <rect x="83.08" y="116.31" width="16.62" height="16.62" fill="#684E1E"/>
  <rect x="83.08" y="132.92" width="16.62" height="16.62" fill="#281E0B"/>
  <rect x="99.69" y="83.08" width="16.62" height="16.62" fill="#493615"/>
  <rect x="99.69" y="99.69" width="16.62" height="16.62" fill="#896727"/>
  <rect x="99.69" y="116.31" width="16.62" height="16.62" fill="#281E0B"/>
  <rect x="116.31" y="66.46" width="16.62" height="16.62" fill="#493615"/>
  <rect x="116.31" y="83.08" width="16.62" height="16.62" fill="#684E1E"/>
  <rect x="116.31" y="99.69" width="16.62" height="16.62" fill="#281E0B"/>
  <rect x="132.92" y="49.85" width="16.62" height="16.62" fill="#493615"/>
  <rect x="132.92" y="66.46" width="16.62" height="16.62" fill="#896727"/>
  <rect x="132.92" y="83.08" width="16.62" height="16.62" fill="#281E0B"/>
  <rect x="149.54" y="33.23" width="16.62" height="16.62" fill="#493615"/>
  <rect x="149.54" y="49.85" width="16.62" height="16.62" fill="#684E1E"/>
  <rect x="149.54" y="66.46" width="16.62" height="16.62" fill="#281E0B"/>
  <rect x="166.15" y="16.62" width="16.62" height="16.62" fill="#493615"/>
  <rect x="166.15" y="33.23" width="16.62" height="16.62" fill="#896727"/>
  <rect x="166.15" y="49.85" width="16.62" height="16.62" fill="#281E0B"/>
  <rect x="182.77" y="0.00" width="16.62" height="16.62" fill="#493615"/>
  <rect x="182.77" y="16.62" width="16.62" height="16.62" fill="#896727"/>
  <rect x="182.77" y="33.23" width="16.62" height="16.62" fill="#281E0B"/>
  <rect x="199.38" y="0.00" width="16.62" height="16.62" fill="#281E0B"/>
  <rect x="199.38" y="16.62" width="16.62" height="16.62" fill="#281E0B"/>
  <line x1="0.00" y1="182.77" x2="16.62" y2="182.77" stroke="#333" stroke-width="0.75"/>
  <line x1="0.00" y1="182.77" x2="0.00" y2="199.38" stroke="#333" stroke-width="0.75"/>
  <line x1="0.00" y1="216.00" x2="16.62" y2="216.00" stroke="#333" stroke-width="0.75"/>
  <line x1="0.00" y1="199.38" x2="0.00" y2="216.00" stroke="#333" stroke-width="0.75"/>
  <line x1="16.62" y1="166.15" x2="33.23" y2="166.15" stroke="#333" stroke-width="0.75"/>
  <line x1="16.62" y1="166.15" x2="16.62" y2="182.77" stroke="#333" stroke-width="0.75"/>
  <line x1="16.62" y1="216.00" x2="33.23" y2="216.00" stroke="#333" stroke-width="0.75"/>
  <line x1="33.23" y1="199.38" x2="33.23" y2="216.00" stroke="#333" stroke-width="0.75"/>
  <line x1="33.23" y1="149.54" x2="49.85" y2="149.54" stroke="#333" stroke-width="0.75"/>
  <line x1="33.23" y1="149.54" x2="33.23" y2="166.15" stroke="#333" stroke-width="0.75"/>
  <line x1="33.23" y1="199.38" x2="49.85" y2="199.38" stroke="#333" stroke-width="0.75"/>
  <line x1="49.85" y1="182.77" x2="49.85" y2="199.38" stroke="#333" stroke-width="0.75"/>
  <line x1="49.85" y1="132.92" x2="66.46" y2="132.92" stroke="#333" stroke-width="0.75"/>
  <line x1="49.85" y1="132.92" x2="49.85" y2="149.54" stroke="#333" stroke-width="0.75"/>
  <line x1="49.85" y1="182.77" x2="66.46" y2="182.77" stroke="#333" stroke-width="0.75"/>
  <line x1="66.46" y1="166.15" x2="66.46" y2="182.77" stroke="#333" stroke-width="0.75"/>
  <line x1="66.46" y1="116.31" x2="83.08" y2="116.31" stroke="#333" stroke-width="0.75"/>
  <line x1="66.46" y1="116.31" x2="66.46" y2="132.92" stroke="#333" stroke-width="0.75"/>
  <line x1="66.46" y1="166.15" x2="83.08" y2="166.15" stroke="#333" stroke-width="0.75"/>
  <line x1="83.08" y1="149.54" x2="83.08" y2="166.15" stroke="#333" stroke-width="0.75"/>
  <line x1="83.08" y1="99.69" x2="99.69" y2="99.69" stroke="#333" stroke-width="0.75"/>
  <line x1="83.08" y1="99.69" x2="83.08" y2="116.31" stroke="#333" stroke-width="0.75"/>
  <line x1="83.08" y1="149.54" x2="99.69" y2="149.54" stroke="#333" stroke-width="0.75"/>
  <line x1="99.69" y1="132.92" x2="99.69" y2="149.54" stroke="#333" stroke-width="0.75"/>
  <line x1="99.69" y1="83.08" x2="116.31" y2="83.08" stroke="#333" stroke-width="0.75"/>
  <line x1="99.69" y1="83.08" x2="99.69" y2="99.69" stroke="#333" stroke-width="0.75"/>
  <line x1="99.69" y1="132.92" x2="116.31" y2="132.92" stroke="#333" stroke-width="0.75"/>
  <line x1="116.31" y1="116.31" x2="116.31" y2="132.92" stroke="#333" stroke-width="0.75"/>
  <line x1="116.31" y1="66.46" x2="132.92" y2="66.46" stroke="#333" stroke-width="0.75"/>
  <line x1="116.31" y1="66.46" x2="116.31" y2="83.08" stroke="#333" stroke-width="0.75"/>
  <line x1="116.31" y1="116.31" x2="132.92" y2="116.31" stroke="#333" stroke-width="0.75"/>
  <line x1="132.92" y1="99.69" x2="132.92" y2="116.31" stroke="#333" stroke-width="0.75"/>
  <line x1="132.92" y1="49.85" x2="149.54" y2="49.85" stroke="#333" stroke-width="0.75"/>
  <line x1="132.92" y1="49.85" x2="132.92" y2="66.46" stroke="#333" stroke-width="0.75"/>
  <line x1="132.92" y1="99.69" x2="149.54" y2="99.69" stroke="#333" stroke-width="0.75"/>
  <line x1="149.54" y1="83.08" x2="149.54" y2="99.69" stroke="#333" stroke-width="0.75"/>
  <line x1="149.54" y1="33.23" x2="166.15" y2="33.23" stroke="#333" stroke-width="0.75"/>
  <line x1="149.54" y1="33.23" x2="149.54" y2="49.85" stroke="#333" stroke-width="0.75"/>
  <line x1="149.54" y1="83.08" x2="166.15" y2="83.08" stroke="#333" stroke-width="0.75"/>
  <line x1="166.15" y1="66.46" x2="166.15" y2="83.08" stroke="#333" stroke-width="0.75"/>
  <line x1="166.15" y1="16.62" x2="182.77" y2="16.62" stroke="#333" stroke-width="0.75"/>
  <line x1="166.15" y1="16.62" x2="166.15" y2="33.23" stroke="#333" stroke-width="0.75"/>
  <line x1="166.15" y1="66.46" x2="182.77" y2="66.46" stroke="#333" stroke-width="0.75"/>
  <line x1="182.77" y1="49.85" x2="182.77" y2="66.46" stroke="#333" stroke-width="0.75"/>
  <line x1="182.77" y1="0.00" x2="199.38" y2="0.00" stroke="#333" stroke-width="0.75"/>
  <line x1="182.77" y1="0.00" x2="182.77" y2="16.62" stroke="#333" stroke-width="0.75"/>
  <line x1="182.77" y1="49.85" x2="199.38" y2="49.85" stroke="#333" stroke-width="0.75"/>
  <line x1="199.38" y1="33.23" x2="199.38" y2="49.85" stroke="#333" stroke-width="0.75"/>
  <line x1="199.38" y1="0.00" x2="216.00" y2="0.00" stroke="#333" stroke-width="0.75"/>
  <line x1="216.00" y1="0.00" x2="216.00" y2="16.62" stroke="#333" stroke-width="0.75"/>
  <line x1="199.38" y1="33.23" x2="216.00" y2="33.23" stroke="#333" stroke-width="0.75"/>
  <line x1="216.00" y1="16.62" x2="216.00" y2="33.23" stroke="#333" stroke-width="0.75"/>
</g>

<g transform="translate(36.0,290.0)">
  <rect x="0.00" y="182.77" width="16.62" height="16.62" fill="#493615"/>
  <rect x="0.00" y="199.38" width="16.62" height="16.62" fill="#281E0B"/>
  <rect x="16.62" y="166.15" width="16.62" height="16.62" fill="#493615"/>
  <rect x="16.62" y="182.77" width="16.62" height="16.62" fill="#896727"/>
  <rect x="16.62" y="199.38" width="16.62" height="16.62" fill="#281E0B"/>
  <rect x="33.23" y="149.54" width="16.62" height="16.62" fill="#493615"/>
  <rect x="33.23" y="166.15" width="16.62" height="16.62" fill="#896727"/>
  <rect x="33.23" y="182.77" width="16.62" height="16.62" fill="#281E0B"/>
  <rect x="49.85" y="132.92" width="16.62" height="16.62" fill="#493615"/>
  <rect x="49.85" y="149.54" width="16.62" height="16.62" fill="#684E1E"/>
  <rect x="49.85" y="166.15" width="16.62" height="16.62" fill="#281E0B"/>
  <rect x="66.46" y="116.31" width="16.62" height="16.62" fill="#493615"/>
  <rect x="66.46" y="132.92" width="16.62" height="16.62" fill="#896727"/>
  <rect x="66.46" y="149.54" width="16.62" height="16.62" fill="#281E0B"/>
  <rect x="83.08" y="99.69" width="16.62" height="16.62" fill="#493615"/>
  <rect x="83.08" y="116.31" width="16.62" height="16.62" fill="#684E1E"/>
  <rect x="83.08" y="132.92" width="16.62" height="16.62" fill="#281E0B"/>
  <rect x="99.69" y="83.08" width="16.62" height="16.62" fill="#493615"/>
  <rect x="99.69" y="99.69" width="16.62" height="16.62" fill="#896727"/>
  <rect x="99.69" y="116.31" width="16.62" height="16.62" fill="#281E0B"/>
  <rect x="116.31" y="66.46" width="16.62" height="16.62" fill="#493615"/>
  <rect x="116.31" y="83.08" width="16.62" height="16.62" fill="#684E1E"/>
  <rect x="116.31" y="99.69" width="16.62" height="16.62" fill="#281E0B"/>
  <rect x="132.92" y="49.85" width="16.62" height="16.62" fill="#493615"/>
  <rect x="132.92" y="66.46" width="16.62" height="16.62" fill="#896727"/>
  <rect x="132.92" y="83.08" width="16.62" height="16.62" fill="#281E0B"/>
  <rect x="149.54" y="33.23" width="16.62" height="16.62" fill="#493615"/>
  <rect x="149.54" y="49.85" width="16.62" height="16.62" fill="#684E1E"/>
  <rect x="149.54" y="66.46" width="16.62" height="16.62" fill="#281E0B"/>
  <rect x="166.15" y="16.62" width="16.62" height="16.62" fill="#493615"/>
  <rect x="166.15" y="33.23" width="16.62" height="16.62" fill="#896727"/>
  <rect x="166.15" y="49.85" width="16.62" height="16.62" fill="#281E0B"/>
  <rect x="182.77" y="0.00" width="16.62" height="16.62" fill="#493615"/>
  <rect x="182.77" y="16.62" width="16.62" height="16.62" fill="#896727"/>
  <rect x="182.77" y="33.23" width="16.62" height="16.62" fill="#281E0B"/>
  <rect x="199.38" y="0.00" width="16.62" height="16.62" fill="#281E0B"/>
  <rect x="199.38" y="16.62" width="16.62" height="16.62" fill="#281E0B"/>
  <line x1="0.00" y1="182.77" x2="16.62" y2="182.77" stroke="#333" stroke-width="0.75"/>
  <line x1="0.00" y1="182.77" x2="0.00" y2="199.38" stroke="#333" stroke-width="0.75"/>
  <line x1="0.00" y1="216.00" x2="16.62" y2="216.00" stroke="#333" stroke-width="0.75"/>
  <line x1="0.00" y1="199.38" x2="0.00" y2="216.00" stroke="#333" stroke-width="0.75"/>
  <line x1="16.62" y1="166.15" x2="33.23" y2="166.15" stroke="#333" stroke-width="0.75"/>
  <line x1="16.62" y1="166.15" x2="16.62" y2="182.77" stroke="#333" stroke-width="0.75"/>
  <line x1="16.62" y1="216.00" x2="33.23" y2="216.00" stroke="#333" stroke-width="0.75"/>
  <line x1="33.23" y1="199.38" x2="33.23" y2="216.00" stroke="#333" stroke-width="0.75"/>
  <line x1="33.23" y1="149.54" x2="49.85" y2="149.54" stroke="#333" stroke-width="0.75"/>
  <line x1="33.23" y1="149.54" x2="33.23" y2="166.15" stroke="#333" stroke-width="0.75"/>
  <line x1="33.23" y1="199.38" x2="49.85" y2="199.38" stroke="#333" stroke-width="0.75"/>
  <line x1="49.85" y1="182.77" x2="49.85" y2="199.38" stroke="#333" stroke-width="0.75"/>
  <line x1="49.85" y1="132.92" x2="66.46" y2="132.92" stroke="#333" stroke-width="0.75"/>
  <line x1="49.85" y1="132.92" x2="49.85" y2="149.54" stroke="#333" stroke-width="0.75"/>
  <line x1="49.85" y1="182.77" x2="66.46" y2="182.77" stroke="#333" stroke-width="0.75"/>
  <line x1="66.46" y1="166.15" x2="66.46" y2="182.77" stroke="#333" stroke-width="0.75"/>
  <line x1="66.46" y1="116.31" x2="83.08" y2="116.31" stroke="#333" stroke-width="0.75"/>
  <line x1="66.46" y1="116.31" x2="66.46" y2="132.92" stroke="#333" stroke-width="0.75"/>
  <line x1="66.46" y1="166.15" x2="83.08" y2="166.15" stroke="#333" stroke-width="0.75"/>
  <line x1="83.08" y1="149.54" x2="83.08" y2="166.15" stroke="#333" stroke-width="0.75"/>
  <line x1="83.08" y1="99.69" x2="99.69" y2="99.69" stroke="#333" stroke-width="0.75"/>
  <line x1="83.08" y1="99.69" x2="83.08" y2="116.31" stroke="#333" stroke-width="0.75"/>
  <line x1="83.08" y1="149.54" x2="99.69" y2="149.54" stroke="#333" stroke-width="0.75"/>
  <line x1="99.69" y1="132.92" x2="99.69" y2="149.54" stroke="#333" stroke-width="0.75"/>
  <line x1="99.69" y1="83.08" x2="116.31" y2="83.08" stroke="#333" stroke-width="0.75"/>
  <line x1="99.69" y1="83.08" x2="99.69" y2="99.69" stroke="#333" stroke-width="0.75"/>
  <line x1="99.69" y1="132.92" x2="116.31" y2="132.92" stroke="#333" stroke-width="0.75"/>
  <line x1="116.31" y1="116.31" x2="116.31" y2="132.92" stroke="#333" stroke-width="0.75"/>
  <line x1="116.31" y1="66.46" x2="132.92" y2="66.46" stroke="#333" stroke-width="0.75"/>
  <line x1="116.31" y1="66.46" x2="116.31" y2="83.08" stroke="#333" stroke-width="0.75"/>
  <line x1="116.31" y1="116.31" x2="132.92" y2="116.31" stroke="#333" stroke-width="0.75"/>
  <line x1="132.92" y1="99.69" x2="132.92" y2="116.31" stroke="#333" stroke-width="0.75"/>
  <line x1="132.92" y1="49.85" x2="149.54" y2="49.85" stroke="#333" stroke-width="0.75"/>
  <line x1="132.92" y1="49.85" x2="132.92" y2="66.46" stroke="#333" stroke-width="0.75"/>
  <line x1="132.92" y1="99.69" x2="149.54" y2="99.69" stroke="#333" stroke-width="0.75"/>
  <line x1="149.54" y1="83.08" x2="149.54" y2="99.69" stroke="#333" stroke-width="0.75"/>
  <line x1="149.54" y1="33.23" x2="166.15" y2="33.23" stroke="#333" stroke-width="0.75"/>
  <line x1="149.54" y1="33.23" x2="149.54" y2="49.85" stroke="#333" stroke-width="0.75"/>
  <line x1="149.54" y1="83.08" x2="166.15" y2="83.08" stroke="#333" stroke-width="0.75"/>
  <line x1="166.15" y1="66.46" x2="166.15" y2="83.08" stroke="#333" stroke-width="0.75"/>
  <line x1="166.15" y1="16.62" x2="182.77" y2="16.62" stroke="#333" stroke-width="0.75"/>
  <line x1="166.15" y1="16.62" x2="166.15" y2="33.23" stroke="#333" stroke-width="0.75"/>
  <line x1="166.15" y1="66.46" x2="182.77" y2="66.46" stroke="#333" stroke-width="0.75"/>
  <line x1="182.77" y1="49.85" x2="182.77" y2="66.46" stroke="#333" stroke-width="0.75"/>
  <line x1="182.77" y1="0.00" x2="199.38" y2="0.00" stroke="#333" stroke-width="0.75"/>
  <line x1="182.77" y1="0.00" x2="182.77" y2="16.62" stroke="#333" stroke-width="0.75"/>
  <line x1="182.77" y1="49.85" x2="199.38" y2="49.85" stroke="#333" stroke-width="0.75"/>
  <line x1="199.38" y1="33.23" x2="199.38" y2="49.85" stroke="#333" stroke-width="0.75"/>
  <line x1="199.38" y1="0.00" x2="216.00" y2="0.00" stroke="#333" stroke-width="0.75"/>
  <line x1="216.00" y1="0.00" x2="216.00" y2="16.62" stroke="#333" stroke-width="0.75"/>
  <line x1="199.38" y1="33.23" x2="216.00" y2="33.23" stroke="#333" stroke-width="0.75"/>
  <line x1="216.00" y1="16.62" x2="216.00" y2="33.23" stroke="#333" stroke-width="0.75"/>
</g>

<g transform="translate(270.0,290.0)">
  <rect x="0.00" y="182.77" width="16.62" height="16.62" fill="#493615"/>
  <rect x="0.00" y="199.38" width="16.62" height="16.62" fill="#281E0B"/>
  <rect x="16.62" y="166.15" width="16.62" height="16.62" fill="#493615"/>
  <rect x="16.62" y="182.77" width="16.62" height="16.62" fill="#896727"/>
  <rect x="16.62" y="199.38" width="16.62" height="16.62" fill="#281E0B"/>
  <rect x="33.23" y="149.54" width="16.62" height="16.62" fill="#493615"/>
  <rect x="33.23" y="166.15" width="16.62" height="16.62" fill="#896727"/>
  <rect x="33.23" y="182.77" width="16.62" height="16.62" fill="#281E0B"/>
  <rect x="49.85" y="132.92" width="16.62" height="16.62" fill="#493615"/>
  <rect x="49.85" y="149.54" width="16.62" height="16.62" fill="#684E1E"/>
  <rect x="49.85" y="166.15" width="16.62" height="16.62" fill="#281E0B"/>
  <rect x="66.46" y="116.31" width="16.62" height="16.62" fill="#493615"/>
  <rect x="66.46" y="132.92" width="16.62" height="16.62" fill="#896727"/>
  <rect x="66.46" y="149.54" width="16.62" height="16.62" fill="#281E0B"/>
  <rect x="83.08" y="99.69" width="16.62" height="16.62" fill="#493615"/>
  <rect x="83.08" y="116.31" width="16.62" height="16.62" fill="#684E1E"/>
  <rect x="83.08" y="132.92" width="16.62" height="16.62" fill="#281E0B"/>
  <rect x="99.69" y="83.08" width="16.62" height="16.62" fill="#493615"/>
  <rect x="99.69" y="99.69" width="16.62" height="16.62" fill="#896727"/>
  <rect x="99.69" y="116.31" width="16.62" height="16.62" fill="#281E0B"/>
  <rect x="116.31" y="66.46" width="16.62" height="16.62" fill="#493615"/>
  <rect x="116.31" y="83.08" width="16.62" height="16.62" fill="#684E1E"/>
  <rect x="116.31" y="99.69" width="16.62" height="16.62" fill="#281E0B"/>
  <rect x="132.92" y="49.85" width="16.62" height="16.62" fill="#493615"/>
  <rect x="132.92" y="66.46" width="16.62" height="16.62" fill="#896727"/>
  <rect x="132.92" y="83.08" width="16.62" height="16.62" fill="#281E0B"/>
  <rect x="149.54" y="33.23" width="16.62" height="16.62" fill="#493615"/>
  <rect x="149.54" y="49.85" width="16.62" height="16.62" fill="#684E1E"/>
  <rect x="149.54" y="66.46" width="16.62" height="16.62" fill="#281E0B"/>
  <rect x="166.15" y="16.62" width="16.62" height="16.62" fill="#493615"/>
  <rect x="166.15" y="33.23" width="16.62" height="16.62" fill="#896727"/>
  <rect x="166.15" y="49.85" width="16.62" height="16.62" fill="#281E0B"/>
  <rect x="182.77" y="0.00" width="16.62" height="16.62" fill="#493615"/>
  <rect x="182.77" y="16.62" width="16.62" height="16.62" fill="#896727"/>
  <rect x="182.77" y="33.23" width="16.62" height="16.62" fill="#281E0B"/>
  <rect x="199.38" y="0.00" width="16.62" height="16.62" fill="#281E0B"/>
  <rect x="199.38" y="16.62" width="16.62" height="16.62" fill="#281E0B"/>
  <line x1="0.00" y1="182.77" x2="16.62" y2="182.77" stroke="#333" stroke-width="0.75"/>
  <line x1="0.00" y1="182.77" x2="0.00" y2="199.38" stroke="#333" stroke-width="0.75"/>
  <line x1="0.00" y1="216.00" x2="16.62" y2="216.00" stroke="#333" stroke-width="0.75"/>
  <line x1="0.00" y1="199.38" x2="0.00" y2="216.00" stroke="#333" stroke-width="0.75"/>
  <line x1="16.62" y1="166.15" x2="33.23" y2="166.15" stroke="#333" stroke-width="0.75"/>
  <line x1="16.62" y1="166.15" x2="16.62" y2="182.77" stroke="#333" stroke-width="0.75"/>
  <line x1="16.62" y1="216.00" x2="33.23" y2="216.00" stroke="#333" stroke-width="0.75"/>
  <line x1="33.23" y1="199.38" x2="33.23" y2="216.00" stroke="#333" stroke-width="0.75"/>
  <line x1="33.23" y1="149.54" x2="49.85" y2="149.54" stroke="#333" stroke-width="0.75"/>
  <line x1="33.23" y1="149.54" x2="33.23" y2="166.15" stroke="#333" stroke-width="0.75"/>
  <line x1="33.23" y1="199.38" x2="49.85" y2="199.38" stroke="#333" stroke-width="0.75"/>
  <line x1="49.85" y1="182.77" x2="49.85" y2="199.38" stroke="#333" stroke-width="0.75"/>
  <line x1="49.85" y1="132.92" x2="66.46" y2="132.92" stroke="#333" stroke-width="0.75"/>
  <line x1="49.85" y1="132.92" x2="49.85" y2="149.54" stroke="#333" stroke-width="0.75"/>
  <line x1="49.85" y1="182.77" x2="66.46" y2="182.77" stroke="#333" stroke-width="0.75"/>
  <line x1="66.46" y1="166.15" x2="66.46" y2="182.77" stroke="#333" stroke-width="0.75"/>
  <line x1="66.46" y1="116.31" x2="83.08" y2="116.31" stroke="#333" stroke-width="0.75"/>
  <line x1="66.46" y1="116.31" x2="66.46" y2="132.92" stroke="#333" stroke-width="0.75"/>
  <line x1="66.46" y1="166.15" x2="83.08" y2="166.15" stroke="#333" stroke-width="0.75"/>
  <line x1="83.08" y1="149.54" x2="83.08" y2="166.15" stroke="#333" stroke-width="0.75"/>
  <line x1="83.08" y1="99.69" x2="99.69" y2="99.69" stroke="#333" stroke-width="0.75"/>
  <line x1="83.08" y1="99.69" x2="83.08" y2="116.31" stroke="#333" stroke-width="0.75"/>
  <line x1="83.08" y1="149.54" x2="99.69" y2="149.54" stroke="#333" stroke-width="0.75"/>
  <line x1="99.69" y1="132.92" x2="99.69" y2="149.54" stroke="#333" stroke-width="0.75"/>
  <line x1="99.69" y1="83.08" x2="116.31" y2="83.08" stroke="#333" stroke-width="0.75"/>
  <line x1="99.69" y1="83.08" x2="99.69" y2="99.69" stroke="#333" stroke-width="0.75"/>
  <line x1="99.69" y1="132.92" x2="116.31" y2="132.92" stroke="#333" stroke-width="0.75"/>
  <line x1="116.31" y1="116.31" x2="116.31" y2="132.92" stroke="#333" stroke-width="0.75"/>
  <line x1="116.31" y1="66.46" x2="132.92" y2="66.46" stroke="#333" stroke-width="0.75"/>
  <line x1="116.31" y1="66.46" x2="116.31" y2="83.08" stroke="#333" stroke-width="0.75"/>
  <line x1="116.31" y1="116.31" x2="132.92" y2="116.31" stroke="#333" stroke-width="0.75"/>
  <line x1="132.92" y1="99.69" x2="132.92" y2="116.31" stroke="#333" stroke-width="0.75"/>
  <line x1="132.92" y1="49.85" x2="149.54" y2="49.85" stroke="#333" stroke-width="0.75"/>
  <line x1="132.92" y1="49.85" x2="132.92" y2="66.46" stroke="#333" stroke-width="0.75"/>
  <line x1="132.92" y1="99.69" x2="149.54" y2="99.69" stroke="#333" stroke-width="0.75"/>
  <line x1="149.54" y1="83.08" x2="149.54" y2="99.69" stroke="#333" stroke-width="0.75"/>
  <line x1="149.54" y1="33.23" x2="166.15" y2="33.23" stroke="#333" stroke-width="0.75"/>
  <line x1="149.54" y1="33.23" x2="149.54" y2="49.85" stroke="#333" stroke-width="0.75"/>
  <line x1="149.54" y1="83.08" x2="166.15" y2="83.08" stroke="#333" stroke-width="0.75"/>
  <line x1="166.15" y1="66.46" x2="166.15" y2="83.08" stroke="#333" stroke-width="0.75"/>
  <line x1="166.15" y1="16.62" x2="182.77" y2="16.62" stroke="#333" stroke-width="0.75"/>
  <line x1="166.15" y1="16.62" x2="166.15" y2="33.23" stroke="#333" stroke-width="0.75"/>
  <line x1="166.15" y1="66.46" x2="182.77" y2="66.46" stroke="#333" stroke-width="0.75"/>
  <line x1="182.77" y1="49.85" x2="182.77" y2="66.46" stroke="#333" stroke-width="0.75"/>
  <line x1="182.77" y1="0.00" x2="199.38" y2="0.00" stroke="#333" stroke-width="0.75"/>
  <line x1="182.77" y1="0.00" x2="182.77" y2="16.62" stroke="#333" stroke-width="0.75"/>
  <line x1="182.77" y1="49.85" x2="199.38" y2="49.85" stroke="#333" stroke-width="0.75"/>
  <line x1="199.38" y1="33.23" x2="199.38" y2="49.85" stroke="#333" stroke-width="0.75"/>
  <line x1="199.38" y1="0.00" x2="216.00" y2="0.00" stroke="#333" stroke-width="0.75"/>
  <line x1="216.00" y1="0.00" x2="216.00" y2="16.62" stroke="#333" stroke-width="0.75"/>
  <line x1="199.38" y1="33.23" x2="216.00" y2="33.23" stroke="#333" stroke-width="0.75"/>
  <line x1="216.00" y1="16.62" x2="216.00" y2="33.23" stroke="#333" stroke-width="0.75"/>
</g>
<text x="36.0" y="768.0" font-size="8" fill="#999" font-family="sans-serif">stick — 1 pixel = 0.2308" — print at 100% on vinyl sticker paper</text>
</svg>