<?xml version="1.0" encoding="UTF-8"?>
<svg xmlns="http://www.w3.org/2000/svg" width="8.5in" height="11in" viewBox="0 0 612 792" shape-rendering="crispEdges">
<rect width="100%" height="100%" fill="white"/>
<text x="306" y="24" font-size="10" fill="#333" text-anchor="middle" font-family="sans-serif" font-weight="bold">Emerald x2 + Tripwire Hook x1</text>
<g transform="translate(18.0,36.0)">
<rect x="18.00" y="54.00" width="18.50" height="18.50" fill="#005300"/>
<rect x="18.00" y="72.00" width="18.50" height="18.50" fill="#005300"/>
<rect x="18.00" y="90.00" width="18.50" height="18.50" fill="#005300"/>
<rect x="18.00" y="108.00" width="18.50" height="18.50" fill="#005300"/>
<rect x="18.00" y="126.00" width="18.50" height="18.50" fill="#005300"/>
<rect x="18.00" y="144.00" width="18.50" height="18.50" fill="#005300"/>
<rect x="36.00" y="36.00" width="18.50" height="18.50" fill="#005300"/>
<rect x="36.00" y="54.00" width="18.50" height="18.50" fill="#DBFFEB"/>
<rect x="36.00" y="72.00" width="18.50" height="18.50" fill="#AFFDCD"/>
<rect x="36.00" y="90.00" width="18.50" height="18.50" fill="#AFFDCD"/>
<rect x="36.00" y="108.00" width="18.50" height="18.50" fill="#AFFDCD"/>
<rect x="36.00" y="126.00" width="18.50" height="18.50" fill="#AFFDCD"/>
<rect x="36.00" y="144.00" width="18.50" height="18.50" fill="#AFFDCD"/>
<rect x="36.00" y="162.00" width="18.50" height="18.50" fill="#005300"/>
<rect x="54.00" y="18.00" width="18.50" height="18.50" fill="#005300"/>
<rect x="54.00" y="36.00" width="18.50" height="18.50" fill="#DBFFEB"/>
<rect x="54.00" y="54.00" width="18.50" height="18.50" fill="#AFFDCD"/>
<rect x="54.00" y="72.00" width="18.50" height="18.50" fill="#17DD62"/>
<rect x="54.00" y="90.00" width="18.50" height="18.50" fill="#17DD62"/>
<rect x="54.00" y="108.00" width="18.50" height="18.50" fill="#17DD62"/>
<rect x="54.00" y="126.00" width="18.50" height="18.50" fill="#17DD62"/>
<rect x="54.00" y="144.00" width="18.50" height="18.50" fill="#17DD62"/>
<rect x="54.00" y="162.00" width="18.50" height="18.50" fill="#00AA2C"/>
<rect x="54.00" y="180.00" width="18.50" height="18.50" fill="#005300"/>
<rect x="72.00" y="0.00" width="18.50" height="18.50" fill="#005300"/>
<rect x="72.00" y="18.00" width="18.50" height="18.50" fill="#DBFFEB"/>
<rect x="72.00" y="36.00" width="18.50" height="18.50" fill="#AFFDCD"/>
<rect x="72.00" y="54.00" width="18.50" height="18.50" fill="#AFFDCD"/>
<rect x="72.00" y="72.00" width="18.50" height="18.50" fill="#17DD62"/>
<rect x="72.00" y="90.00" width="18.50" height="18.50" fill="#17DD62"/>
<rect x="72.00" y="108.00" width="18.50" height="18.50" fill="#17DD62"/>
<rect x="72.00" y="126.00" width="18.50" height="18.50" fill="#17DD62"/>
<rect x="72.00" y="144.00" width="18.50" height="18.50" fill="#17DD62"/>
<rect x="72.00" y="162.00" width="18.50" height="18.50" fill="#009529"/>
<rect x="72.00" y="180.00" width="18.50" height="18.50" fill="#00AA2C"/>
<rect x="72.00" y="198.00" width="18.50" height="18.50" fill="#002D00"/>
<rect x="90.00" y="0.00" width="18.50" height="18.50" fill="#005300"/>
<rect x="90.00" y="18.00" width="18.50" height="18.50" fill="#41F384"/>
<rect x="90.00" y="36.00" width="18.50" height="18.50" fill="#41F384"/>
<rect x="90.00" y="54.00" width="18.50" height="18.50" fill="#41F384"/>
<rect x="90.00" y="72.00" width="18.50" height="18.50" fill="#AFFDCD"/>
<rect x="90.00" y="90.00" width="18.50" height="18.50" fill="#AFFDCD"/>
<rect x="90.00" y="108.00" width="18.50" height="18.50" fill="#AFFDCD"/>
<rect x="90.00" y="126.00" width="18.50" height="18.50" fill="#82F6AD"/>
<rect x="90.00" y="144.00" width="18.50" height="18.50" fill="#82F6AD"/>
<rect x="90.00" y="162.00" width="18.50" height="18.50" fill="#007B18"/>
<rect x="90.00" y="180.00" width="18.50" height="18.50" fill="#009529"/>
<rect x="90.00" y="198.00" width="18.50" height="18.50" fill="#002D00"/>
<rect x="108.00" y="0.00" width="18.50" height="18.50" fill="#005300"/>
<rect x="108.00" y="18.00" width="18.50" height="18.50" fill="#41F384"/>
<rect x="108.00" y="36.00" width="18.50" height="18.50" fill="#41F384"/>
<rect x="108.00" y="54.00" width="18.50" height="18.50" fill="#41F384"/>
<rect x="108.00" y="72.00" width="18.50" height="18.50" fill="#AFFDCD"/>
<rect x="108.00" y="90.00" width="18.50" height="18.50" fill="#82F6AD"/>
<rect x="108.00" y="108.00" width="18.50" height="18.50" fill="#82F6AD"/>
<rect x="108.00" y="126.00" width="18.50" height="18.50" fill="#82F6AD"/>
<rect x="108.00" y="144.00" width="18.50" height="18.50" fill="#41F384"/>
<rect x="108.00" y="162.00" width="18.50" height="18.50" fill="#007B18"/>
<rect x="108.00" y="180.00" width="18.50" height="18.50" fill="#007B18"/>
<rect x="108.00" y="198.00" width="18.50" height="18.50" fill="#002D00"/>
<rect x="126.00" y="0.00" width="18.50" height="18.50" fill="#005300"/>
<rect x="126.00" y="18.00" width="18.50" height="18.50" fill="#17DD62"/>
<rect x="126.00" y="36.00" width="18.50" height="18.50" fill="#00AA2C"/>
<rect x="126.00" y="54.00" width="18.50" height="18.50" fill="#00AA2C"/>
<rect x="126.00" y="72.00" width="18.50" height="18.50" fill="#00AA2C"/>
<rect x="126.00" y="90.00" width="18.50" height="18.50" fill="#00AA2C"/>
<rect x="126.00" y="108.00" width="18.50" height="18.50" fill="#00AA2C"/>
<rect x="126.00" y="126.00" width="18.50" height="18.50" fill="#00AA2C"/>
<rect x="126.00" y="144.00" width="18.50" height="18.50" fill="#007B18"/>
<rect x="126.00" y="162.00" width="18.50" height="18.50" fill="#009529"/>
<rect x="126.00" y="180.00" width="18.50" height="18.50" fill="#17DD62"/>
<rect x="126.00" y="198.00" width="18.50" height="18.50" fill="#002D00"/>
<rect x="144.00" y="18.00" width="18.50" height="18.50" fill="#005300"/>
<rect x="144.00" y="36.00" width="18.50" height="18.50" fill="#17DD62"/>
<rect x="144.00" y="54.00" width="18.50" height="18.50" fill="#00AA2C"/>
<rect x="144.00" y="72.00" width="18.50" height="18.50" fill="#009529"/>
<rect x="144.00" y="90.00" width="18.50" height="18.50" fill="#007B18"/>
<rect x="144.00" y="108.00" width="18.50" height="18.50" fill="#007B18"/>
<rect x="144.00" y="126.00" width="18.50" height="18.50" fill="#007B18"/>
<rect x="144.00" y="144.00" width="18.50" height="18.50" fill="#009529"/>
<rect x="144.00" y="162.00" width="18.50" height="18.50" fill="#82F6AD"/>
<rect x="144.00" y="180.00" width="18.50" height="18.50" fill="#002D00"/>
<rect x="162.00" y="36.00" width="18.50" height="18.50" fill="#002D00"/>
<rect x="162.00" y="54.00" width="18.50" height="18.50" fill="#17DD62"/>
<rect x="162.00" y="72.00" width="18.50" height="18.50" fill="#00AA2C"/>
<rect x="162.00" y="90.00" width="18.50" height="18.50" fill="#00AA2C"/>
<rect x="162.00" y="108.00" width="18.50" height="18.50" fill="#00AA2C"/>
<rect x="162.00" y="126.00" width="18.50" height="18.50" fill="#17DD62"/>
<rect x="162.00" y="144.00" width="18.50" height="18.50" fill="#17DD62"/>
<rect x="162.00" y="162.00" width="18.50" height="18.50" fill="#002D00"/>
<rect x="180.00" y="54.00" width="18.50" height="18.50" fill="#002D00"/>
<rect x="180.00" y="72.00" width="18.50" height="18.50" fill="#002D00"/>
<rect x="180.00" y="90.00" width="18.50" height="18.50" fill="#002D00"/>
<rect x="180.00" y="108.00" width="18.50" height="18.50" fill="#002D00"/>
<rect x="180.00" y="126.00" width="18.50" height="18.50" fill="#002D00"/>
<rect x="180.00" y="144.00" width="18.50" height="18.50" fill="#002D00"/>
<line x1="18.00" y1="54.00" x2="36.00" y2="54.00" stroke="#333" stroke-width="0.75"/>
<line x1="18.00" y1="54.00" x2="18.00" y2="72.00" stroke="#333" stroke-width="0.75"/>
<line x1="18.00" y1="72.00" x2="18.00" y2="90.00" stroke="#333" stroke-width="0.75"/>
<line x1="18.00" y1="90.00" x2="18.00" y2="108.00" stroke="#333" stroke-width="0.75"/>
<line x1="18.00" y1="108.00" x2="18.00" y2="126.00" stroke="#333" stroke-width="0.75"/>
<line x1="18.00" y1="126.00" x2="18.00" y2="144.00" stroke="#333" stroke-width="0.75"/>
<line x1="18.00" y1="162.00" x2="36.00" y2="162.00" stroke="#333" stroke-width="0.75"/>
<line x1="18.00" y1="144.00" x2="18.00" y2="162.00" stroke="#333" stroke-width="0.75"/>
<line x1="36.00" y1="36.00" x2="54.00" y2="36.00" stroke="#333" stroke-width="0.75"/>
<line x1="36.00" y1="36.00" x2="36.00" y2="54.00" stroke="#333" stroke-width="0.75"/>
<line x1="36.00" y1="180.00" x2="54.00" y2="180.00" stroke="#333" stroke-width="0.75"/>
<line x1="36.00" y1="162.00" x2="36.00" y2="180.00" stroke="#333" stroke-width="0.75"/>
<line x1="54.00" y1="18.00" x2="72.00" y2="18.00" stroke="#333" stroke-width="0.75"/>
<line x1="54.00" y1="18.00" x2="54.00" y2="36.00" stroke="#333" stroke-width="0.75"/>
<line x1="54.00" y1="198.00" x2="72.00" y2="198.00" stroke="#333" stroke-width="0.75"/>
<line x1="54.00" y1="180.00" x2="54.00" y2="198.00" stroke="#333" stroke-width="0.75"/>
<line x1="72.00" y1="0.00" x2="90.00" y2="0.00" stroke="#333" stroke-width="0.75"/>
<line x1="72.00" y1="0.00" x2="72.00" y2="18.00" stroke="#333" stroke-width="0.75"/>
<line x1="72.00" y1="216.00" x2="90.00" y2="216.00" stroke="#333" stroke-width="0.75"/>
<line x1="72.00" y1="198.00" x2="72.00" y2="216.00" stroke="#333" stroke-width="0.75"/>
<line x1="90.00" y1="0.00" x2="108.00" y2="0.00" stroke="#333" stroke-width="0.75"/>
<line x1="90.00" y1="216.00" x2="108.00" y2="216.00" stroke="#333" stroke-width="0.75"/>
<line x1="108.00" y1="0.00" x2="126.00" y2="0.00" stroke="#333" stroke-width="0.75"/>
<line x1="108.00" y1="216.00" x2="126.00" y2="216.00" stroke="#333" stroke-width="0.75"/>
<line x1="126.00" y1="0.00" x2="144.00" y2="0.00" stroke="#333" stroke-width="0.75"/>
<line x1="144.00" y1="0.00" x2="144.00" y2="18.00" stroke="#333" stroke-width="0.75"/>
<line x1="126.00" y1="216.00" x2="144.00" y2="216.00" stroke="#333" stroke-width="0.75"/>
<line x1="144.00" y1="198.00" x2="144.00" y2="216.00" stroke="#333" stroke-width="0.75"/>
<line x1="144.00" y1="18.00" x2="162.00" y2="18.00" stroke="#333" stroke-width="0.75"/>
<line x1="162.00" y1="18.00" x2="162.00" y2="36.00" stroke="#333" stroke-width="0.75"/>
<line x1="144.00" y1="198.00" x2="162.00" y2="198.00" stroke="#333" stroke-width="0.75"/>
<line x1="162.00" y1="180.00" x2="162.00" y2="198.00" stroke="#333" stroke-width="0.75"/>
<line x1="162.00" y1="36.00" x2="180.00" y2="36.00" stroke="#333" stroke-width="0.75"/>
<line x1="180.00" y1="36.00" x2="180.00" y2="54.00" stroke="#333" stroke-width="0.75"/>
<line x1="162.00" y1="180.00" x2="180.00" y2="180.00" stroke="#333" stroke-width="0.75"/>
<line x1="180.00" y1="162.00" x2="180.00" y2="180.00" stroke="#333" stroke-width="0.75"/>
<line x1="180.00" y1="54.00" x2="198.00" y2="54.00" stroke="#333" stroke-width="0.75"/>
<line x1="198.00" y1="54.00" x2="198.00" y2="72.00" stroke="#333" stroke-width="0.75"/>
<line x1="198.00" y1="72.00" x2="198.00" y2="90.00" stroke="#333" stroke-width="0.75"/>
<line x1="198.00" y1="90.00" x2="198.00" y2="108.00" stroke="#333" stroke-width="0.75"/>
<line x1="198.00" y1="108.00" x2="198.00" y2="126.00" stroke="#333" stroke-width="0.75"/>
<line x1="198.00" y1="126.00" x2="198.00" y2="144.00" stroke="#333" stroke-width="0.75"/>
<line x1="180.00" y1="162.00" x2="198.00" y2="162.00" stroke="#333" stroke-width="0.75"/>
<line x1="198.00" y1="144.00" x2="198.00" y2="162.00" stroke="#333" stroke-width="0.75"/>
</g>
<g transform="translate(238.0,36.0)">
<rect x="18.00" y="54.00" width="18.50" height="18.50" fill="#005300"/>
<rect x="18.00" y="72.00" width="18.50" height="18.50" fill="#005300"/>
<rect x="18.00" y="90.00" width="18.50" height="18.50" fill="#005300"/>
<rect x="18.00" y="108.00" width="18.50" height="18.50" fill="#005300"/>
<rect x="18.00" y="126.00" width="18.50" height="18.50" fill="#005300"/>
<rect x="18.00" y="144.00" width="18.50" height="18.50" fill="#005300"/>
<rect x="36.00" y="36.00" width="18.50" height="18.50" fill="#005300"/>
<rect x="36.00" y="54.00" width="18.50" height="18.50" fill="#DBFFEB"/>
<rect x="36.00" y="72.00" width="18.50" height="18.50" fill="#AFFDCD"/>
<rect x="36.00" y="90.00" width="18.50" height="18.50" fill="#AFFDCD"/>
<rect x="36.00" y="108.00" width="18.50" height="18.50" fill="#AFFDCD"/>
<rect x="36.00" y="126.00" width="18.50" height="18.50" fill="#AFFDCD"/>
<rect x="36.00" y="144.00" width="18.50" height="18.50" fill="#AFFDCD"/>
<rect x="36.00" y="162.00" width="18.50" height="18.50" fill="#005300"/>
<rect x="54.00" y="18.00" width="18.50" height="18.50" fill="#005300"/>
<rect x="54.00" y="36.00" width="18.50" height="18.50" fill="#DBFFEB"/>
<rect x="54.00" y="54.00" width="18.50" height="18.50" fill="#AFFDCD"/>
<rect x="54.00" y="72.00" width="18.50" height="18.50" fill="#17DD62"/>
<rect x="54.00" y="90.00" width="18.50" height="18.50" fill="#17DD62"/>
<rect x="54.00" y="108.00" width="18.50" height="18.50" fill="#17DD62"/>
<rect x="54.00" y="126.00" width="18.50" height="18.50" fill="#17DD62"/>
<rect x="54.00" y="144.00" width="18.50" height="18.50" fill="#17DD62"/>
<rect x="54.00" y="162.00" width="18.50" height="18.50" fill="#00AA2C"/>
<rect x="54.00" y="180.00" width="18.50" height="18.50" fill="#005300"/>
<rect x="72.00" y="0.00" width="18.50" height="18.50" fill="#005300"/>
<rect x="72.00" y="18.00" width="18.50" height="18.50" fill="#DBFFEB"/>
<rect x="72.00" y="36.00" width="18.50" height="18.50" fill="#AFFDCD"/>
<rect x="72.00" y="54.00" width="18.50" height="18.50" fill="#AFFDCD"/>
<rect x="72.00" y="72.00" width="18.50" height="18.50" fill="#17DD62"/>
<rect x="72.00" y="90.00" width="18.50" height="18.50" fill="#17DD62"/>
<rect x="72.00" y="108.00" width="18.50" height="18.50" fill="#17DD62"/>
<rect x="72.00" y="126.00" width="18.50" height="18.50" fill="#17DD62"/>
<rect x="72.00" y="144.00" width="18.50" height="18.50" fill="#17DD62"/>
<rect x="72.00" y="162.00" width="18.50" height="18.50" fill="#009529"/>
<rect x="72.00" y="180.00" width="18.50" height="18.50" fill="#00AA2C"/>
<rect x="72.00" y="198.00" width="18.50" height="18.50" fill="#002D00"/>
<rect x="90.00" y="0.00" width="18.50" height="18.50" fill="#005300"/>
<rect x="90.00" y="18.00" width="18.50" height="18.50" fill="#41F384"/>
<rect x="90.00" y="36.00" width="18.50" height="18.50" fill="#41F384"/>
<rect x="90.00" y="54.00" width="18.50" height="18.50" fill="#41F384"/>
<rect x="90.00" y="72.00" width="18.50" height="18.50" fill="#AFFDCD"/>
<rect x="90.00" y="90.00" width="18.50" height="18.50" fill="#AFFDCD"/>
<rect x="90.00" y="108.00" width="18.50" height="18.50" fill="#AFFDCD"/>
<rect x="90.00" y="126.00" width="18.50" height="18.50" fill="#82F6AD"/>
<rect x="90.00" y="144.00" width="18.50" height="18.50" fill="#82F6AD"/>
<rect x="90.00" y="162.00" width="18.50" height="18.50" fill="#007B18"/>
<rect x="90.00" y="180.00" width="18.50" height="18.50" fill="#009529"/>
<rect x="90.00" y="198.00" width="18.50" height="18.50" fill="#002D00"/>
<rect x="108.00" y="0.00" width="18.50" height="18.50" fill="#005300"/>
<rect x="108.00" y="18.00" width="18.50" height="18.50" fill="#41F384"/>
<rect x="108.00" y="36.00" width="18.50" height="18.50" fill="#41F384"/>
<rect x="108.00" y="54.00" width="18.50" height="18.50" fill="#41F384"/>
<rect x="108.00" y="72.00" width="18.50" height="18.50" fill="#AFFDCD"/>
<rect x="108.00" y="90.00" width="18.50" height="18.50" fill="#82F6AD"/>
<rect x="108.00" y="108.00" width="18.50" height="18.50" fill="#82F6AD"/>
<rect x="108.00" y="126.00" width="18.50" height="18.50" fill="#82F6AD"/>
<rect x="108.00" y="144.00" width="18.50" height="18.50" fill="#41F384"/>
<rect x="108.00" y="162.00" width="18.50" height="18.50" fill="#007B18"/>
<rect x="108.00" y="180.00" width="18.50" height="18.50" fill="#007B18"/>
<rect x="108.00" y="198.00" width="18.50" height="18.50" fill="#002D00"/>
<rect x="126.00" y="0.00" width="18.50" height="18.50" fill="#005300"/>
<rect x="126.00" y="18.00" width="18.50" height="18.50" fill="#17DD62"/>
<rect x="126.00" y="36.00" width="18.50" height="18.50" fill="#00AA2C"/>
<rect x="126.00" y="54.00" width="18.50" height="18.50" fill="#00AA2C"/>
<rect x="126.00" y="72.00" width="18.50" height="18.50" fill="#00AA2C"/>
<rect x="126.00" y="90.00" width="18.50" height="18.50" fill="#00AA2C"/>
<rect x="126.00" y="108.00" width="18.50" height="18.50" fill="#00AA2C"/>
<rect x="126.00" y="126.00" width="18.50" height="18.50" fill="#00AA2C"/>
<rect x="126.00" y="144.00" width="18.50" height="18.50" fill="#007B18"/>
<rect x="126.00" y="162.00" width="18.50" height="18.50" fill="#009529"/>
<rect x="126.00" y="180.00" width="18.50" height="18.50" fill="#17DD62"/>
<rect x="126.00" y="198.00" width="18.50" height="18.50" fill="#002D00"/>
<rect x="144.00" y="18.00" width="18.50" height="18.50" fill="#005300"/>
<rect x="144.00" y="36.00" width="18.50" height="18.50" fill="#17DD62"/>
<rect x="144.00" y="54.00" width="18.50" height="18.50" fill="#00AA2C"/>
<rect x="144.00" y="72.00" width="18.50" height="18.50" fill="#009529"/>
<rect x="144.00" y="90.00" width="18.50" height="18.50" fill="#007B18"/>
<rect x="144.00" y="108.00" width="18.50" height="18.50" fill="#007B18"/>
<rect x="144.00" y="126.00" width="18.50" height="18.50" fill="#007B18"/>
<rect x="144.00" y="144.00" width="18.50" height="18.50" fill="#009529"/>
<rect x="144.00" y="162.00" width="18.50" height="18.50" fill="#82F6AD"/>
<rect x="144.00" y="180.00" width="18.50" height="18.50" fill="#002D00"/>
<rect x="162.00" y="36.00" width="18.50" height="18.50" fill="#002D00"/>
<rect x="162.00" y="54.00" width="18.50" height="18.50" fill="#17DD62"/>
<rect x="162.00" y="72.00" width="18.50" height="18.50" fill="#00AA2C"/>
<rect x="162.00" y="90.00" width="18.50" height="18.50" fill="#00AA2C"/>
<rect x="162.00" y="108.00" width="18.50" height="18.50" fill="#00AA2C"/>
<rect x="162.00" y="126.00" width="18.50" height="18.50" fill="#17DD62"/>
<rect x="162.00" y="144.00" width="18.50" height="18.50" fill="#17DD62"/>
<rect x="162.00" y="162.00" width="18.50" height="18.50" fill="#002D00"/>
<rect x="180.00" y="54.00" width="18.50" height="18.50" fill="#002D00"/>
<rect x="180.00" y="72.00" width="18.50" height="18.50" fill="#002D00"/>
<rect x="180.00" y="90.00" width="18.50" height="18.50" fill="#002D00"/>
<rect x="180.00" y="108.00" width="18.50" height="18.50" fill="#002D00"/>
<rect x="180.00" y="126.00" width="18.50" height="18.50" fill="#002D00"/>
<rect x="180.00" y="144.00" width="18.50" height="18.50" fill="#002D00"/>
<line x1="18.00" y1="54.00" x2="36.00" y2="54.00" stroke="#333" stroke-width="0.75"/>
<line x1="18.00" y1="54.00" x2="18.00" y2="72.00" stroke="#333" stroke-width="0.75"/>
<line x1="18.00" y1="72.00" x2="18.00" y2="90.00" stroke="#333" stroke-width="0.75"/>
<line x1="18.00" y1="90.00" x2="18.00" y2="108.00" stroke="#333" stroke-width="0.75"/>
<line x1="18.00" y1="108.00" x2="18.00" y2="126.00" stroke="#333" stroke-width="0.75"/>
<line x1="18.00" y1="126.00" x2="18.00" y2="144.00" stroke="#333" stroke-width="0.75"/>
<line x1="18.00" y1="162.00" x2="36.00" y2="162.00" stroke="#333" stroke-width="0.75"/>
<line x1="18.00" y1="144.00" x2="18.00" y2="162.00" stroke="#333" stroke-width="0.75"/>
<line x1="36.00" y1="36.00" x2="54.00" y2="36.00" stroke="#333" stroke-width="0.75"/>
<line x1="36.00" y1="36.00" x2="36.00" y2="54.00" stroke="#333" stroke-width="0.75"/>
<line x1="36.00" y1="180.00" x2="54.00" y2="180.00" stroke="#333" stroke-width="0.75"/>
<line x1="36.00" y1="162.00" x2="36.00" y2="180.00" stroke="#333" stroke-width="0.75"/>
<line x1="54.00" y1="18.00" x2="72.00" y2="18.00" stroke="#333" stroke-width="0.75"/>
<line x1="54.00" y1="18.00" x2="54.00" y2="36.00" stroke="#333" stroke-width="0.75"/>
<line x1="54.00" y1="198.00" x2="72.00" y2="198.00" stroke="#333" stroke-width="0.75"/>
<line x1="54.00" y1="180.00" x2="54.00" y2="198.00" stroke="#333" stroke-width="0.75"/>
<line x1="72.00" y1="0.00" x2="90.00" y2="0.00" stroke="#333" stroke-width="0.75"/>
<line x1="72.00" y1="0.00" x2="72.00" y2="18.00" stroke="#333" stroke-width="0.75"/>
<line x1="72.00" y1="216.00" x2="90.00" y2="216.00" stroke="#333" stroke-width="0.75"/>
<line x1="72.00" y1="198.00" x2="72.00" y2="216.00" stroke="#333" stroke-width="0.75"/>
<line x1="90.00" y1="0.00" x2="108.00" y2="0.00" stroke="#333" stroke-width="0.75"/>
<line x1="90.00" y1="216.00" x2="108.00" y2="216.00" stroke="#333" stroke-width="0.75"/>
<line x1="108.00" y1="0.00" x2="126.00" y2="0.00" stroke="#333" stroke-width="0.75"/>
<line x1="108.00" y1="216.00" x2="126.00" y2="216.00" stroke="#333" stroke-width="0.75"/>
<line x1="126.00" y1="0.00" x2="144.00" y2="0.00" stroke="#333" stroke-width="0.75"/>
<line x1="144.00" y1="0.00" x2="144.00" y2="18.00" stroke="#333" stroke-width="0.75"/>
<line x1="126.00" y1="216.00" x2="144.00" y2="216.00" stroke="#333" stroke-width="0.75"/>
<line x1="144.00" y1="198.00" x2="144.00" y2="216.00" stroke="#333" stroke-width="0.75"/>
<line x1="144.00" y1="18.00" x2="162.00" y2="18.00" stroke="#333" stroke-width="0.75"/>
<line x1="162.00" y1="18.00" x2="162.00" y2="36.00" stroke="#333" stroke-width="0.75"/>
<line x1="144.00" y1="198.00" x2="162.00" y2="198.00" stroke="#333" stroke-width="0.75"/>
<line x1="162.00" y1="180.00" x2="162.00" y2="198.00" stroke="#333" stroke-width="0.75"/>
<line x1="162.00" y1="36.00" x2="180.00" y2="36.00" stroke="#333" stroke-width="0.75"/>
<line x1="180.00" y1="36.00" x2="180.00" y2="54.00" stroke="#333" stroke-width="0.75"/>
<line x1="162.00" y1="180.00" x2="180.00" y2="180.00" stroke="#333" stroke-width="0.75"/>
<line x1="180.00" y1="162.00" x2="180.00" y2="180.00" stroke="#333" stroke-width="0.75"/>
<line x1="180.00" y1="54.00" x2="198.00" y2="54.00" stroke="#333" stroke-width="0.75"/>
<line x1="198.00" y1="54.00" x2="198.00" y2="72.00" stroke="#333" stroke-width="0.75"/>
<line x1="198.00" y1="72.00" x2="198.00" y2="90.00" stroke="#333" stroke-width="0.75"/>
<line x1="198.00" y1="90.00" x2="198.00" y2="108.00" stroke="#333" stroke-width="0.75"/>
<line x1="198.00" y1="108.00" x2="198.00" y2="126.00" stroke="#333" stroke-width="0.75"/>
<line x1="198.00" y1="126.00" x2="198.00" y2="144.00" stroke="#333" stroke-width="0.75"/>
<line x1="180.00" y1="162.00" x2="198.00" y2="162.00" stroke="#333" stroke-width="0.75"/>
<line x1="198.00" y1="144.00" x2="198.00" y2="162.00" stroke="#333" stroke-width="0.75"/>
</g>
<g transform="translate(18.0,256.0)">
<rect x="58.15" y="0.00" width="17.12" height="17.12" fill="#909090"/>
<rect x="58.15" y="16.62" width="17.12" height="17.12" fill="#898989"/>
<rect x="58.15" y="33.23" width="17.12" height="17.12" fill="#898989"/>
<rect x="58.15" y="49.85" width="17.12" height="17.12" fill="#848484"/>
<rect x="58.15" y="66.46" width="17.12" height="17.12" fill="#848484"/>
<rect x="58.15" y="83.08" width="17.12" height="17.12" fill="#848484"/>
<rect x="74.77" y="0.00" width="17.12" height="17.12" fill="#898989"/>
<rect x="74.77" y="16.62" width="17.12" height="17.12" fill="#909090"/>
<rect x="74.77" y="33.23" width="17.12" height="17.12" fill="#7A7A7A"/>
<rect x="74.77" y="49.85" width="17.12" height="17.12" fill="#7A7A7A"/>
<rect x="74.77" y="66.46" width="17.12" height="17.12" fill="#909090"/>
<rect x="74.77" y="83.08" width="17.12" height="17.12" fill="#898989"/>
<rect x="91.38" y="0.00" width="17.12" height="17.12" fill="#898989"/>
<rect x="91.38" y="16.62" width="17.12" height="17.12" fill="#7A7A7A"/>
<rect x="91.38" y="66.46" width="17.12" height="17.12" fill="#949494"/>
<rect x="91.38" y="83.08" width="17.12" height="17.12" fill="#848484"/>
<rect x="91.38" y="99.69" width="17.12" height="17.12" fill="#9F844D"/>
<rect x="91.38" y="116.31" width="17.12" height="17.12" fill="#BC9862"/>
<rect x="91.38" y="132.92" width="17.12" height="17.12" fill="#BC9862"/>
<rect x="91.38" y="149.54" width="17.12" height="17.12" fill="#B4905A"/>
<rect x="91.38" y="166.15" width="17.12" height="17.12" fill="#B4905A"/>
<rect x="91.38" y="182.77" width="17.12" height="17.12" fill="#9F844D"/>
<rect x="91.38" y="199.38" width="17.12" height="17.12" fill="#735E39"/>
<rect x="108.00" y="0.00" width="17.12" height="17.12" fill="#848484"/>
<rect x="108.00" y="16.62" width="17.12" height="17.12" fill="#7A7A7A"/>
<rect x="108.00" y="66.46" width="17.12" height="17.12" fill="#949494"/>
<rect x="108.00" y="83.08" width="17.12" height="17.12" fill="#7A7A7A"/>
<rect x="108.00" y="99.69" width="17.12" height="17.12" fill="#735E39"/>
<rect x="108.00" y="116.31" width="17.12" height="17.12" fill="#BC9862"/>
<rect x="108.00" y="132.92" width="17.12" height="17.12" fill="#B4905A"/>
<rect x="108.00" y="149.54" width="17.12" height="17.12" fill="#B4905A"/>
<rect x="108.00" y="166.15" width="17.12" height="17.12" fill="#9F844D"/>
<rect x="108.00" y="182.77" width="17.12" height="17.12" fill="#9F844D"/>
<rect x="108.00" y="199.38" width="17.12" height="17.12" fill="#735E39"/>
<rect x="124.62" y="0.00" width="17.12" height="17.12" fill="#898989"/>
<rect x="124.62" y="16.62" width="17.12" height="17.12" fill="#909090"/>
<rect x="124.62" y="33.23" width="17.12" height="17.12" fill="#949494"/>
<rect x="124.62" y="49.85" width="17.12" height="17.12" fill="#949494"/>
<rect x="124.62" y="66.46" width="17.12" height="17.12" fill="#898989"/>
<rect x="124.62" y="83.08" width="17.12" height="17.12" fill="#7A7A7A"/>
<rect x="141.23" y="0.00" width="17.12" height="17.12" fill="#848484"/>
<rect x="141.23" y="16.62" width="17.12" height="17.12" fill="#898989"/>
<rect x="141.23" y="33.23" width="17.12" height="17.12" fill="#848484"/>
<rect x="141.23" y="49.85" width="17.12" height="17.12" fill="#848484"/>
<rect x="141.23" y="66.46" width="17.12" height="17.12" fill="#7A7A7A"/>
<rect x="141.23" y="83.08" width="17.12" height="17.12" fill="#7A7A7A"/>
<line x1="58.15" y1="0.00" x2="74.77" y2="0.00" stroke="#333" stroke-width="0.75"/>
<line x1="58.15" y1="0.00" x2="58.15" y2="16.62" stroke="#333" stroke-width="0.75"/>
<line x1="58.15" y1="16.62" x2="58.15" y2="33.23" stroke="#333" stroke-width="0.75"/>
<line x1="58.15" y1="33.23" x2="58.15" y2="49.85" stroke="#333" stroke-width="0.75"/>
<line x1="58.15" y1="49.85" x2="58.15" y2="66.46" stroke="#333" stroke-width="0.75"/>
<line x1="58.15" y1="66.46" x2="58.15" y2="83.08" stroke="#333" stroke-width="0.75"/>
<line x1="58.15" y1="99.69" x2="74.77" y2="99.69" stroke="#333" stroke-width="0.75"/>
<line x1="58.15" y1="83.08" x2="58.15" y2="99.69" stroke="#333" stroke-width="0.75"/>
<line x1="74.77" y1="0.00" x2="91.38" y2="0.00" stroke="#333" stroke-width="0.75"/>
<line x1="91.38" y1="33.23" x2="91.38" y2="49.85" stroke="#333" stroke-width="0.75"/>
<line x1="91.38" y1="49.85" x2="91.38" y2="66.46" stroke="#333" stroke-width="0.75"/>
<line x1="74.77" y1="99.69" x2="91.38" y2="99.69" stroke="#333" stroke-width="0.75"/>
<line x1="91.38" y1="0.00" x2="108.00" y2="0.00" stroke="#333" stroke-width="0.75"/>
<line x1="91.38" y1="33.23" x2="108.00" y2="33.23" stroke="#333" stroke-width="0.75"/>
<line x1="91.38" y1="66.46" x2="108.00" y2="66.46" stroke="#333" stroke-width="0.75"/>
<line x1="91.38" y1="99.69" x2="91.38" y2="116.31" stroke="#333" stroke-width="0.75"/>
<line x1="91.38" y1="116.31" x2="91.38" y2="132.92" stroke="#333" stroke-width="0.75"/>
<line x1="91.38" y1="132.92" x2="91.38" y2="149.54" stroke="#333" stroke-width="0.75"/>
<line x1="91.38" y1="149.54" x2="91.38" y2="166.15" stroke="#333" stroke-width="0.75"/>
<line x1="91.38" y1="166.15" x2="91.38" y2="182.77" stroke="#333" stroke-width="0.75"/>
<line x1="91.38" y1="182.77" x2="91.38" y2="199.38" stroke="#333" stroke-width="0.75"/>
<line x1="91.38" y1="216.00" x2="108.00" y2="216.00" stroke="#333" stroke-width="0.75"/>
<line x1="91.38" y1="199.38" x2="91.38" y2="216.00" stroke="#333" stroke-width="0.75"/>
<line x1="108.00" y1="0.00" x2="124.62" y2="0.00" stroke="#333" stroke-width="0.75"/>
<line x1="108.00" y1="33.23" x2="124.62" y2="33.23" stroke="#333" stroke-width="0.75"/>
<line x1="108.00" y1="66.46" x2="124.62" y2="66.46" stroke="#333" stroke-width="0.75"/>
<line x1="124.62" y1="99.69" x2="124.62" y2="116.31" stroke="#333" stroke-width="0.75"/>
<line x1="124.62" y1="116.31" x2="124.62" y2="132.92" stroke="#333" stroke-width="0.75"/>
<line x1="124.62" y1="132.92" x2="124.62" y2="149.54" stroke="#333" stroke-width="0.75"/>
<line x1="124.62" y1="149.54" x2="124.62" y2="166.15" stroke="#333" stroke-width="0.75"/>
<line x1="124.62" y1="166.15" x2="124.62" y2="182.77" stroke="#333" stroke-width="0.75"/>
<line x1="124.62" y1="182.77" x2="124.62" y2="199.38" stroke="#333" stroke-width="0.75"/>
<line x1="108.00" y1="216.00" x2="124.62" y2="216.00" stroke="#333" stroke-width="0.75"/>
<line x1="124.62" y1="199.38" x2="124.62" y2="216.00" stroke="#333" stroke-width="0.75"/>
<line x1="124.62" y1="0.00" x2="141.23" y2="0.00" stroke="#333" stroke-width="0.75"/>
<line x1="124.62" y1="33.23" x2="124.62" y2="49.85" stroke="#333" stroke-width="0.75"/>
<line x1="124.62" y1="49.85" x2="124.62" y2="66.46" stroke="#333" stroke-width="0.75"/>
<line x1="124.62" y1="99.69" x2="141.23" y2="99.69" stroke="#333" stroke-width="0.75"/>
<line x1="141.23" y1="0.00" x2="157.85" y2="0.00" stroke="#333" stroke-width="0.75"/>
<line x1="157.85" y1="0.00" x2="157.85" y2="16.62" stroke="#333" stroke-width="0.75"/>
<line x1="157.85" y1="16.62" x2="157.85" y2="33.23" stroke="#333" stroke-width="0.75"/>
<line x1="157.85" y1="33.23" x2="157.85" y2="49.85" stroke="#333" stroke-width="0.75"/>
<line x1="157.85" y1="49.85" x2="157.85" y2="66.46" stroke="#333" stroke-width="0.75"/>
<line x1="157.85" y1="66.46" x2="157.85" y2="83.08" stroke="#333" stroke-width="0.75"/>
<line x1="141.23" y1="99.69" x2="157.85" y2="99.69" stroke="#333" stroke-width="0.75"/>
<line x1="157.85" y1="83.08" x2="157.85" y2="99.69" stroke="#333" stroke-width="0.75"/>
</g>
</svg>